<svg xmlns="http://www.w3.org/2000/svg" width="498.2" height="175.4" viewBox="0 0 498.2 175.4"><path d="M154.8 122.6c-4.4 2.9-10.9 7.3-19.8 13.3.4.4.8.6 1.2.6.8 0 2.3-.7 4.5-2-.4.5-.5 1-.2 1.2.7-.3 1.6-.7 2.9-1.2-1.4 1.1-2.9 2-4.5 2.9l-1.4 1.6c-2.2 1-5.4 2.7-9.6 5.1-.3.1-.3.3 0 .6 7.5-3.5 13.6-6.9 18.4-10-1.1 1.2-2.7 2.9-4.9 4.9-1.4.7-3.5 1.8-6.5 3.5-2.2 1.9-5.4 4.5-9.6 7.8-1.1.7-3.6 1.7-7.5 3.1-.5.8-3.5 2.4-9 4.9-3.3 1.6-5.1 2.4-5.5 2.2-.3 0-.7-.1-1.3-.4-.6-.3-1.1-.4-1.3-.4-1.9 0-4.8.4-8.6 1.1-3.8.7-6.7 1.1-8.6.9 1.1 0 0-.1-3.2-.4-3.2-.3-5-.4-5.4-.4.3.3 1.3.9 3.1 1.8-3.4-.1-5.4-.3-5.9-.6-2.3-1.1-6.3-3.9-11.8-8.4-1.6-1.6-2.5-2.6-2.7-2.9l-4.3.4c-.4.3-.8.6-1.2 1l-1-.8c-.1.1-.2.4-.2.7s-.2.4-.6.3h-1.4c-.4-.1-.7-.2-1-.2.8 0 2.2-.4 4.1-1.1 1.9-.7 3.4-1.1 4.5-1.1.4.1.6 0 .6-.4 0-.7-.9-1.9-2.5-3.6-1.7-1.7-2.9-2.6-3.6-2.8-.4 0-1.1.3-2 .8-1 .5-1.6.8-2 .8-3.4-.1-8.3.1-14.7.8 0 .1.1.4.4.7.3.3.4.7.4 1.1-1.2-1.5-2.4-2.2-3.7-2.2-.4 0-.6.1-.6.2s.1.3.4.6c-.7-.4-2.3-1-4.9-1.8-.1.1-.3.2-.6.3-.3.1-.5.2-.6.3 2.6 2.2 4.7 3.3 6.3 3.5l4.7.2c.1-.1.2-.3.2-.4 0-.1-.2-.2-.6-.2.9 0 2 .3 3.3 1-.8 0-2 .1-3.6.4-1.6.3-2.8.4-3.6.4-.4 0-1.4-.5-2.9-1.4-1.5-1-2.4-1.4-2.7-1.4-.4 0-.6.1-.5.2.1.1-.1.2-.5.2-2.3-.1-6.5-2.7-12.4-7.5-.7-1.1-1.9-3.1-3.7-5.9-3.5-5.6-5.6-11.8-6.3-18.8-.4-3.9-.6-6.8-.6-8.6 0-.1.2-.5.5-1s.4-1 .3-1.2c-.1-5.3 1.7-11.8 5.6-19.5s8.1-12.5 12.8-14.6c.8-.1 1.8-.4 2.9-.8 3.4-2.3 5.3-3.3 5.7-3.1-1.2.4-2.5 1.3-3.9 2.7 1.1.8 2.2 1.2 3.5 1.2.8 0 1.7-.6 2.5-1.7.9-1.2 1.3-2.1 1.1-3 .5 0 .9.1 1 .4.4 0 .7-.4.8-1.2 0 .3.3.4 1 .4.1 0 1.6-.8 4.5-2.3 2.9-1.6 4.6-2.5 5.3-2.8 1.6-.7 5.6-1.4 11.8-2.2 3.9-.5 5.7-.8 5.3-.8.4 0 1 .3 1.8.8s1.4.9 1.6 1c.4 0 1-.1 1.8-.4.8-.3 1.4-.4 1.6-.4.3 0 .7.1 1.3.3.6.2 1.1.3 1.3.3.4 0 .8-.1 1.3-.4.5-.3.8-.4 1.1-.4.3 0 .7.3 1.4.8s1.2.8 1.4.8c2.2.5 3.7.8 4.7.8.3 0 .6-.1.9-.4.3-.3.6-.4.9-.4.4 0 .8.1 1.2.2l.6.4c-.7 0-1.2.2-1.4.6l-.2.4c1.5.1 3.9.6 7.3 1.4l-.2 4.5-.8.8c-.4.4-.6.8-.6 1.2.1 0 .4.2.8.6-.4-.1-.9-.4-1.4-.8l-3.3 3.3.2 1.4c.4-.1 1-.5 1.8-1.2-.1 1.1.1 1.6.6 1.6.4.1.7.1 1 0h.6c-.3.4-.9 2-1.8 4.7 0 .4-1.1 2-3.3 4.9v1.8c1.2-2 3.4-4.9 6.5-8.6-2 5.8-3.9 10.2-5.6 13.4-.1.1-.1.3.2.6.3-.1.6-.4 1-.8 1.9-4.5 5.4-11 10.4-19.6h.8c-.1.4-.4 1.1-.8 2l.4.8 1.4-1.2c-.8 1.4-1.8 3.4-3.1 6.1.1.3.3.4.6.4 0-.8-.1-1.2-.4-1.2-.4 0-1.4 1.2-2.9 3.5l-6.3 11.6c.1.3.1.7 0 1.2-.1.3-.3.7-.4 1.4l-.8-.8c-2.6 3-4.2 7.3-4.7 13.1l-1.2 12c-.3.8-.4 1.5-.4 2 0 .8.1 1.5.4 2 .5-.4.8-1.1.8-2 .5-1.8 1.2-4.3 1.8-7.5.3-1.9.7-4.8 1.2-8.8.1-.4 1.2-2.4 3.1-5.9.4-.8 1.3-2.9 2.7-6.3 1-2.3 2.2-4.2 3.9-5.7l.6 1.8c-2.3 3.5-4.9 11.5-7.8 23.9l.8.8c1.1-6.4 3.5-12 7.3-16.7-1.1 1.9-2.4 4.8-3.9 8.8-1.5 5.6-2.2 10.1-2.2 13.5-.1.5.1.8.6.8-.7 0 1.8-1.1 7.5-3.3v1.8c.3.1.6.2 1 .2 1.4 0 5.2-1.7 11.4-5.1l-9.6 6.3c.4.3.7.4 1 .4.5 0 1.1-.1 1.6-.4-.3.3-.7.8-1.4 1.6l-1.4-1.4-6.9 5.3c.5.1 1.4.5 2.7 1-.5 0-2.6.7-6.1 2 0 .8-.2 1.9-.5 3.3s-.5 2.4-.5 3.3c-.1 1.4.6 2.6 2.2 3.8s3.2 1.8 4.7 1.9c.4 0 1-.1 1.7-.2s1.3-.2 1.7-.2l16.3-6.7c-.3.3-1.7 1-4.3 2-1.8.8-2.9 1.9-3.5 3.3.1 0 .3.1.5.2s.4.2.5.2l17.1-9c1 .3 2.4.5 4.5.6-.7-.1.6-.7 3.9-1.6l.6-.2c1.4-.3 3.6-1 6.7-2.2 6.3-3.9 9.7-6 10.2-6.3.4 0 .6.1.5.2s0 .2.3.2c.7.1 1.4-.1 2-.6-1 .8-1.6 1.8-2 3.1-1.9.4-4.1 1.6-6.7 3.5-.1.1-.1.3.2.6 1.6-.6 5.4-2.4 11.8-5.4zm-149.9 2.7c-1-3-1.4-4.6-1.4-4.9 0-1.2.5-1.8 1.6-1.6l-.2 6.5zm-.6-7.2h-.6v-3.1h.6v3.1zm17.3 28c-1.5-.7-3.8-2.2-6.9-4.7l.2-.6-.8.6-2.9-3.1c2.6 1.5 6.1 4.1 10.4 7.8zm12.9 7.5c-.5 1.8-1.8 2.6-3.7 2.4-1.5 0-4-1.2-7.5-3.7-2.6-1.8-4.5-3.1-5.7-4.1 2.9 1.6 7.2 3.9 13.1 6.7.1-.1.3-.2.5-.3s.4-.2.5-.3c-.7-.9-1.9-2-3.7-3.3 3.4 1.8 5.2 2.7 5.5 2.9.4.1.7 0 1-.3zm39.8-84.2h-3.5l.8 1c-.1.1-.5.2-1 .2-.5-.5-1-.9-1.2-1 .3.4.4.7.4 1s-.2.5-.6.6c-2.4-.5-3.5-.8-3.1-.8-1.4 0-3 .6-4.9 1.8-6.5 4.2-10.7 7.8-12.4 10.6.4 0 1 .3 1.6 1 1.1-1.8 3.3-3.5 6.5-5.3 3.3-1.8 6-2.6 8.2-2.4.5 0 .9.1 1 .2-4.8 1.2-9.6 3.7-14.5 7.3-.7.3-1.5.5-2.4.8-1.8 2.6-4.3 6.1-7.5 10.6-.1-.9 1-3.5 3.5-7.5-3.5 5.2-5.9 8.7-7.1 10.6-2.3 3.8-3.5 6.8-3.5 9-2 5.3-3.1 9.4-3.3 12.2 0 1.6.5 3.7 1.4 6.3 1.4 3.7 3.2 5.5 5.5 5.5 1.1.1 3.1-.4 6.1-1.6 3-1.2 5-1.8 6.1-1.8.4 0 .6.1.5.2s.1.3.5.4c.4 0 .9-.2 1.6-.7.7-.5 1.2-.7 1.4-.7.5-1.1.9-3.2 1-6.3 1.1-16.9 4.7-30.3 10.8-40.4-.8 0-1.4.3-1.8.8v-1.6c0 .3-.3.7-.8 1.2l.2-2.9c1.2 0 2-.1 2.4-.4.4-.8.9-2 1.4-3.5h1.6c.1.3.2.6.2 1l-.4.8 5.3-6.2zm-33.7 82.8c-.4.4-.6.8-.6 1 0 .1.1.3.2.4-2.6-.1-4.6-.4-6.1-.8.1 0 .3-.2.5-.5s.4-.5.5-.5h1.8c.4.1 1.7.3 3.7.4zm-3.3-42.7l-.4-.4-1.2 1.6.6.4 1-1.6zm7.2 42.3c-.4 0-1.8-.4-4.3-1.2 1 .1 2.2.4 3.7.8.2.2.4.4.6.4zm5.1-3.9h-4.3v-.6h4.3v.6zm4.9 7.8c-.8.3-1.9.7-3.3 1.2-.3-.1-.7-.5-1.4-1.2.1-1.6 1.7-2.4 4.7-2.2-.4 0-1.2.3-2.4 1l.8 1c.9-.1 1.4 0 1.6.2zm-2.7-7.8l-.2.6-1.4-.6v-.6l1.6.6zm4.1-39.4l-.4 3.5h-.8l.4-3.5h.8zm16.3-41.4l-.2-.6-1 .6-.2.6 1.4-.6zm8-2.2c-1.5-.4-2.8-.6-3.9-.6-1.4-.1-3.1.2-5.3 1 1.1.8 1.6 1.5 1.6 2 .7 0 1.4.1 2 .4 1.2.8 1.9 1.2 2 1.2.4-.8.9-1.7 1.5-2.7.7-.9 1.4-1.3 2.1-1.3zm-2.7 6.3c.3 0 .4.1.4.2-.1.3-.4.7-.8 1.2l-1.6-1c.1.1.5.1 1-.1s.9-.3 1-.3zm-.8 67.9v-1.6h-.8v1.6h.8zm.2-2.6v-1.6h-.8v1.6h.8zm9.4-70.6c1.1.1.4 0-2-.3s-3.8-.5-4.1-.5c-.4 1.4-1.2 2.8-2.4 4.3.7 0 1.1.1 1.2.4-.5.5-.8.9-.8 1 .1 0 .3-.1.6-.2s.5-.2.8-.2c.4 0 .6.2.6.5s.1.5.2.5c-.3.3-.4.8-.4 1.6.5-.3 2.1-.7 4.7-1.4-.3 0-.5-.1-.6-.4.6-1.1 1.4-2.9 2.2-5.3zm-7.1 67.9l-.6-1.2-.6.2.6 1h.6zm5.1-87.3l-.3 5.5c0 2.3-1 3.7-3.1 4.3-1.2-1.4-1.8-3.5-1.8-6.5.1-3 1.2-4.4 3.1-4.3.6 0 1.2.3 2.1 1zm-2.1 21.2l-1 1-.4-.6 1.2-.8.2.4zm3.3 47.6h-.8l-1 6.1h.6l1.2-6.1zm4.1-42.1c-.7 0-1.4-.3-2.2-1 .1 0 .4-.1.8-.3.4-.2.7-.3 1-.3 0 .4.1.7.2 1l.2.6zm2.8 20.6l-3.5 5.1-.6-.4 3.5-5.1.6.4zm-2 14.7l-1.2 4.3-.8-.2 1.4-4.1h.6zm18.9-50.2c0 1-1.9 3.2-5.7 6.7-1.8-.5-4.2-1.6-7.1-3.1l-1.4-2.7c.3-.4.5-1.2.6-2.4.1-1.5-.1-2.2-.8-2.2-.3 0-.6.1-.9.2-.3.1-.6.1-.9 0-1.4 0-2.7-1.4-4.1-4.1 1.9-2.2 3.9-3.2 5.9-3.1.3 0 1 .4 2 1.1 1.1.8 1.8 1.1 2.2 1.1.5.1 1.3.1 2.2 0 1-.1 1.7-.2 2.2-.2 1.1.1 2.3 1.3 3.7 3.5 1.5 2.3 2.1 4 2.1 5.2zm-18.1 14.3h-1v-.6h1v.6zm6.1 8.8l-2.4 3.3-.6-.4 2.4-3.3.6.4zm-.4-2.9l-1.2 2-.6-.2 1.2-2 .6.2zm2.2-.4l-1.2.8-.4-.4 1.2-1 .4.6zm3.5 44.5c-.3-.3-.5-.6-.6-1-.3.1-1 .8-2 2 .3.3.7.7 1.2 1.4 0-.5.5-1.3 1.4-2.4zm2.9.8l-1.8 1.6 1.6.2c0-1 0-1.6.2-1.8zm42.8-28.5c0 .3-.1.6-.2 1.1l-.2.9h-2c-.3-.4-.8-1.2-1.6-2.4 0 .3-.3.6-.8 1 .7-.3 1-.9 1-1.8 0-.5-.1-1.4-.2-2.5-.1-1.2-.2-2-.2-2.5 0-.7.1-1.3.2-1.8l2 .2c.3 1 .5 2.9.8 5.7.8.6 1.2 1.4 1.2 2.1zm47.7 20c0 5-1.2 9.2-3.5 12.4-.8 1.2-1.9 3.1-3.3 5.7-.8 1.1-4.1 4-10 8.8.1-.4.5-1 1-1.8 0-.1.1-.2.2-.2h-1c1.1 0-.3.6-4.3 1.8 1-.5 2.3-1.5 4.1-2.9.1-.3.1-.5-.2-.8l-26 13.5c-.1-.5-.4-.8-.8-.8-1.9 0-7.3 2-16.3 5.9-.4.1-1.2.8-2.4 2 0-1 .1-1.4.4-1.4-.8.8-1.4 2-1.6 3.5-.3-.1-.8-.5-1.6-1.2-4.5 1.8-6.6 5-6.3 9.6-.3 0-.6-.2-1.1-.5s-.9-.5-1.1-.5c-.3.4-1.1 2.2-2.4 5.5h-1c-.1-1.4-.1-3 0-4.9-.3-.5-.6-1-1-1.2-.3.3-.4.7-.4 1.4 0-.7-.2-1.2-.6-1.4-.3.3-1 1.3-2.2 3.1.1-2.3.1-3.8 0-4.5-.4 0-.7.2-.8.6-.3 1.2-1 3-2 5.3-.1-.1-.3-1.2-.6-3.3-.4-1.5-.2-2.8.6-3.9-1-1.1-1.9-1.6-2.9-1.6-.5 0-1.2.1-1.8.2-.7.1-1.2.2-1.6.2v-3.1c1.5-.3 3.5-.8 5.9-1.6.7-1.9 2.3-6.3 4.9-13.1 1.5-3.9 3.3-9 5.3-15.1v-.6c-.5.4-1 1.1-1.4 2 5.8-19.2 11.2-40.5 16.1-64.1 3.1-15.8 4.9-27.7 5.3-35.9v-4.5s-.1-3.3-.2-4.3v-3.7c.3 1 .8 2.2 1.6 3.9.8-1.4 1.2-2.9 1.2-4.5 0-1.2-.2-2.4-.6-3.7.1-.7.8-2.2 2-4.5-.4 4.2-.6 7.1-.6 8.8.4-.8 1.2-2.3 2.4-4.5.7-.8 1.8-1.9 3.3-3.3.3.3.7 1.1 1.4 2.4.3-.1.5-.6.6-1.4v1.4c1.2 0 2.1.1 2.7.4.3-.3.5-.7.7-1.3s.4-1 .5-1.1c-.1.7-.1 2 0 4.1 1-.4 1.7-1.2 2.2-2.2l-1.2-1.4c.8.5 2 1.4 3.7 2.4.7-1.4 1-2.8 1-4.3.1.8.4 2 .8 3.5.1-.8.5-1.6 1-2.4.3 1.5.9 3.7 1.8 6.7h.2c.1-2 .6-4.6 1.4-7.8.7-1.4 1.7-2 3.1-2 .8 0 1.7 1.2 2.7 3.7-1.8 0-2.9.8-3.3 2.4-.4 1.2-.4 2.7 0 4.5.7 4.4 1 8.6 1 12.9 0 6.9-1 13.5-3.1 19.8 0-.5-.3-1.2-.8-1.8-.4 2-1.2 5.1-2.2 9.2-.3-.3-.5-.4-.8-.4-.5 1.1-1.2 2.7-1.8 4.9.1.7.2 1.8.2 3.3-.5.7-1.3 1.8-2.2 3.5v-2c-.1-.1-.3 0-.4.4-.7 2.4-2.1 7.2-4.3 14.3 1.4-.1 4.2-.1 8.6 0 4.9.3 8.8.9 11.6 1.8 5.8 2.2 10.7 6.1 14.7 11.8 3.6 5.6 5.5 11.6 5.5 17.9zm-57.5-98.8c-.3.4-.5 1.6-.8 3.5-.4-.8-1-2.2-1.6-4.1.5.5.9.8 1 .8h1c.1-.1.3-.2.4-.2zm-.8 120.2h-.6l-1 2.4.6.2 1-2.6zm1.8-5.7c-.8.7-1.4 2.2-1.8 4.5-.3 0-.5.1-.6.2.1.3.3.6.6 1 1.2-2.9 1.8-4.8 1.8-5.7zm30.4-10.4c0-1.1-.4-2.7-1.2-4.7l-1 3.3c0-1.8-.6-4.1-1.8-6.9 0 1.4-.1 2.2-.4 2.7 0-.7-.8-1.8-2.4-3.3h1.6c-.7-2.2-4.4-3.3-11-3.3-2.6 0-4.1.5-4.7 1.6 1 0 2.4.3 4.3 1l-4.5 1c-1.4 4.2-3.4 10.2-6.1 18 0-.3.1-.4.2-.4.1.3.2.7.2 1.2 0 .7-.3 1.8-.9 3.3-.6 1.5-.9 2.4-.9 2.7.7-.8 1.4-1.9 2-3.3.3.3.3.5.2.6 0-.4-.3-.1-.8.8-.7 1.2-1.3 2-1.8 2.4l-.4.4c-.1 1.5-.4 2.7-.8 3.7 0-.7.4-1 1.2-1 .3 1.1-.3 2.6-1.8 4.5h1.6c-.7 1-1.5 2.2-2.4 3.9 2-.7 4.2-2 6.5-4.1-1.5 1.1-2.6 1.5-3.3 1.2.8-.7 1.6-1.3 2.4-1.8-1.5.5-2.4.7-2.9.4 4.4-2.6 10.7-6.2 19-10.8l-4.3 1.2c2.6-1.9 5.2-3.7 7.8-5.5 3.1-2.3 4.9-4.6 5.3-6.9.7-2 1.1-2.6 1.1-1.9zm-24-8c-.4.1-.9.4-1.4.8-1.2 3.7-2.9 9.1-4.9 16.3l1 .6 5.3-17.7zm-4.9 30.8l-.8 1-.6-.4 1.2-1.2.2.6zm2.2-129.7h-.6v-2h.6v2zm2.9 113.6l-1.2 2.2-.8-.2 1.4-2.2.6.2zm1.2-18.2c-1.4.7-2 1.2-2 1.6h1.6c0-.6.1-1.2.4-1.6zm-.8 2.7v-.8h-1.2v.8h1.2zm2.2-98.5h-.8l-.4-1.8h.6l.6 1.8zm2.3 100.7c-.8 0-1.4.5-1.8 1.4.3-1.4.7-2.4 1.2-3.1-.1.8.2 1.3.6 1.7zm2.2-112.8l-.4.6-1-1 .4-.4 1 .8zm-.4 83.2v-1.2h-.8v1.2h.8zm.4-1.4v-1.4h-.8v1.4h.8zm.4-1.6v-2h-.6v2h.6zm.8 1.6l-.6-.2-.6 1.4.6.2.6-1.4zm4.7-7.1l-.6 2.2h-.6l.4-2.2h.8zm.4-.8h-.8v-1.4h.8v1.4zm4.9-10.8h-.6v-1.6h.6v1.6zm8.2-28.4h-1v-2.9h1v2.9zm.2-14.9h-.6v-1.2h.6v1.2zm0 10.8h-.6v-10.4h.6v10.4zm4.9 111.2l-2 1v-.6l1.8-1 .2.6zm11.4-29.2c0-2.4-1.1-5.4-3.3-9 0 .7-.1 1.2-.4 1.4-.1-1.2-1.2-2.8-3.1-4.6-1.9-1.8-3.5-3-4.7-3.4 7.6 6.1 11.2 12.9 10.6 20.4.6-1.6.9-3.3.9-4.8zm-6.5-33.2l.6.6h1.4c-.5 0-.3-.3.6-.8 1.2.4 1.5 1.2.8 2.2-.7 1.5-.7 2.7-.2 3.7.7.4 1.5 1.2 2.4 2.2l3.1.6c1.4 0 1.8-.7 1.2-2 .4-.3 1-1.7 1.8-4.3.5.5.9.8 1 .8 1.8 0 2.7-.9 2.7-2.7 0-2.4-1.2-3.7-3.5-3.7-.1 0-.3.1-.5.3-.2.2-.4.3-.5.3s-.5-.2-1.2-.7-1.1-.7-1.2-.7c-.7 0-1.8.5-3.5 1.4-.3.3-.9.7-1.8 1.4-.1 0-.2-.1-.2-.2 0-1.4-.5-2-1.6-2-.4 0-.9.4-1.4 1.2v2.4zm4.9 51l-.4-.4-3.9 4.1.2.4 4.1-4.1zm-1.5-48.2l.6-.2v.2l-.4.2-.2-.2zm106.5 10c0 2.4-1 6.1-3.1 10.8-.8 2.3-2 6-3.5 11-1.6 1.8-3.9 4.8-6.9 9l1-2c.8-1.5 1.1-2.4.8-2.7-1.1 1.5-2.6 3.9-4.5 7.3-.8.7-2 2-3.7 3.9-.8 1.5-2 3.7-3.5 6.5-3.5 5-7.5 9.1-11.8 12.2-7.5 5.6-12.4 8.4-14.9 8.4-.4 0-1-.1-1.8-.4-.8-.3-1.4-.4-1.6-.4-1.1 0-2.6.2-4.6.7s-3.5.7-4.6.7c-4.1 0-8.4-2.2-13.1-6.5l-4.1-.8c-.1.4-.2 1-.2 1.6 0 .7.1 1.5.2 2.4-1.4-1.8-3.2-4.1-5.5-6.9-.1-.7-.5-1.9-1-3.7l-1.2-.8c-.3-1.8-.7-4.5-1.2-8.2.7-.8 1-1.4 1-1.8-1.4-3.1-2.2-5.8-2.7-8 .4-.4.4-4.1 0-11 1.2-9.9 3.7-19.7 7.5-29.4 1.5-4.2 4.4-8.6 8.8-13.3 4.6-5.4 8.8-8.6 12.4-9.4.5 0 3.1-1.1 7.8-3.3-9.4 3.8-16.9 9.7-22.4 17.7-.1.1 0 .4.4.8l1-.8c-1.8 1.9-3.2 4.2-4.3 6.9l.8.4c4.2-5.8 11.1-12 20.6-18.6-.4 0-1.6.3-3.5 1 8.7-5.2 15.4-7.7 20.2-7.5-.1 0-.4.2-.8.6.4.3.9.4 1.4.4.7 0 1.7-.1 3.1-.4 1.4-.3 2.4-.4 3.1-.4.4 0 1.3.5 2.8 1.4 1.4 1 2.3 1.4 2.6 1.4.5 0 .8-.1.7-.3-.1-.2 0-.3.3-.3.4.1 1 .6 1.7 1.3s2.8 3 6 6.6c.5 1.2 1.9 2.9 4.1 4.9l.8-.8c-1-.4-1.3-1-1.1-1.6.2-.7 0-1.2-.5-1.6 2.2 0 3.8.5 4.9 1.4.8-1 1.2-1.6 1.2-1.8.5 1.5 1.6 3.1 3.3 4.7.9 1.1 2.4 4.6 4.3 10.4 0 .5.1 1.4.2 2.7.3.5.9 1.1 1.8 1.6.9 1.6 1.3 2.8 1.3 4zm-69.3-21.6l-2.7 2.9-.2-.6 2.4-2.4.5.1zm3.2-2l-2.7 2-.2-.8 2.4-1.8.5.6zm32.5 19.5c-1.4-2-2.2-3.6-2.4-4.7-1.8 1.2-4.6 3.5-8.6 6.9.1-.8.7-1.8 1.6-3.1-6.3 7.8-10.8 16.4-13.7 25.9-.5-.8-.9-1.2-1-1.2-1 0-1.9 1.6-2.8 4.9-.9 3.3-1.3 5.6-1.3 6.9 0 2.7.6 6.3 1.8 10.6 5.4-1.5 10.7-5.5 15.7-12s7.5-12.4 7.3-17.7c.5.3.9-.1 1.2-1.2l.6-1.4c-1.1-.4-2.2-.9-3.5-1.4.1-.7.2-1.2.2-1.6 0-1.4-2.2-2.6-6.5-3.7l5.1-.2c.7.3 1.6.9 2.9 1.8.1-.4.3-.9.6-1.4-.8 0-1.3-.1-1.4-.2.7-.7 1-1.2.8-1.6-.5-.4-1.3-1-2.2-1.6 2-.7 3.4-1.6 4.1-2.7-.4-.5-1-1.2-1.6-1.8.4 0 .9.1 1.6.3.7.1 1.2.2 1.5.2zm-18.2-29.7h-1.2v-.8h1.2v.8zm8.8.2c-1.5.4-4.6 1.4-9.2 3.1h1.8c.9.1 3.3-1 7.4-3.1zm-6.1-1.3h-1.2v-.8h1.2v.8zm8.9 43.9h-1v-.8h1v.8zm36.4-33.5h-.8v-1.8h.8v1.8zm87.9 96.9c-.4-.1-1.2-.2-2.2-.1-1.1.1-1.8.1-2.2.1-.3 0-1.1-1.1-2.3-3.3-1.3-2.2-2-3.3-2.1-3.5-1 .5-1.5 1.1-1.6 1.6-.1.7.4 1.8 1.6 3.5-.3.9-.3 1.9 0 2.9-.3 1.5-1.1 2.2-2.4 2.2-.4 0-.7-.1-.9-.2-.2-.1-.4-.2-.5-.2-.3.3-.5.6-.6 1 0 .3.1.5.2.6l-1-1c-1 0-1.5.4-1.6 1.2l-.2 1.8c-.4 0-1-.1-1.6-.4-.7-.3-1.3-.4-1.8-.4.4.5.9 1.4 1.4 2.4l-.2 1.6h-1.6c-.7-1.8-1.8-4.4-3.3-8-2.3.7-3.8 1.1-4.5 1.2-1.9 0-2.8-3.5-2.7-10.4 0-1 .1-4.5.2-10.6-.1.3-.4.7-.8 1.2-1.4.5-3.1 1.4-5.3 2.4-5.7 2-9.9 3.1-12.6 3.3l-5.3.2c-1.2 0-3.3-.7-6.1-2-.5-.3-1.2-.7-2-1.2-6.7-2.9-11.2-8.8-13.7-17.7-1.9-7.5-2.2-15.6-.8-24.5.1-.8.3-2.1.5-3.9s.4-3.2.5-4.3c.3-1.6 2.9-9.3 8-23.1 1.9-5 4-8.4 6.3-10.2.1 1.1.4 2.5.8 4.3l3.3-4.1c1.6-2.3 2.9-3.5 3.9-3.5.5 0 1.2.1 1.8.4.1.3.3.6.4 1l-.2 1.4c.1.5.4 1.4.8 2.7.8 2 2.1 3 3.9 2.9-1.1.1.3-.5 4.3-1.8.1.5.1 1.5 0 2.9-.3 1.5-.7 3.3-1.4 5.3-.1.4-.1.9 0 1.4-.7 3.3-1.8 7.7-3.3 13.3-.4 1.4-.5 2.6-.4 3.7l.2.6c-1.4 7.8-1.9 13.6-1.6 17.5.4 6.3 2.5 12.3 6.3 18.2l-.2.4c.8.1 1.8.5 2.9 1.2.1.3.3.4.6.4.5 0 3.4-1.6 8.6-4.7.4 0 .7.2 1 .6-.7 1.1-1.3 1.8-1.8 2 .1.1.4.3.8.4 0 .8.7 1.6 2.2 2.4.5-1.8 1.1-4.4 1.6-8-.3-.7-.4-1.1-.4-1.2l.8-1c1-9.2 4.4-22.1 10.2-38.6 1.8-4.9 4.6-11.8 8.4-20.6l1 1c-.7 1.6-1.4 3.6-2.2 5.9l-.6 3.1c-.1.3.1.4.6.4 1.1 0 2.3-1.2 3.6-3.7 1.3-2.4 2-3.7 2.1-3.7.5 0 1 .1 1.2.2l.2.2 1.4-3.7c-.1 1-.1 2 0 3.3.8-.4 1.6-1.8 2.4-4.1l2-.8c1.4 1.4 2 2.1 1.8 2.2.5 0 .8-.1.7-.2-.1-.1 0-.2.3-.2.4 0 .8.5 1.2 1.4.4 1 .7 1.5 1 1.6-.1.4-.7 1.3-1.6 2.7-.4.8-.4 1.7 0 2.7-.1.1-.1.3.2.6.8-.3 2-1.1 3.5-2.4l-.2.6c.1.1.3.5.6 1-.4 1.1-.7 2.3-1 3.7-.3 1.9-.5 4.1-.6 6.5l.4.2c.1-.5.5-1 1-1.4-.3 1-2.5 9.7-6.7 26.1-1.9 7.8-3.1 14.6-3.5 20.6-.1 1.5-.7 4.6-1.6 9.4-.1.4 0 .9.4 1.4l-.2 1.4c-.3.1-.6.2-1 .2s-.7-.1-1-.4l-1.4.2c-2.7 13-1.4 20.3 3.7 22.3zm-39-83.8l-2 5.7c-1.5 4.8-2.4 7.7-2.7 8.8-.1 1-.3 2.4-.4 4.3-.5 2.2-1.4 3.7-2.4 4.7-.7-4.1-.8-7.4-.4-10 .3-1.2.8-3.1 1.6-5.7s1.3-4.4 1.4-5.3c.5-1.6 1.5-3.9 2.9-6.7.1.3.4.6.8 1 .5-.5 1.2-.8 1.8-.8l-.6 4zm59.2 50.4c-.3 1.5-.9 2.2-1.8 2-.3 0-1.3-.9-3.1-2.9.1-.8-.4-1.8-1.6-2.9-.1-.8-.2-1.3-.2-1.4.4 0 .8.3 1.2.8l1.6-1.2c.7-.5 1.2-.8 1.4-.8 1.5.3 2.3 2.4 2.5 6.4zm-2.7-101.6c0 .3-.1.6-.3 1-.2.4-.3.7-.3.8-.7-.1-1.4-.1-2 0-.5-.5-.7-.9-.6-1 0-.3.2-.8.6-1.5s.6-1.3.6-1.5c.5 0 1.4.1 2.4.4l-.4 1.8zm103.9 34.5l-3.9 1.8c-.1.5.3 1.2 1.4 1.8 0 .3-.3.7-.8 1.2-2.4.3-6 .5-10.6.6-.8 0-1.6.3-2.2.8 1.1.3 2.2.5 3.5.8 1.2.1 2.4.2 3.7.2-1.5.3-3.7.6-6.7 1-1.4.5-3.3 1.1-5.9 1.6.1.3.3.3.6.2 2.3-.3 3.6-.4 3.9-.4.9 0 4.2-.1 9.8-.4l.8.4-1.4 1-25.7 2.9c-9.4 1-17.9 1.6-25.5 1.8l-.4.4c-.1.1-1.6 4.1-4.3 12-1.8 5.2-3 9.7-3.7 13.7-2 13.3-1.2 24 2.7 32 7.1-4.2 10.4-6.3 10-6.3.5 0 1.4.7 2.7 2.1 1.2 1.4 2.1 2.2 2.7 2.3.3 0 .4-.1.4-.2s.1-.1.4 0 .7.5 1.2 1.2c.8-.7 5.2-3 13.1-6.9-7.9 8.7-17.1 15-27.7 19-.5.3-.8.5-.8.8l.4.6c2.7-.1 9.5-3.4 20.4-9.8l-10.6 8c-6.8 4.9-11.3 7.1-13.5 6.7-.4 0-1.5-.8-3.4-2.4-1.8-1.6-2.8-2.7-3-3.1-1.4.4-2.1 1.2-2.2 2.2l-2.4-.4c-1.4-.3-4.5-4.1-9.4-11.6-1.9-3-2.9-8.9-2.9-17.7.1-6.4.7-12.6 1.6-18.8.3-1.8 2-9.2 5.3-22.4-3.4.5-5.9.7-7.5.4-1-.1-2.5-.7-4.7-1.6-2.2-1-3.9-1.5-5.1-1.6l-5.5-.8h-.8c0-.4.2-.9.6-1.4 1.2-.4 2.3-.5 3.3-.4.5.1 1.4.3 2.7.6 1.2.3 2.1.5 2.7.6l.6-.4c-.3-.4-1.2-1-2.7-1.8.7 0 1.8-.1 3.5-.2-3.9-3.9-6.3-6-6.9-6.1-.4 0-1.7.1-3.9.4.1-.4.5-.5 1-.4.1-.1 0-.4-.4-.8l3.3-3.3c2.9 0 4.4-.5 4.5-1.4.3-1.2.1-1.8-.6-1.8-1.1-.1-2-.6-2.7-1.4 1.2-.1 3.1-.5 5.5-1l-.6-.8c.8-.4 2.1-1.1 3.9-2 .3-.4.2-.6-.2-.6.8.1 1.3.4 1.4.8 1-.3 1.6-1.1 1.8-2.4.9-.4 2.3-.7 4.1-1 2.6-.3 6.5-.7 11.6-1.4.5-1.1 2.2-5.8 4.9-14.3l.4-2.9c.1-.5.7-1.9 1.8-4.1l.2-2c.4-1.1 1.2-2.8 2.2-5.1.1-.5.4-1.4.8-2.4 1.1-1.2 1.8-2.4 2.2-3.5 1.6 1.1 3.5 2.4 5.5 3.9.8-.7 2-1.6 3.5-2.9 0 .5.5 2.1 1.6 4.7.5-1.2 1.4-3.3 2.7-6.1l1 .4c0 1.1.5 2.8 1.4 5.1.3 1.9.4 3.9.4 6.1 0 3.4.1 5 .4 4.7l-.4 1.8h-.6c-.8 3.4-2.2 8.5-4.1 15.3.1.3.3.6.6 1 .3 0 .6-.2 1-.6-.1.5.1.9.6 1 1 .1 2.5 0 4.7-.4 1.9.1 5 .2 9.2.2 5.3 0 8.4-.1 9.2-.2-.8 1.5-1.8 2.2-3.1 2l-3.1-.4-.6.2c.4.5 1 .9 1.8 1 .5 0 1.4-.1 2.7-.4 1.2-.3 2.1-.3 2.7-.2.3 0 .3.1.2.4-.1.3 0 .4.4.4-1-.1 1.7-.5 8-1.2h9.6c-.4 0-1.3.3-2.8.9-1.4.6-2.3.9-2.8.7-3-.4-5.6-.2-8 .6.4.5.8.8 1.2.8 6.4 1.1 9 1.4 7.8.8.4.5 1.5 2 3.3 4.3 0 .4.1.8.2 1.2 1.1.5 1.4.8 1 .6.9.1 2.9.1 5.7 0l.4.4-.3 1.3zm-103.3 10l-2.9-.4c.4-.1.8-.3 1.2-.6.6.6 1.2 1 1.7 1zm37.8-58c-.8.5-1.3.8-1.4.8l-2.4-.4c-.1-.1-.3-.4-.5-.8s-.4-.7-.5-.8c-.8.1-1.5.6-2 1.5s-.7 1.6-.4 2.1c1 3.1.7 5.3-.6 6.5-1.2.8-3 2-5.3 3.5-4.2.3-6.2.5-5.9.6-.8-.1-1.4-.6-1.8-1.5s-.4-1.7 0-2.5c-.4-.5-1-1.4-1.6-2.7-.1-1.4-.3-3.3-.6-5.7-1 .8-1.7 1.2-2.2 1-3.4-.5-4.8-2.3-4.3-5.3.3-1.5 1.2-2.9 2.9-4.3 1.6-1.4 3.2-1.9 4.7-1.6.3 0 .6.1 1 .4s.7.5 1 .6c.3 0 1.2-.3 2.7-.9s2.4-.8 2.7-.7c1.1.1 3.1 1.3 5.9 3.5.5.8 1.6 2 3.1 3.7.4-.8 1.1-1.8 2-2.9.8-.7 1.5-1 2-.8 1 .1 1.8 1 2.4 2.7l-.9 4zm-19.2 18.6l-3.7-1.4.2-.4 3.5 1.2v.6zm3.1 9.2c-.3 1.4-1 1.9-2.2 1.6-2.2-.3-3.6-1.4-4.3-3.3.7-1.5 1.5-2.2 2.4-2 3 .4 4.3 1.6 4.1 3.7zm8.3-23.5l-.4-.6-.4.2.4.6.4-.2zm6.8 4.3l-7.5 22.2 6.1-24.5c.2.2.7.9 1.4 2.3zm4.2 94.7c-.7 0-1.2-.3-1.4-1-.4-1.5-.5-3.1-.2-4.7-.1 1.1 1.1-3.7 3.7-14.3-.4 1.9-.7 5.1-.9 9.7-.2 4.5-.6 7.9-1.2 10.3zm15.5-74.1l-.8 3.3h-.8l1-3.5.6.2zm2.3-24.9h-.6l.2-.8h.6l-.2.8zm12.4.8c-.1 1.4-1.2 2.5-3.3 3.5-.4-.5-.6-1-.6-1.2.1-.5.6-1.3 1.5-2.2.9-1 1.6-1.5 2.1-1.6.4.3.5.9.3 1.5zm25.5.2c-1.2.8-2.2 1.2-2.9 1l-.4-.4.2-1.2c.3-.3 1.2-.7 2.9-1.4l.6.4-.4 1.6z" opacity=".05" fill="#6E7171"/></svg>