<svg xmlns="http://www.w3.org/2000/svg" width="302.2" height="208" viewBox="0 0 302.2 208"><path d="M71.8 90.6c0 4-.9 7.2-2.7 9.8-.6 1-1.5 2.5-2.6 4.5-.6.9-3.3 3.2-7.9 6.9.1-.3.4-.8.8-1.4 0-.1.1-.2.2-.2h-.8c.9 0-.3.5-3.4 1.4.7-.4 1.8-1.2 3.2-2.3.1-.2.1-.4-.2-.6l-20.6 10.6c-.1-.4-.3-.6-.6-.6-1.5 0-5.8 1.6-12.9 4.7-.3.1-1 .6-1.9 1.6 0-.8.1-1.1.3-1.1-.6.6-1.1 1.6-1.3 2.7-.2-.1-.6-.4-1.3-1-3.5 1.4-5.2 3.9-5 7.6-.2 0-.5-.1-.9-.4-.4-.3-.7-.4-.9-.4-.2.3-.9 1.8-1.9 4.3h-.8c-.1-1.1-.1-2.4 0-3.9-.2-.4-.5-.8-.8-1-.2.2-.3.6-.3 1.1 0-.5-.2-.9-.5-1.1-.2.2-.8 1-1.8 2.4.1-1.8.1-3 0-3.5-.3 0-.5.2-.6.5-.2 1-.8 2.4-1.6 4.2-.1-.1-.3-1-.5-2.6-.3-1.2-.2-2.2.5-3.1-.8-.9-1.5-1.3-2.3-1.3-.4 0-.9.1-1.4.2-.5.1-1 .2-1.3.2v-2.4c1.2-.2 2.7-.6 4.7-1.3.5-1.5 1.8-4.9 3.9-10.3 1.2-3.1 2.6-7.1 4.2-11.9v-.5c-.4.3-.8.9-1.1 1.6 4.6-15.1 8.9-32 12.7-50.6 2.5-12.4 3.9-21.9 4.2-28.3v-3.5c0-1.5-.1-2.6-.2-3.4v-2.9c.2.8.6 1.8 1.3 3.1.6-1.1 1-2.3 1-3.5 0-1-.2-1.9-.5-2.9.1-.5.6-1.7 1.6-3.5-.3 3.3-.5 5.6-.5 6.9.3-.6 1-1.8 1.9-3.5.5-.6 1.4-1.5 2.6-2.6.2.2.6.9 1.1 1.9.2-.1.4-.5.5-1.1v1.1c1 0 1.7.1 2.1.3.2-.2.4-.6.6-1 .2-.5.3-.8.4-.9-.1.5-.1 1.6 0 3.2.7-.3 1.3-.9 1.8-1.8l-1-1.1c.6.4 1.6 1.1 2.9 1.9.5-1.1.8-2.2.8-3.4.1.6.3 1.6.6 2.7.1-.6.4-1.3.8-1.9.2 1.2.7 3 1.4 5.3h.2c.1-1.6.5-3.6 1.1-6.1.5-1.1 1.3-1.6 2.4-1.6.6 0 1.3 1 2.1 2.9-1.4 0-2.3.6-2.6 1.9-.3 1-.3 2.1 0 3.5.5 3.4.8 6.8.8 10.1 0 5.5-.8 10.7-2.4 15.6 0-.4-.2-.9-.6-1.4-.3 1.6-.9 4-1.8 7.2-.2-.2-.4-.3-.6-.3-.4.9-.9 2.1-1.4 3.9.1.5.2 1.4.2 2.6-.4.5-1 1.4-1.8 2.7v-1.6c-.1-.1-.2 0-.3.3-.5 1.9-1.7 5.7-3.4 11.3 1.1-.1 3.3-.1 6.8 0 3.9.2 6.9.7 9.2 1.4 4.6 1.7 8.5 4.8 11.6 9.3 2.9 4.8 4.5 9.5 4.5 14.4zm-45.4-77.9c-.2.3-.4 1.3-.6 2.8-.3-.6-.8-1.7-1.3-3.2.4.4.7.6.8.6h.8c.1-.1.2-.2.3-.2zm-.6 94.8h-.5l-.8 1.9.5.2.8-2.1zm1.4-4.5c-.6.5-1.1 1.7-1.4 3.5-.2 0-.4.1-.5.2.1.2.3.5.5.8.9-2.2 1.4-3.7 1.4-4.5zm24-8.2c0-.9-.3-2.1-1-3.7l-.8 2.6c0-1.4-.5-3.2-1.4-5.5 0 1.1-.1 1.8-.3 2.1 0-.5-.6-1.4-1.9-2.6h1.2c-.5-1.7-3.4-2.6-8.7-2.6-2 0-3.3.4-3.7 1.3.7 0 1.9.3 3.4.8l-3.5.8c-1.1 3.3-2.7 8.1-4.8 14.2 0-.2.1-.3.2-.3.1.2.2.5.2 1s-.2 1.4-.7 2.6c-.5 1.2-.7 1.9-.7 2.1.5-.6 1.1-1.5 1.6-2.6.2.2.3.4.2.5 0-.3-.2-.1-.6.6-.5 1-1 1.6-1.4 1.9l-.3.3c-.1 1.2-.3 2.1-.6 2.9 0-.5.3-.8 1-.8.2.9-.3 2-1.4 3.5h.8c-.5.8-1.2 1.8-1.9 3.1 1.6-.5 3.3-1.6 5.2-3.2-1.2.9-2 1.2-2.6 1 .6-.5 1.3-1 1.9-1.4-1.2.4-1.9.5-2.3.3 3.4-2 8.4-4.9 15-8.5l-3.4 1c2-1.5 4.1-3 6.1-4.3 2.5-1.8 3.9-3.6 4.2-5.5.7-1.6 1-2.1 1-1.6zm-19-6.3c-.3.1-.7.3-1.1.6-1 2.9-2.3 7.2-3.9 12.9l.8.5 4.2-14zm-3.9 24.4l-.6.8-.5-.3 1-1 .1.5zm1.8-102.4h-.5v-1.6h.5v1.6zm2.3 89.6l-1 1.8-.6-.2 1.1-1.8.5.2zm.9-14.3c-1.1.5-1.6 1-1.6 1.3h1.3c0-.5.1-1 .3-1.3zm-.6 2.1v-.6h-1v.6h1zm1.8-77.8h-.6l-.3-1.4h.4l.5 1.4zm1.7 79.6c-.6 0-1.1.4-1.4 1.1.2-1.1.5-1.9 1-2.4-.1.5.1 1 .4 1.3zm1.8-89.1l-.3.5-.8-.8.3-.3.8.6zm-.3 65.7v-1h-.7v1h.7zm.3-1.1v-1.1h-.6v1.1h.6zm.3-1.3v-1.6h-.5v1.6h.5zm.7 1.3l-.5-.2-.5 1.2.5.2.5-1.2zm3.7-5.6l-.5 1.8h-.5l.3-1.8h.7zm.3-.7h-.6v-1.1h.6v1.1zm3.9-8.5h-.5v-1.3h.5v1.3zm6.4-22.4h-.8v-2.3h.8v2.3zm.2-11.7h-.5v-1h.5v1zm0 8.5h-.5v-8.2h.5v8.2zm3.8 87.7l-1.6.8v-.5l1.4-.8.2.5zm9-23c0-1.9-.9-4.3-2.6-7.1 0 .5-.1.9-.3 1.1-.1-1-.9-2.2-2.4-3.6s-2.7-2.3-3.7-2.7c6 4.8 8.8 10.2 8.4 16.1.4-1.3.6-2.6.6-3.8zm-5.1-26.2l.5.5h1.1c-.4 0-.3-.2.5-.6 1 .3 1.2.9.6 1.8-.5 1.2-.6 2.1-.2 2.9.5.3 1.2.9 1.9 1.8l2.4.5c1.1 0 1.4-.5 1-1.6.3-.2.8-1.3 1.4-3.4.4.4.7.6.8.6 1.4 0 2.1-.7 2.1-2.1 0-1.9-.9-2.9-2.7-2.9-.1 0-.2.1-.4.2-.2.2-.3.2-.4.2-.1 0-.4-.2-1-.6-.5-.4-.9-.6-1-.6-.5 0-1.4.4-2.7 1.1-.2.2-.7.6-1.4 1.1-.1 0-.2-.1-.2-.2 0-1.1-.4-1.6-1.3-1.6-.3 0-.7.3-1.1 1v1.9zm3.8 40.2l-.3-.3-3.1 3.2.2.3 3.2-3.2zm-1.1-38l.5-.2v.2l-.3.2-.2-.2zm45.1 37.5c-.5.4-2.5 1.6-6 3.4.2.4.4.6.5.6.4 0 .8-.2 1.1-.5-.1.3-.2.5-.2.6-.2.1-.1.2.3.2.3 0 .5-.2.6-.5.3.6.4 1.3.3 2.1-.1.8-.3 1.2-.5 1.4-1.8.6-3.9 2-6.3 4-.1 0-.3-.1-.6-.3-.3-.2-.6-.3-.8-.3-.5-.1-1.4.3-2.7 1.1l-.2 1c-.8.3-1.4.7-1.9 1.1-.2.1-.1.2.3.2.4.1 1.1-.1 2.1-.5-.6.2-1.5.5-2.6.8-.3.4-.8 1-1.3 1.6-.6-.1-1.6-.1-2.9 0-1.2.6-2.3 1.2-3.4 1.6-1.4.9-2.3 1.8-2.7 2.7.1-.5-.1-1.1-.5-1.8-.8.5-1.1 1.1-1.1 1.8-.1.5-.1 1 .2 1.3l-.6-.8c-.5.5-1.3 1.4-2.3 2.7-.1-.2-.3-.5-.6-1-1 0-1.5.5-1.6 1.4-.1 1-.2 1.8-.2 2.4v.5h-1.1c0-.3.1-.6.3-1v-.8c.1-.3.1-.8-.2-1.4l-2.6 2.1c-1.4-.1-2.4-.9-3.1-2.3l-1 .8c0-.5-.2-1-.5-1.4-.1.1-.2.3-.3.5-.1.2-.2.4-.3.5 0-.4.3-1.2.8-2.3l-.5-.3c-.3.4-.7.9-1.1 1.4 0-.3.2-1.1.5-2.4.1-1.3-.2-1.9-1-1.9-.3-.1-.9 0-1.8.3 0 .3.1.6.2.8l.8-.5c.3 0 .1.4-.8 1.1 0-.6-.3-1.2-.8-1.8 0-.1-.1-.1-.3.2v2.4c-.1-.6-.1-1.4 0-2.3-.1-.1-.4-.2-.8-.2-.2 0-.4.1-.5.2-.1.2-.2.2-.3.2.2-.1.3-.3.4-.5.1-.2.1-.4.2-.5-.4-.5-.9-1.1-1.4-1.6l1.4 1c.2-.2.1-.6-.3-1.1l3.2-4.2c-.1-.1-.4-.2-.8-.2.6 0-.5.3-3.5 1 1.1-.5 2.6-1.3 4.7-2.4v-1c.2-.2.9-1.3 2.1-3.2.2-.2.8-.7 1.9-1.4 1-.7 1.5-1.4 1.5-2.1.6-.2 1.3-.6 1.9-1.3 6-12.8 10.7-29.6 14-50.4l.5-8.2c-1.7 10.2-2.7 16.1-2.9 17.7-1.5 6.8-3.2 12.5-5.2 17.2 3.1-16 4.8-26 5.2-30.1l.3.6c.1-.2.2-.5.2-.8.1-.2.1-.4 0-.6-.6.5-1 .6-1 .3l.2-.7c.2-.4.2-.7.2-1l1-25.1c.1-3.4.7-6.3 1.9-8.7v-.6c.3-.2.8-.5 1.4-.8.1-.4.2-.7.2-.8h.8c0 .2.1.5.3 1l-1.3 26.7c.3-1.2.9-5.5 1.6-13l-.2-7.1c.2-1.7.6-3.6 1.3-5.8.1.4.3 1 .5 1.6.6-.5 1-1.7 1.1-3.4.7.4 1.3.6 1.8.6.2-.2.6-.6 1.1-1.3v1.3c.3.1 1.1.2 2.3.3.7.1 1.1 0 1.1-.3-.1.5-.1 1 .2 1.4 0-.5.3-1.2.8-2.1.5-.9 1-1.2 1.4-1.1v1c-.8.4-1.2.9-1.4 1.3l.2 1.1c.9-.3 1.8-1.2 2.9-2.6l-.3 2.6c0 1.1.7 1.7 2.1 1.8-.4 1-.7 1.8-.8 2.6-.1 1.3-.1 4.9.2 10.8l-.3 2.9c-.1 1.1.1 1.8.6 2.1l-1.6 15.1c-1.1 10.8-4.5 26.1-10.3 45.9 0 .2-.2.8-.6 1.8-.2.3-.3.5-.2.6.3-.2.7-.3 1.1-.2.2.1.6.6 1.3 1.4h1c.6-.6 1-1.3 1.1-2.1 0 .1.1.4.3.8.4 0 .7-.2.8-.6-.3.6-1.2 1.4-2.7 2.4 1 .2 1.7.3 2.3.3 2.6-1 4.1-1.4 4.5-1.4.3 0 .7.2 1.1.7.4.5.7.7.8.7.2.1.4 0 .6-.3.2-.3.4-.4.6-.3 1.2.1 2.7.7 4.7 1.8l-.1 1.8zm-44.6 15.5l-.3-.3-.5 1 .3.2.5-.9zm1.3 2.3c-.3-1.2-.4-2.1-.3-2.9-.2.2-.6 1.1-1.3 2.6.8-.1 1.4 0 1.6.3zm-.7 4.8l-.5-.2.2-1.4.5.2-.2 1.4zm4.1-.7l-.6-.2-.3 1.4h.5l.4-1.2zm.5-18.6l-.5.6-.3-.2.5-.6.3.2zm7.2-16.6c-.3 1.3-1.3 3.5-3.1 6.8-.8 1-1.4 2.1-2.1 3.4.9-2.4 2.2-5.8 4-10.3l1.2.1zm1.8-9.4l-.5 1.1-.5-.2.3-1.1.7.2zm2.7-16.4h-.3l.2-1 .3.2-.2.8zm1.8-8.5l-.3 2.1-.5-.2.3-1.9h.5zm7.4 66.2c-1.7 1-3.5 2.2-5.3 3.7.4.9 1.1 1.3 1.9 1.4.2.1.4.1.6 0v-.3c-.1 1-.2 1.4-.3 1.3-.1-.1-.4-.1-.8 0l-.5.2c-.6-.6-.8-1-.5-1-.4-.3-1.4-.6-3.1-.8 2.7-1.9 5.3-3.4 8-4.5zm-7.1-68.5l-.5-.1.2-2.4h.6l-.3 2.5zm1.9-14.5l.8-15.5c-.2-.1-.6 1.7-1.1 5.3.4 4.6.5 8 .3 10.2zm5 80.1l.2-.6h-1.1l-.2.5 1.1.1zm1.6-22.4h-.3l-1 1.4.4.3.9-1.7zm.7-2.9h-.5l-.8 2.3h.3l1-2.3zm.9 5.8l-.3-.6-1.9 1.1v.6l2.2-1.1zm3.1 17.4l-.8.2v-.5l.8-.3v.6zm4.3 1.1c-.1 0-.3.1-.6.2-.3.2-.6.2-.9.1l-1.9-.2c.5-.4 1.2-.6 1.9-.5l1.5.4zm2-19.8l-.8 1.1-.3-.5.8-1 .3.4zm2.6-46.7l-.6-.2.2-1.6.6.2-.2 1.6zm0 47.3h-.6l.2-1 .5.2v.8zm.6-53.6h-.6l.2-1.6h.6l-.2 1.6zm2.6 57.3h-.5l-.5 1.3h.5l.5-1.3zm78.4-28.8c0 1.9-.8 4.8-2.4 8.5-.6 1.8-1.6 4.7-2.7 8.7-1.3 1.4-3.1 3.8-5.5 7.1l.8-1.6c.6-1.2.9-1.9.6-2.1-.9 1.2-2 3.1-3.5 5.8-.6.5-1.6 1.6-2.9 3.1-.6 1.2-1.6 2.9-2.7 5.2-2.8 4-5.9 7.2-9.3 9.7-5.9 4.4-9.8 6.6-11.8 6.6-.3 0-.8-.1-1.4-.3-.6-.2-1.1-.3-1.3-.3-.9 0-2.1.2-3.6.6-1.6.4-2.8.6-3.6.6-3.2 0-6.7-1.7-10.3-5.2l-3.2-.6c-.1.3-.2.8-.2 1.3s.1 1.2.2 1.9c-1.1-1.4-2.5-3.2-4.3-5.5-.1-.5-.4-1.5-.8-2.9-.3-.2-.6-.4-1-.6-.2-1.4-.5-3.5-1-6.4.5-.6.8-1.1.8-1.4-1.1-2.5-1.8-4.6-2.1-6.3.3-.3.3-3.2 0-8.7 1-7.8 3-15.6 6-23.2 1.2-3.3 3.5-6.8 6.9-10.5 3.6-4.3 6.9-6.8 9.8-7.4.4 0 2.5-.9 6.1-2.6-7.4 3-13.3 7.7-17.7 14-.1.1 0 .3.3.6l.8-.6c-1.4 1.5-2.5 3.3-3.4 5.5l.6.3c3.3-4.6 8.7-9.5 16.3-14.7-.3 0-1.2.3-2.7.8 6.9-4.1 12.2-6.1 15.9-6-.1 0-.3.2-.6.5.3.2.7.3 1.1.3.5 0 1.3-.1 2.4-.3 1.1-.2 1.9-.3 2.4-.3.3 0 1 .4 2.2 1.1 1.1.8 1.8 1.1 2 1.1.4 0 .6-.1.6-.2-.1-.2 0-.2.2-.2.3.1.8.5 1.4 1 .6.6 2.2 2.3 4.7 5.2.4 1 1.5 2.3 3.2 3.9l.6-.6c-.8-.3-1-.7-.9-1.3.2-.5 0-1-.4-1.3 1.7 0 3 .4 3.9 1.1.6-.7 1-1.2 1-1.4.4 1.2 1.3 2.4 2.6 3.7.7.9 1.9 3.6 3.4 8.2 0 .4.1 1.1.2 2.1.2.4.7.9 1.4 1.3.6.8.9 1.8.9 2.7zm-54.8-17l-2.1 2.3-.2-.5 1.9-1.9.4.1zm2.6-1.7l-2.1 1.6-.2-.6 1.9-1.4.4.4zm25.6 15.5c-1.1-1.6-1.7-2.8-1.9-3.7-1.4 1-3.7 2.8-6.8 5.5.1-.6.5-1.4 1.3-2.4-4.9 6.1-8.5 12.9-10.8 20.4-.4-.6-.7-1-.8-1-.8 0-1.5 1.3-2.2 3.9-.7 2.6-1 4.4-1 5.5 0 2.1.5 4.9 1.4 8.4 4.3-1.2 8.4-4.3 12.4-9.5s5.9-9.8 5.8-14c.4.2.8-.1 1-1l.5-1.1c-.9-.3-1.8-.7-2.7-1.1.1-.5.2-1 .2-1.3 0-1.1-1.7-2-5.2-2.9l4-.2c.5.2 1.3.7 2.3 1.4.1-.3.3-.7.5-1.1-.6 0-1-.1-1.1-.2.5-.5.7-1 .6-1.3-.4-.3-1-.7-1.8-1.3 1.6-.5 2.7-1.2 3.2-2.1-.3-.4-.8-.9-1.3-1.4.3 0 .8.1 1.3.2.5.2.9.3 1.1.3zm-14.3-23.5h-1v-.7h1v.7zm6.9.2c-1.2.3-3.6 1.1-7.2 2.4h1.4c.7.1 2.6-.7 5.8-2.4zm-4.8-1h-1v-.6h1v.6zm7.1 34.6h-.8v-.6h.8v.6zm28.6-26.4h-.6v-1.4h.6v1.4zm118.2 42.5c-2.3 1.7-5.6 4-10 6.9v1.4c.9.5 1.4.8 1.6.8.6 0 1.6-.2 2.8-.6 1.2-.4 2.2-.6 2.8-.7-1.4 1.1-3.3 2.4-5.8 3.9l-3.7 1.4c-1.7.6-3 1.6-3.9 2.7h.3c.1.1.3.2.6.2 1-.1 4.1-1.8 9.5-5l1.1.3-21.9 11.8.3.3c2.4-.2 7.1-1.1 14.3-2.6.2.2.5.4 1 .6l-25.9 10.1c1 .4 2 .6 3.2.5 2.5-.2 10-2.8 22.7-7.9 1.8-.8 3.7-1.8 5.6-3.1.1.5.3.9.5 1.1.3-.2.6-.3.8-.3-7.2 3.2-16.9 7.1-29 11.6-6.9 2.6-13.1 4.8-18.8 6.8-.5.4-.8.8-.6 1.1l-.6-.6c-.3.5-1 3.1-2.1 7.7.3.1.7 0 1.1-.3-.3.2-.7.6-1.1 1.1-4.7 18.4-9.3 32.5-13.7 42.3-.5.9-2 2.4-4.3 4.7l-.9-.2c-.5-.2-.9-.2-1.2-.2-.3.1-1 .7-2.1 1.9-1.1 1.1-1.8 1.7-2.1 1.9-2.9 1.7-4.9 2.6-6.1 2.7l-1.8.3c0-.1.1-.3.2-.5l-.2-.8c-.1-.9-.9-1.6-2.4-2.1l-1.1.6c.1-1.2-.1-2.1-.5-2.9-1.2-2.3-1.8-3.6-1.8-4l.5-1.3c-.2-3.6-.4-9.2-.6-16.7 0 .5.4.8 1.1.8l.3-1.3c-.4-3.7.5-7.5 2.7-11.6 1-1.5 2.7-4.5 5.2-9 1.1-1.8 3.9-5 8.4-9.5.2-.1.4-.6.6-1.6-.2-.3-.4-.5-.6-.5.4-.1.8-.4 1-.8-.2-.2-.5-.3-.8-.2-.8.1-2.2.9-4.3 2.3.2.1.6.2 1.1.2-2 .6-4.7 2.2-7.9 4.7-8.7 6.8-13.6 14.7-14.8 23.7-1 6.8-1.4 10.7-1.3 11.8.2 1.3.6 2.4 1.1 3.4.2.5.1 1.6-.3 3.1-.8 0-1.4-.2-1.9-.6-.6-1-1.3-2.2-1.9-3.7l-2.3-12.6c-.8-4.7.4-10.8 3.5-18.4 2.5-6.1 5.3-11 8.4-14.7.7-1.1 2.1-2.6 4-4.5 1.1-.9 2.6-2 4.7-3.4.3-2 1.4-3.6 3.2-4.8 2.8-1.2 6.8-3 11.9-5.5-.1-.3-.1-.9 0-1.7.1-.8.2-1.3.2-1.5 0-.3-.1-.6-.3-.8-1.9 1.1-4.1 2-6.6 2.7-.9 1.1-1.5 1.7-1.9 1.8-.2 0-.5-.1-.7-.2-.3-.1-.5-.1-.7 0-.5 0-3.2 1.3-8 4 2-1.1 5-2.8 8.9-5.2.3-.4 1-1 1.9-1.8l7.2-1.8c.1-.3.4-1.3.8-3.1l-.6-2.3c-.4.4-.6.9-.5 1.4l-.6-.5c-.2.2-.3.5-.3 1-.2 0-.5-.2-1-.6-.2 0-.4.2-.6.5.1.6.5.9 1.3.8-1.8.4-4.5 1-8 1.6.6.2 1.5.4 2.6.6-5.9-.9-9.3-1.2-10.3-1.1-.4.1-1.1.3-2 .6-.9.3-1.6.5-2 .6-2.1.2-4.8-.5-8-2.1s-5.5-3.4-7-5.3c-.3-1.1-1.2-2.8-2.7-5.2.3.2.6.3.8.2.3-.4.5-.9.5-1.3-.1-.6-.6-1.8-1.5-3.4-.9-1.6-1.4-2.7-1.4-3.4l-.5-3.9c2.4-6.1 4-10.8 5-14-1.9 10.4-2.9 15.5-2.9 15.1 0 .6.2 1.3.6 1.9.1-1.4 1.3-6 3.7-13.7.8-2.3 2.4-4.7 4.8-7.4.4-1.1 3.9-6 10.5-14.7-1 1.6-2 3.2-3.2 4.7-1.2 2.3-1.6 3.9-1.3 5 2.3-3.6 6.1-8.8 11.4-15.5-3 3.7-5.6 7.4-7.9 11.3.1.2.3.3.5.3l10.8-12.7c-.1.5-.8 1.7-2.1 3.4l1.3-.2c-.9.5-1.4 1.3-1.6 2.4 3.8-3.6 7.8-5.7 12.2-6.3 2.3-.2 4.2 0 5.8.6l.8-2.1c0 .9-.1 1.6-.2 2.1 3.4 1.1 6.3 2.3 8.7 3.5l1.1-.1-.2-1.6c-.8-.5-1.2-.8-1.3-.8-.3 0-.5.3-.5.8-.3-.6-2-1.1-5-1.3l2.1-.2c3.5-.4 6.3 1 8.4 4.2-.2.2-.4.3-.6.3-.2 0-.4-.2-.6-.5l-.8 1.1c.4.5 1.3 1.1 2.6 1.8.1-.3.3-.8.6-1.4.2 1.5.1 2.5-.3 2.9 0 .5.6 1 1.8 1.4-.1-.6.1-1.4.6-2.3.3.4.9 1.1 1.6 2.1l1-.2c.3-1.2 1-3 2.1-5.3.6.8.9 1.4.6 1.9l-.6 1.3.5 4.2c.5.4.9.6 1 .6.4-.1.7-.3.9-.5.2-.2.3-.3.4-.3.9 1.2 1.3 1.9 1.4 2.3l.2 1.8c.1.8.2 1.3.3 1.6.3 3.4-1.6 10.4-5.6 20.9-.5 1.5-.6 3.1-.3 4.8-.3 2.4-.9 6.1-1.6 11.1 1.3.5 2.6.7 4 .5-.4.1 1-.4 4.3-1.6 0 .2 0 .5-.1 1-.1.4-.1.7-.1.8.5.3.9.5 1.1.5.3 0 .8-.2 1.4-.5.6-.3 1.1-.5 1.4-.5h2.8c1.4-.1 3-.6 4.8-1.6-1 .3-1.7.9-2.3 1.8.5.4 1.2.6 1.9.5.8 0 1.9-.7 3.5-2.3.1.5.5.8 1.3.6.8-.1 1.8-.5 3.2-1 1.4-.6 2.4-.9 3.1-1 .2 0 .5 0 .7.1.3.1.5.1.7.1 4-.4 7.3-2.1 10-5 .2.1.8.6 1.8 1.4.3-.1.9-.5 1.8-1.1l1.2.2zm-100.8 61.5l-.6-.2-.5 1.1h.8l.3-.9zm21.3-24c-4.5 2.6-7.5 4.4-8.9 5.5-3.1 2.6-5.6 5.6-7.6 9-.6.8-1.6 1.9-2.7 3.4-.6 1.4-1.2 3.1-1.8 5.2 2-3.3 3.5-5.7 4.5-7.1 1.6-2.6 3.4-4.8 5.3-6.6 1.3-.9 2.7-2.1 4.3-3.7.6-.9 1.9-1.9 3.6-3 1.9-1.2 2.9-2 3.3-2.7zm-15.8-6.9l-2.6 2.9-.5-.6 2.7-2.6.4.3zm38.3-72.1c-.1-1.3-1.2-2.2-3.4-2.7-2.8-.6-4.5-1.2-5-1.6-.3 2.1-.9 5.2-1.8 9 .1-.7.4-3.7.8-8.9l-2.7.3c-6 .6-11.6 5.7-16.9 15.1-.6 1.2-1.4 2.6-2.3 4.2-5.3 11.5-7.7 18.8-7.4 21.9.1.4.3.8.6 1.1l.6.6c.1-.9.6-2.1 1.4-3.9l.8.6c-.8.2-1.2.6-1.3 1.3v1.9c1.3 1.1 2.2 1.6 2.7 1.4h1.1c.2-1.4.6-2.9 1.3-4.5.1-.3.3-.5.6-.5s.6.1.8.3c-.3 1.1-.8 2.7-1.4 4.8l5.8-.6c2.4-.2 6.3-2.1 11.8-5.6 0-.3.1-.6.3-1 .2.2.3.5.3.8.6-.7.9-1.7.6-2.9 0 .2-.2.6-.6 1.3l-.6-.6c.4-2 1.5-7.7 3.2-17.1 0 .3-.2.5-.5.6-.4-1.5-.3-5 .5-10.5l.6.5c-.5 3.8-.6 6.8-.3 9 .1-7.4 1.3-12.2 3.7-14.3l1.4 2.9c.5-.8 1.3-1.8 2.4-3.2.6 1.4.9 2.4.8 2.9 1.6-1.2 2.2-2.2 2.1-2.6zm-37.2 41.5l-.6-.2-.3 1 .6.2.3-1zm3.6 27l-4.2 3.4-.3-.6 4.2-3.2.3.4zm-1.7-59.8c-.2-.3-.4-.6-.6-.8-.5 1.1-.9 1.8-1.1 2.1.4-.1 1-.5 1.7-1.3zm3.1 35.1l-.2-1.1c-.6-.3-2.2-.6-4.7-1 .4.5.7 1.4.8 2.6l4.1-.5zm-4 61.3c.2 1.9.1 2.9-.5 2.9-.1.1-.2.1-.3-.2l.6-.5c0-.3.1-1 .2-2.2zm4.2-7.9l-1.6 2.3-.5-.2 1.4-2.4.7.3zm16.7-6.6h-.6c-1.6.9-2.7 1.7-3.2 2.6-.2 1.1-.5 2.5-1 4.2-.5 1.4-1.2 3.5-2.1 6.3-.2-.2-.3-.4-.2-.6.3-1.3 1.1-4.6 2.4-10-4.2 2-8.1 6.8-11.8 14.3-.5 1.2-.8 2.8-.8 4.8-.4 2-.6 3.2-.5 3.5 0 .3.2.9.5 1.6.3.7.5 1.3.6 1.6.6-2.5 1.7-5.7 3.2-9.7.1.3-.3 2.5-1.3 6.4-.4.9-.8 1.9-1 3.2-.3 3.1-.3 6.2 0 9.3.2 1.9.5 3.3.8 4.2l1.6-.2c1.2-.1 2-.6 2.4-1.4.3-1.3.7-2.5 1.1-3.7-.5 0-.8-.2-.8-.6.3-.2.5-.3.6-.2.4.3.7.5 1 .5-.2-.2-.4-.5-.5-.8l1-1.3c.4-.9.6-1.8.5-2.9-.2 0-.4-.1-.6-.2.6-.5 1.8-3.1 3.5-7.6 1.3-2.4 2-5.6 2.3-9.7l-1.1.2c1.1-3 2.4-7.7 4-13.8zm1.5-51.8l-.2-1.4-1 .8c-1 .1-2.2.5-3.7 1.3 0 .3-.2.7-.6 1.1-3 .9-5.5 1.4-7.4 1.6-1.6.1-3 .2-4.2.2-.5 1.2-.8 1.9-.6 2.3l5-.5c2.3-.2 5.4-1.2 9.3-3.1.7-.7 1.8-1.5 3.4-2.3zm-8.3 109.4l-1.3 1.1c0 .2.2.5.5.8-1.4.3-3.9 1.2-7.4 2.7 3.2-3.1 5.6-4.8 7.1-5l1.1.4zm-5.4-146.8l-.5-.5-1.1 1.4.5.5 1.1-1.4zm4 148.3l-.6-.5-.3.3.5.6.4-.4zm.5-42.4l-.3 1.1-.6-.3.3-1 .6.2zm.1-1.6l-.3 1.2-.5-.2.3-1h.5zm7.6-17.5c.1-.2-.1-.6-.5-1.1-1.2.9-2.1 1.9-2.9 3.1 2-.8 3.1-1.5 3.4-2zm1.9 60.8c-.4.4-1 .7-1.6.8-.3 0-.9-.4-1.6-1.3.1 0 .3.1.5.2.2.2.5.2.9.2h1.8zm17.1-150.2c-.1-.4-.4-1.1-.8-2.1-.2.4-.3 1.3-.2 2.6.2-.2.6-.4 1-.5zm14 71.5l-.2-.6-1.1.2.2.6 1.1-.2zm2.7-53.6l-1.1 1.8-.6-.3 1.1-1.8.6.3zm-.3-9.2l-1.1.6v-.5l.8-.6.3.5z" opacity=".05" fill="#fff"/></svg>