<?xml version="1.0" encoding="utf-8"?>
<!-- Generator: Adobe Illustrator 17.1.0, SVG Export Plug-In . SVG Version: 6.00 Build 0)  -->
<!DOCTYPE svg PUBLIC "-//W3C//DTD SVG 1.1//EN" "http://www.w3.org/Graphics/SVG/1.1/DTD/svg11.dtd">
<svg version="1.1" id="Layer_1" xmlns="http://www.w3.org/2000/svg" xmlns:xlink="http://www.w3.org/1999/xlink" x="0px" y="0px"
	 width="19.1px" height="19.1px" viewBox="0 0 19.1 19.1" enable-background="new 0 0 19.1 19.1" xml:space="preserve">
<g>
	<path fill="#FFFFFF" d="M18.1,16.4l-1.7,1.7c-0.6,0.6-1.5,1-2.4,1c-0.9,0-1.8-0.4-2.4-1l-2.4-2.4c-0.6-0.6-1-1.5-1-2.4
		c0-0.9,0.4-1.8,1-2.4l-1-1c-0.6,0.7-1.5,1-2.4,1c-0.9,0-1.8-0.4-2.4-1L1,7.5C0.3,6.8,0,6,0,5.1c0-0.9,0.4-1.8,1-2.4L2.7,1
		c0.6-0.6,1.5-1,2.4-1C6,0,6.9,0.4,7.5,1l2.4,2.4c0.6,0.6,1,1.5,1,2.4c0,0.9-0.4,1.8-1,2.4l1,1c0.6-0.7,1.5-1,2.4-1
		c0.9,0,1.8,0.4,2.4,1l2.4,2.4c0.6,0.6,1,1.5,1,2.4C19.1,15,18.8,15.8,18.1,16.4z M8.3,5L5.9,2.6C5.7,2.4,5.4,2.2,5.1,2.2
		c-0.3,0-0.6,0.1-0.8,0.3L2.6,4.3C2.4,4.5,2.2,4.8,2.2,5.1c0,0.3,0.1,0.6,0.3,0.8L5,8.3c0.2,0.2,0.5,0.3,0.8,0.3
		c0.3,0,0.6-0.1,0.8-0.4C6.3,7.9,5.8,7.5,5.8,6.9c0-0.6,0.5-1.1,1.1-1.1c0.6,0,0.9,0.5,1.3,0.8c0.2-0.2,0.4-0.5,0.4-0.9
		C8.6,5.5,8.5,5.2,8.3,5z M16.5,13.3l-2.4-2.4c-0.2-0.2-0.5-0.3-0.8-0.3c-0.3,0-0.6,0.1-0.8,0.4c0.4,0.4,0.8,0.7,0.8,1.3
		c0,0.6-0.5,1.1-1.1,1.1c-0.6,0-0.9-0.5-1.3-0.8c-0.2,0.2-0.4,0.5-0.4,0.9c0,0.3,0.1,0.6,0.3,0.8l2.4,2.4c0.2,0.2,0.5,0.3,0.8,0.3
		c0.3,0,0.6-0.1,0.8-0.3l1.7-1.7c0.2-0.2,0.3-0.5,0.3-0.8C16.9,13.8,16.8,13.5,16.5,13.3z"/>
</g>
</svg>
