<svg xmlns="http://www.w3.org/2000/svg" width="18.9" height="18.9" viewBox="0 0 18.9 18.9"><path fill="#00BEA4" d="M18.4 16.8c-.3.7-1 1.1-1.6 1.4-.8.4-1.6.7-2.5.7-1.2 0-2.4-.5-3.5-.9-.8-.3-1.6-.7-2.3-1.1-2.3-1.4-5-4.2-6.4-6.4-.5-.8-.9-1.6-1.2-2.4-.4-1.2-.9-2.3-.9-3.6 0-.9.3-1.7.7-2.5.3-.6.7-1.3 1.4-1.6.4-.2 1.4-.4 1.9-.4h.3c.3.1.6.8.7 1 .4.8.8 1.5 1.3 2.3.2.3.6.8.6 1.2 0 .8-2.4 2-2.4 2.7 0 .4.3.8.5 1.2 1.4 2.4 3 4.1 5.5 5.5.3.2.8.5 1.2.5.7 0 1.9-2.4 2.7-2.4.4 0 .8.4 1.2.6.7.4 1.5.9 2.3 1.3.3.1.9.4 1 .7v.3c0 .5-.3 1.4-.5 1.9z"/></svg>