<svg xmlns="http://www.w3.org/2000/svg" width="24" height="24" viewBox="0 0 24 24"><path fill="#00BEA4" d="M18 24c-1.4 0-2.6-.5-3.7-1.2-.7.1-1.5.2-2.3.2-6.1 0-11-4.9-11-11 0-.8.1-1.6.2-2.3-.7-1.1-1.2-2.3-1.2-3.7 0-3.3 2.7-6 6-6 1.4 0 2.6.5 3.7 1.2.7-.1 1.5-.2 2.3-.2 6.1 0 11 4.9 11 11 0 .8-.1 1.6-.2 2.3.8 1 1.2 2.3 1.2 3.7 0 3.3-2.7 6-6 6zm-4.5-13.5l-1.6-.4c-1.2-.3-2.1-.5-2.1-1.4 0-.8.9-1.2 2.2-1.2 2.5 0 2.5 1.8 4 1.8 1 0 1.6-.8 1.6-1.7 0-1.8-3-3-5.9-3-2.7 0-5.8 1.2-5.8 4.4 0 2.6 1.8 3.6 4 4.1l2.3.6c1.4.3 2.2.5 2.2 1.5 0 .8-.9 1.4-2.3 1.4-2.9 0-3-2.4-4.7-2.4-1.1 0-1.6.8-1.6 1.6 0 1.9 2.9 3.5 6.5 3.5 2.9 0 6-1.5 6-4.6 0-2.8-2.6-3.7-4.8-4.2z"/></svg>