<svg xmlns="http://www.w3.org/2000/svg" width="505.1" height="165" viewBox="0 0 505.1 165"><path d="M12.9 32.6c-.1 1.1-1.9 3.7-5.3 8-.4.8-1 1.2-1.8 1-1.1 0-2.1-.4-3.1-1.2-.4-.4-1.2-1.7-2.4-3.9-.2-2.2-.3-3.5-.3-4.1.4-3.9 2.2-5.7 5.5-5.3.8.1 1.8 1.3 3.1 3.5.1.1.3.1.5-.1s.4-.3.7-.3c.4 0 1 .3 1.8.9.8.6 1.3 1.1 1.3 1.5zm137.7-6.5c-1.4.8-2.1 1.8-2.2 2.9 0 .5.1 1.1.4 1.6-.7.3-1.6.9-2.7 1.8 0-.1-.1-.3-.2-.6-2.7 1.6-4.1 3.9-4.1 6.9 1.1-1 2.7-2.5 4.7-4.7l-.2 1 1.2.2c.4-.1.7-.2.8-.2-1.5 0-2.9 1.6-4.3 4.7 0 .3.1.6.2 1-2.9 4.9-4.3 7.9-4.3 9 .4.1.8 0 1.2-.4.4-1.1 2.2-3.5 5.5-7.3-1.5 2.4-3.1 5.2-4.7 8.2-3.1 6.1-4.8 9.9-4.9 11.4 0 .3-.2.9-.7 1.7-.5.9-.8 1.6-.9 2.1 0 .5.1 1.3.4 2.2l-.6-.4c.3.3.4.6.4 1 0 .3-.2.6-.6 1v.4c-.1.1-.1.3.2.4l.8-1.4c.7 1.1.9 1.8.8 2.2 0 .8-1.4 3.5-4.1 8-.1 0-.2.4-.2 1.2l-.8-.6v.2c0 .1.1.3.2.4.1.1.2.4.2.8-.1.4-1 2.7-2.7 6.7-.7-.1-1.2-.1-1.6 0-.1.5 0 .8.4.8.3.1.6 0 1-.4-.3.5-.8 1.4-1.6 2.4.5.5 1.1 1.3 1.6 2.2l-11.6 26.1c-6 13.7-11.8 23.3-17.5 28.6 0 .7-.7 2-2.2 3.9-.7.3-1.6.9-2.9 1.8-.3 0-.6-.2-1.1-.7-.5-.5-.9-.7-1.1-.7-.3 0-.5.1-.8.4-.3.3-.5.4-.8.4-.8 0-1.8-1.2-3.1-3.5-.7.3-1 .7-1 1.4.1.7.1 1.2 0 1.6-.1-.4-1.1-.5-2.9-.4.3.8.9 2.1 1.8 3.9-6.9-3-10.2-4.5-9.8-4.5-.3 0-.4.1-.4.4 0 .3-.2.4-.6.4.1 0 .1-.2-.2-.6-3.9-1.2-6.8-1.8-8.6-1.8-1.2-.5-2.1-1.8-2.7-3.7-.1-.3-.5-.5-1.2-.8-2.4-4.6-4.2-7-5.3-7.1 0-.1.1-.3.4-.6l.4-.6c.3-1.6-.2-2.5-1.4-2.7-1-.1-2 1.1-3.3 3.7.1.3.2.7.2 1.2-.3 0-2.2 2-5.7 6.1s-5.8 6.1-6.9 5.9c.4.1-.5-.4-2.7-1.6-.5 0-1.3-.1-2.2-.4-1-.3-1.7-.4-2.2-.4-.8.8-1.4 2-1.6 3.5-.4.7-1.4.9-2.9.6-3.8-.3-6.3-2.4-7.3-6.3l-3.7-4.1c-1.5-2.7-3.1-5.4-4.7-8-1.8-3.5-2.9-6.4-3.5-8.6-2.6-10.5-4.4-21.5-5.5-33l.2-2.4c0-.9-.5-1.7-1.4-2.2-.4 8.7.3 16.7 2.2 23.9-1.1-.1-1.7-.5-1.8-1.2-.5-1.8-1-3.9-1.4-6.5-1.5-8.4-1.7-17.7-.6-27.7.3-3 1.3-5.6 3.1-8-.1.3-.1-.1 0-1 .3.4.5.6.8.6l.8-.4c-.4-.3-.8-.9-1.2-2 .5 0 .9-.1 1.2-.4.3.8.7 1.9 1.2 3.3l.8.2c.3.3.5-.3.6-1.6-1.2-1.2-1.8-2.3-1.6-3.3.1 0 .3-.1.5-.4.3-.2.5-.3.8-.2.5 0 1.2 1 2 2.9.1-.1.2-.4.2-.8.3-2-.3-3.9-1.6-5.7-.1 0-.3 0-.5.1s-.4.1-.7.1c-.4 0-1-.8-1.8-2.5s-1.2-2.8-1-3.4c0-.3.1-.5.3-.7.2-.2.3-.4.3-.5h1.2c1 .5 1.6 1.5 2 2.9.1.7 0 1.7-.4 3.1.1.4.5.8 1 1.2.3-.7.7-.9 1.4-.8.4.1 1.1.7 2 1.8.1-.7.5-1.7 1-3.1 1.1 1.1 1.8 2 2.2 2.7.7.1 1.2.1 1.4 0-2.7-4.8-4-7.8-3.9-9.2.1-.9.9-2.2 2.2-3.9 1.4-1.6 2.5-2.4 3.5-2.2.7 0 1.6.6 2.7 1.8 1.1 1.2 1.6 2.2 1.4 2.9 0 .5-.3 1.4-.9 2.7-.6 1.2-.9 2.1-.9 2.7.1.3.5 1.2 1.2 2.7 3.3-.7 4.9-1.4 4.9-2.2 0 1.1-.3-.1-.8-3.5.1 0 .4-.1.7-.2.3-.1.6-.1.9 0 1.4.1 2.2 2.8 2.7 8-.5 13.1.5 27.4 3.3 43 .3.4.7 1.2 1.2 2.2.3 0 .5-.1.6-.4 0-.1-.1-.3-.4-.6 1.2-1.5 1.7-2.5 1.4-3.1l.8 1c.5-.7.9-1.2 1-1.6-.1-.3-.3-.4-.4-.4.4-.4.6-.9.6-1.4.5-.8 1.6-2.7 3.3-5.5-.1.3-.5-.1-1.2-1 .5.1.9.3 1 .4.3-.3.7-.7 1.2-1.4 0-.1-.1-.3-.2-.6.8-1.1 1.4-2.3 1.6-3.7 1.4-1.5 2.2-2.8 2.4-3.9 0 .1.1.3.4.4.8-.5 1.4-1.5 1.6-2.9 0-.5.1-1.4.2-2.7.8-.3 1.3-1.1 1.5-2.3.2-1.3 1-2.3 2.3-3.2 1.4-.8 2.2-1.4 2.7-1.8.1-4.4 1-8.9 2.7-13.7.4-1.2 1.4-2.6 3.1-4.1 1.6-1.5 3-2.2 4.1-2 1.2.1 2.4 1.3 3.5 3.5.4-.3 1.1-.3 2-.2-.3-.1.1-.4 1-.8l2-2.9 3.1 1.4c.4 0 1.1-.1 2-.4 1.2 2.7 1.8 6.5 1.6 11.2l-.2 11.2c-.1-.4-.3 0-.4 1.2.1.3.3.4.4.4.4-.4.7-.9.8-1.6 0-.4-.1-1.1-.4-2 .3-.3.7-.3 1.2-.2 0-.7.1-1.6.4-2.9.3-1.2.5-2.2.6-2.9 0 .5.2 1.3.6 2.2.1-.4.6-1.6 1.4-3.7 0 .1.1.2.2.2.3.1.5.1.8 0l-2.9 25.3c0-.8-.1-2.1-.4-3.9-.4.5-.7 1.4-.8 2.4-.1 1.4 0 3 .4 4.9.7-1.6 1-2.7 1-3.1l-.2 17c-.1 2.2-.3 5.4-.4 9.8 4.9-5.7 9.9-14.3 14.9-25.9 7.1-16 11.2-25.2 12.4-27.5.7-1.4 1-2.5 1-3.5.7-.1 1.1-.4 1.2-.8 0-.1-.1-.4-.2-.8 1.6-2.4 3.7-6.1 6.1-11 0 .4.3 1 1 1.6h.6c.8-1.2 2-2.9 3.5-4.9-1 3.3-2.7 6.7-5.1 10.4l.4 1c-1.1.3-2 1.2-2.7 2.9-.3.7-.4 1.3-.4 1.8-.1.5 0 1 .4 1.4-.1 0-.4-.3-.8-.8-.1.5-.7 1.3-1.6 2.2v1.6c1.6-.7 2.4-1.1 2.2-1.2-.5-.4-.8-.7-.8-1l.8.2c-.3 0 .3-.2 1.6-.6-.4-.5-.5-.8-.2-.8l.2-.2.2-.8c.1-.3 1.7-2.9 4.7-7.8.4-1 .3-1.5-.2-1.6.4-.1.9-.6 1.4-1.4.4-1.5 1.3-3.7 2.7-6.5 1.6-1.5 3.2-3.3 4.7-5.3.4-.4 1.8-2.1 4.1-5.1l2-2.4c-.1.7-.1 1.1 0 1.2.5-.5 1.4-1.4 2.7-2.4l1.2-2.4c-.1.1-.1.3.2.6.4-.5.8-1.2 1.2-1.8 0 1.6-.5 3.2-1.6 4.7.1.1.3.2.6.2l3.3-3.3c-5.8 7.8-11.1 15.2-15.7 22.4-.4.8-.5 1.6-.4 2.4l13.1-17.5c.5-.8 1.2-1.7 1.8-2.7-.3 0-.2.3.2.8 1.8-2.6 2.6-4.3 2.4-5.1.1 0 .4.3.8.8.4-.3.9-.6 1.6-1 .1-.5.5-1.2 1.2-1.8v1.1zm-121.2-7.3c-.1 1.9-3.2 4.4-9.2 7.3-1.5-1.4-2.9-2.1-4.1-2.2h-.6c0 .1-.1.2-.4.2-3.8-.4-5.4-3.8-4.7-10.2.4-3.5 1.8-5.2 4.1-4.9.8.1 1.4.3 1.8.6 3-4.4 5.2-6.5 6.7-6.3 1.9.3 3.3 1.5 4.3 3.7l1.8 5.9-.1 3.2c0 .1.1.5.2 1.2s.2 1.2.2 1.5zm-11.9 21.2c-.1 1.2-1.2 1.8-3.1 1.6-1.1-.1-2-1.1-2.9-2.9.7-.8 1.5-1.2 2.4-1 2.6.2 3.8.9 3.6 2.3zm-4.2 27.3h-.6l-.7.8.6.4.7-1.2zm.2 18c0-1.8.1-4.1.2-7.1-.3-.4-.7-1-1.2-1.8l-.2 1.8c0 1 .3 2 .8 3.1-.7 1.7-.6 3 .4 4zm.2-22.7h-.6l-.4 1 .6.2.4-1.2zm-.2 2.5v-.8h-.4l-.2.8h.6zm4.9 15.7l-.4-.2-.4.8.4.4.4-1zm6.1 65.3l-1-.2v-.6l1 .2v.6zm3.2-72l.2-2.9c-.3-.1-.5-.3-.8-.6 0 .4-.1 1.6-.4 3.5l-.4.2v1c.1-.3.6-.7 1.4-1.2zm4.3-34.9c-3 1.4-4.2 2-3.7 2-1.5-.1-2.1-1.4-1.8-3.9.1-1.8.8-2.6 2-2.4 1 .1 2.2.8 3.7 2l-.2 2.3zm-3.2 20v-.8l-.6-.2v.8l.6.2zm22.6-37.2c-.5.5-.9.8-1 .8.4 0-.7-.6-3.5-1.8 0-.5.1-1.6.4-3.3 1.1.4 2.5 1 4.3 1.8l-.2 2.5zm3.7 50.4l-.4-.2-.4 1 .4.2.4-1zm11-15.7c.3-2.2.3-3.4 0-3.7-1.1 1-1.7 1.8-1.8 2.4 0 .4.1.7.2 1v.4c.1 0 .4 0 .8-.1h.8zm12.6 64.9l1.6-26.5c0 .4-.1 1.1-.3 2.1-.2 1-.4 1.7-.5 2.1l-.8 22.3zm2.3-28.4h-.6l-.4 1 .6.2.4-1.2zm.2-1.2h-.6l-.4 1 .4.2.6-1.2zm.4-4.1c-.3-1.4-.3-2.3-.2-2.9-.4 3.1-.5 5-.4 5.5 0-.3.2-1.2.6-2.6zm.4-5.7l.4-4.1c-.8 1.4-1.2 2.2-1.2 2.7.1.3.4.7.8 1.4zm.8-5.5l-.6-.2-.4.6.6.4.4-.8zm.2 34.5l.4-3.1h-.6l-.4 3.1h.6zm.2 2.2l.2-1.2h-.6l-.2 1.2h.6zm.2 3.7l-.4 1.4-.4-.2.4-1.2h.4zm0-10.6l.2-2.9h-.6l-.2 2.9h.6zm.2-6.3l.2-1.2h-.6l-.2 1.2h.6zm.7-15.5l.2-2.7h-.6l-.2 2.4.6.3zm19.5 6.5c-.4 0-.7-.2-.8-.6.7-1.6 1.1-3.3 1.2-4.9-.8 1.4-1.8 3.3-3.1 5.7.3.8.3 1.4.2 1.8 0 .5-.3 1.1-1 1.6l-.2 2.2c.8-.4 1.6-1.5 2.3-3.2.9-1.6 1.3-2.5 1.4-2.6zm-.8 56.3c-.4.5-1 .7-1.8.6.1.1.2.4.2.8 1.1-.3 1.6-.7 1.6-1.4zm1.4-1.2l-1 1-.2-.4.8-1 .4.4zm6.4-69.2c0-.3-.1-.5-.2-.8-.1-.3-.2-.5-.2-.6-.3 0-.5.1-.6.4.1.8-.3 1.4-1.2 1.8-.4 1.9-1.4 4.1-2.9 6.7 0-1.1-.1-1.9-.2-2.4 0 .4-.2.9-.5 1.5s-.5 1.1-.5 1.5l1-.4c.3.3.4.6.4 1 3.1-5.4 4.7-8.3 4.9-8.7zm-4.1 4.1l.2-1-.4.2c-.3.1-.4.3-.4.4 0 .3.2.4.6.4zm5.5-11.8l-.4-.2-.6 1.8h.6l.4-1.6zm2 .8c0-.1 0-.4-.1-.7-.1-.3-.1-.6-.1-.7-.3.4-.7 1-1.2 1.6.4-.3.9-.4 1.4-.2zm.7-4.3h-.6l-.6 1.6.6.2.6-1.8zm11.8-8.8h-.4l-.4 1 .2.4.6-1.4zm2.2-14.7l-.2-.6-1.4 1.2.4.2 1.2-.8zm-.6 47.2l-.4-.4-.4.2.4.6.4-.4zm2.3-6c-.7 1-1.2 1.6-1.4 2h.6c.4-.9.6-1.6.8-2zm3.2-14.6l-.6-.2-.6 2.2h.4l.8-2zm.2-47.6l-.8.8-.4-.2.6-1 .6.4zm1 46.7v-1.4h-.6v1.4h.6zm2.7 5.5l-1 1.4-.4-.2 1-1.2h.4zm-.2-7.9l-1 .2v-.4l.8-.4.2.6zm3.1-47.1c-.7 1.5-1.3 2.7-1.8 3.5-.1-.3-.2-.6-.2-1-.1-.5.6-1.3 2-2.5zm.8 4.7h-.6v-1h.6v1zm2-7.2l-1.8 2-.4-.4 1.8-2 .4.4zm-1 8.2l-1.2 1c0-.5.3-1.3 1-2.2 0 .5.1.9.2 1.2zm91.4 61.6c0 2.4-1 6.1-3.1 10.8-.8 2.3-2 6-3.5 11-1.6 1.8-3.9 4.8-6.9 9l1-2c.8-1.5 1.1-2.4.8-2.7-1.1 1.5-2.6 3.9-4.5 7.3-.8.7-2 2-3.7 3.9-.8 1.5-2 3.7-3.5 6.5-3.5 5-7.5 9.1-11.8 12.2-7.5 5.6-12.4 8.4-14.9 8.4-.4 0-1-.1-1.8-.4-.8-.3-1.4-.4-1.6-.4-1.1 0-2.6.2-4.6.7-2 .5-3.5.7-4.6.7-4.1 0-8.4-2.2-13.1-6.5l-4.1-.8c-.1.4-.2 1-.2 1.6 0 .7.1 1.5.2 2.4-1.4-1.8-3.2-4.1-5.5-6.9-.1-.7-.5-1.9-1-3.7l-1.2-.8c-.3-1.8-.7-4.5-1.2-8.2.7-.8 1-1.4 1-1.8-1.4-3.1-2.2-5.8-2.7-8 .4-.4.4-4.1 0-11 1.2-9.9 3.7-19.7 7.5-29.4 1.5-4.2 4.4-8.6 8.8-13.3 4.6-5.4 8.8-8.6 12.4-9.4.5 0 3.1-1.1 7.8-3.3-9.4 3.8-16.9 9.7-22.4 17.7-.1.1 0 .4.4.8l1-.8c-1.8 1.9-3.2 4.2-4.3 6.9l.8.4c4.2-5.8 11.1-12 20.6-18.6-.4 0-1.6.3-3.5 1 8.7-5.2 15.4-7.7 20.2-7.5-.1 0-.4.2-.8.6.4.3.9.4 1.4.4.7 0 1.7-.1 3.1-.4 1.4-.3 2.4-.4 3.1-.4.4 0 1.3.5 2.8 1.4 1.4 1 2.3 1.4 2.5 1.4.5 0 .8-.1.7-.3-.1-.2 0-.3.3-.3.4.1 1 .6 1.7 1.3.7.7 2.8 3 6 6.6.5 1.2 1.9 2.9 4.1 4.9l.8-.8c-1-.4-1.3-.9-1.1-1.6.2-.7 0-1.2-.5-1.6 2.2 0 3.8.5 4.9 1.4.8-.9 1.2-1.6 1.2-1.8.5 1.5 1.6 3.1 3.3 4.7 1 1.1 2.4 4.6 4.3 10.4 0 .5.1 1.4.2 2.7.3.5.9 1.1 1.8 1.6 1 1.5 1.4 2.8 1.4 4zm-69.4-21.6l-2.7 2.9-.2-.6 2.4-2.4.5.1zm3.3-2.1l-2.7 2-.2-.8 2.4-1.8.5.6zm32.4 19.6c-1.4-2-2.2-3.6-2.4-4.7-1.8 1.2-4.6 3.5-8.6 6.9.1-.8.7-1.8 1.6-3.1-6.3 7.8-10.8 16.4-13.7 25.9-.5-.8-.9-1.2-1-1.2-1 0-1.9 1.6-2.8 4.9-.9 3.3-1.3 5.6-1.3 6.9 0 2.7.6 6.3 1.8 10.6 5.4-1.5 10.7-5.5 15.7-12s7.5-12.4 7.3-17.7c.5.3 1-.1 1.2-1.2l.6-1.4c-1.1-.4-2.2-.9-3.5-1.4.1-.7.2-1.2.2-1.6 0-1.4-2.2-2.6-6.5-3.7l5.1-.2c.7.3 1.6.9 2.9 1.8.1-.4.3-.9.6-1.4-.8 0-1.3-.1-1.4-.2.7-.7 1-1.2.8-1.6-.5-.4-1.3-.9-2.2-1.6 2-.7 3.4-1.6 4.1-2.7-.4-.5-1-1.2-1.6-1.8.4 0 1 .1 1.6.3.8.1 1.2.2 1.5.2zm-18.1-29.8h-1.2v-.8h1.2v.8zm8.7.2c-1.5.4-4.6 1.4-9.2 3.1h1.8c.9.1 3.4-.9 7.4-3.1zm-6.1-1.2h-1.2v-.8h1.2v.8zm9 43.9h-1v-.9h1v.9zm36.3-33.5h-.8v-1.8h.8v1.8zm.2-22.6c1.9-.8 3.4-1.4 4.5-1.8.1 1.6.2 2.7.2 3.3-2.7 1.1-3.9 1.6-3.5 1.6-.1 0-.5-.2-1-.6l-.2-2.5zm5.3 49.7l.2-.8-.2-2c1.5-3.5 2.9-5.4 4.1-5.5 1 0 1.8.6 2.7 1.8.3.8.7 1.6 1.2 2.2.3-.1.7-.2 1.2-.2 1.4 0 2.1 1 2.2 3.1.1 3.9-1 5.9-3.3 5.9-.1 0-.2-.1-.2-.2l-.3.2c-.7 0-1.6.4-2.7 1.2-3.5-2.6-5.3-4.1-5.3-4.7 0-.2.1-.6.4-1zm4.3 43.9l-2.2 7.5.4.2 2.4-7.8h-.6zm77.9-65.9c-.4-1.6-.4-2.6 0-2.9-1.1-3.9-1.9-6.9-2.4-9-1.9-1.5-3.1-2.3-3.7-2.4-.4 1-.6 1.7-.6 2.2h-.4c-1.1-1.8-2-2.6-2.7-2.4l-2.4 1.4c-.3-.4-.5-.7-.6-.8-2.7-1.6-4.5-2.4-5.3-2.2-.8 0-3.3 2-7.3 5.9-.7 0-1.2-.3-1.6-.8 0 .7-.1 1.2-.4 1.4l-1.2.2c-.3 0-.4-.1-.3-.3.1-.2 0-.3-.3-.3-.7 0-1.4.7-2 2.2v1.8c0 .7-.1 1.2-.4 1.6 1.2-1.8 2.1-3.1 2.7-3.9l.2.4c-5 8.8-9.1 15.6-12.2 20.2-.1-1.8-.1-4.2 0-7.3-.1-.1-.2-.3-.2-.4.4-3.7.4-6.7 0-9.2-.1 0-.2.1-.3.2-.1.1-.2.2-.5.2-.5 0-.8-.8-.6-2.4l.4-2.4c-3-3.3-5.2-4.5-6.7-3.7 2.7 1.4 4 2.4 3.9 3.3 1.1.3 1.7 1.2 1.8 2.7 0 .5-.1 1-.2 1.2-1.4-2.7-2.8-4.3-4.3-4.7 0 .1.1.3.2.6s.2.5.2.6l.6-.2c.7 0 1.4.7 2.2 2l-1.6.8c-2.9-3.1-4.6-4.8-5.1-4.9.3-.4.4-.9.4-1.4-2.3 1.5-4.5 2.4-6.5 2.9-1.5.7-2.6 1.2-3.3 1.4-.1.5-.2 1-.2 1.4-.5 1.1-1.3 1.9-2.2 2.4-1.2-.4-2.2-.7-2.9-.8 0-.1-.2-.1-.6.2.3 0 .4.1.4.4-.7 1.9-1.1 3-1.2 3.3.1-.1.4-.3.9-.4.5-.1.8-.3.9-.4.1.1.1.3 0 .4-1.5 1.9-2.2 3.1-2.2 3.5-1.1.5-1.9 1.1-2.4 1.6l.8-.6c.4.4.7.7.8 1-.1.3-.1.6 0 1 .5-1.5.9-2.4 1.2-2.7.3.5.2 1-.2 1.4.7-.1.9.5.8 1.8.9 4.2 1.5 6.6 1.6 7.1.1.8-.1 2.7-.8 5.7.1-.1.4.1.8.8-1.1 6-1.8 10-2.2 12-1.8 9.5-3.1 15.5-3.9 18-1.5 4.2-2.2 7.5-2.2 10 0 .1-.1.5-.3 1-.2.5-.3 1-.3 1.2 0 .5.1.8.4.8l5.7-17.7-5.8 21.5c.9-3.3 1.7-5.6 2.2-6.9 0 .3-.8 3.2-2.2 8.8 0-.3.3-.5.8-.6l-2.4 6.1c-.1-.8 0-1.9.5-3.3s.6-2.2.5-2.4c-1 3.4-1.5 5.4-1.6 5.9 0-.1.1-.3.2-.4.1.8-.7 4.1-2.4 10l-.4-.6c.1 2.2-.1 3.6-.6 4.3.7-1.1 1.2-1.9 1.6-2.4.1.4.2.7.2.8-.1-1.1.3-2.5 1.2-4.3l.4.6c0-.1.1-.3.2-.6.1.8 0 1.8-.3 2.9-.3 1.1-.5 1.8-.5 2.2.5-1.5 1-2.5 1.2-3.1.4.4.6.7.6.8-.7 1.8-1 3.1-1 3.9 1.6-3.3 2.5-5 2.7-5.3 8.3-21.9 12.4-32.9 12.4-33 2.6-8.3 4.8-16 6.5-23.3 1 1 1.4 1.3 1.4 1-4.8 18-7.2 27.1-7.3 27.5-3.3 12.2-6.8 22-10.6 29.4.4-.3.6-.2.6.2v1.2c.5-1.8 1.3-3.3 2.2-4.5.3.1.3.3.2.4-1 2.9-1.8 4.6-2.4 5.3-1.9 3.8-3.1 6.8-3.7 9 .8-1.6 1.4-2.8 1.8-3.5.1 0 .1.1 0 .4 0 .1.1.2.4.2.3-.1 1.5-2.6 3.7-7.3 3.4-7.3 5.2-11.1 5.3-11.4.1.1.2.4.2.8.1 1-1.4 5-4.7 12 .8-1.1 1.6-2 2.2-2.9.1-.4.3-.5.4-.4.4-.3.7-.3 1 0-1.2 3.1-2 5.6-2.4 7.3 1.5-2.6 3.1-6.1 4.9-10.4l-.6.6c0-.4.4-1.5 1.2-3.3.3.3.4.5.4.6.3-2.2.6-3.7 1-4.7.4.4.5.7.2 1 3.1-6 4.7-10.5 4.7-13.5 1.4-2.2 2-3.8 2-4.9 0-.4-.2-.7-.6-1 .5-.4.9-.7 1-.8.1-1.2.4-2 .8-2.2l-.2-1.4c-.3-.5-.2-1.2.2-1.8l.6.4c.5-1.5 1-2.6 1.2-3.3-.5.7-1 1.1-1.4 1.2 0-1.6.4-2.7 1.2-3.1.3.4.4.8.4 1.2 2.6-9.4 4.6-14.6 5.9-15.5l.6.6c.3-.3.7-.4 1.4-.4.1-1.1.5-2.2 1-3.3.3.1.3.3.2.4-.3 1.6-.7 3.1-1.2 4.3-.3-.3-.3-.4-.2-.4.4.4.6.8.6 1.2 0 .4-.2 1.2-.7 2.3-.5 1.2-.6 2-.3 2.6 1.4-2.7 2.2-4.2 2.4-4.5l.4.4c-.1 1.6-.2 2.9-.2 3.7 1.2-2.6 2.2-4.2 2.9-4.9l.4.4c-.3.8-.3 1.8-.2 2.9.9-1.2 1.6-2.2 2-3.1.7 1 1.4 1.4 2 1.4.5-.9.9-1.7 1-2.2.3.3.3 1.2.2 2.7 2-3.9 3.3-6.3 3.7-6.9.1.1.3.5.4 1 1.8-3.1 2.8-5 3.1-5.5.1.3.2 1 .2 2.2l.6-.6c.3.3.5.4.8.4.3 0 1.6-1.9 3.9-5.7 2.3-3.8 3.6-5.7 3.9-5.7h1.2l.4-1.6c0-1.1.3-1.6 1-1.6.4 0 1.2.2 2.4.7 1.2.5 2 .7 2.4.7.3 0 .6-.3 1-.8-.1-.8-.1-1.3.2-1.4.8 1.1 1.2 2 1.2 2.7.1-1.6.3-2.9.6-3.7.4 1 .7 1.7.8 2.2l-.6.8h1.6c-.1-2.9-.1-4.6.2-5.3.8-1.5 1.3-2.4 1.4-2.7.1-1.5-.1-2.4-.1-2.7zm-78.5 88.9l-.4 1.2.4.2.4-1.4h-.4zm2-3.2l-.4 1h.4l.4-.8-.4-.2zm2.3-3.7l-.4-.2 2.2-7.5h.4l-2.2 7.7zm.8 14.7l-.8 1.6.6.2.6-1.6-.4-.2zm.4-106.1c1.5-1.2 2.7-1.8 3.7-1.8 1.2-.1 1.9.7 2 2.4.1 2.4-.5 3.7-2 3.9.5 0-.7-.7-3.7-2.2v-2.3zm1.4 104.7l-1.4 3.3h.8l1.2-3.3h-.6zm-.2-21.9v-.8h.6v.8h-.6zm1-14.8h-.6l.4-2h.6l-.4 2zm.6-2.1h-.4l.8-5.1h.6l-1 5.1zm.9 34.3l-.8.8.4.4.8-.8-.4-.4zm.2-91.2h-.6v1h.6v-1zm1.2-4.9c-.5.5-1 1.4-1.4 2.4.3-.9.7-1.6 1.4-1.8l.8.4c-.4-.5-.7-.9-.8-1zm.8 12.4l-.8 1.2.6.4.6-1.4-.4-.2zm.2 16.2h-.6v1h.6v-1zm-.2-20.8v-1h.6v1h-.6zm1 16.9h-.6l.2 1h.6l-.2-1zm.8-19.6l-.4-.2.4-.8.4.2-.4.8zm-.2-2c.4-1.2.9-2 1.6-2.2l.2 1.8c-.3-.3-.9-.2-1.8.4zm.5 4l-.4-.2.4-.8h.2l-.2 1zm.4 49.4l-.4-.2.4-1 .6.2-.6 1zm3.6 10l-.4-.2.4-2h.6l-.6 2.2zm2.5-66.7c-.1-1.4 1-2.1 3.5-2.2.9 0 1.8.5 2.4 1.4l-5.9.8zm.6 77.3v-.8l.6-.2v.8l-.6.2zm1-1.4l-.4-.2 1-3.1h.4l-1 3.3zm1.6-6.1v-.8h.6v.8h-.6zm.4-1.1l-.2-.8h.6l.2.8h-.6zm.5-1.6v-1.2l.6-.2v1.2l-.6.2zm.6-1.8l-.2-1.2h.6l.2 1.2h-.6zm.4-72.4c0-.4.4-.9 1.3-1.4.9-.5 1.5-.8 1.9-.8.3 0 .5.1.7.3.2.2.4.3.5.3.5-1 1.6-1.4 3.1-1.4 3.3-.1 5 1.1 5.1 3.7.1.5 0 1.9-.4 4.1l-12.2-4.8zm.6 36.1h-.6l.2-2.7h.6l-.2 2.7zm-.4 34v-1h.4v1h-.4zm1-33.8h-.6l.4-2.9h.6l-.4 2.9zm3.7 20l-.4-.2.2-.8.6.2-.4.8zm.4-1.5h-.4l.4-1.8h.6l-.6 1.8zm.6-3.6l-.4-.2.6-1.4h.6l-.8 1.6zm1-1.9l-.4.2v-1.8l.6-.2-.2 1.8zm.4-28.9l-.6-.2.4-1h.6l-.4 1.2zm0 3.2v-1.2h.6v1.2h-.6zm.8-2h-.4v-2.2h.6l-.2 2.2zm2.3 21.8l-.4 1.8.4.2.6-1.8-.6-.2zm3-27.1h-.6l.2.8h.6l-.2-.8zm7.4-7.2l-.4 1 .4.2.4-1.2h-.4zm10.6 28l-1.2 1 .4.4 1.2-1.2-.4-.2zm3.1-4.1l-.4-.2.4-.8h.4l-.4 1zm1.6-39.2c-.4.5-.9.8-1.4.8 1.8-.1 2.7.3 2.7 1.4-.1-1.1-.5-1.9-1.3-2.2zm11 32.3c0-.4-.1-.7-.4-.8 0 1.1-.1 1.7-.4 1.8h.6c.1-.4.2-.8.2-1zm1.2-10.4l-.4-2h.6l.4 1.8-.6.2zm2.1 1c.5 2 .9 3.2 1 3.5-1.2-2-1.9-3.2-2-3.5 0-.3.1-.6.2-1s.2-.7.2-.8c.5.4 1 .6 1.2.6 0 .1-.2.5-.6 1.2zm3.4 4.7h-.4v1.2h.4v-1.2zm137.3 25.1c-2-.3-3.8.2-5.3 1.4-.3.5-.7 1.2-1.4 1.8-1.2 1.1-2.5 2.1-3.9 3.1-1.6 1.5-2.4 2.9-2.2 4.1-1.8 1.8-5.7 5.2-11.8 10.2-.1.1-.1.3.2.6 1.9-.8 3.3-1.7 4.3-2.7l1.4 1.4c0 .5-.1.7-.2.6l.8.2c1.5 0 3.6-1.2 6.3-3.7l-3.7 3.1c.1.1.6.3 1.4.4 1.2 0 3.5-.9 6.7-2.7l-.2 1.4c-.7 1-1.7 2.1-3.1 3.5-1.5.4-3.3 1.6-5.3 3.7.5.3 1.4.1 2.7-.4-.4.4-1.1.9-1.9 1.5-.9.6-1.5 1.1-1.9 1.5l1 1.2c-1.9-.3-2.9.2-2.9 1.4v1.4c-.3 0-1.2.4-2.9 1.2 0 .4.5.6 1.4.6-3 1.9-6.2 3.9-9.6 5.9l-1.2 1.2c0 .3.1.8.4 1.6.1.5.1 1.1-.2 1.6l-5.7 4.1c-2.4 1.9-4.4 2.9-5.9 2.9-3.4-.1-5.1.5-5.1 2l-5.5-.2c-.4.1-.7 0-.8-.3-.1-.3-.3-.6-.6-.7-.5 0-3.1.7-7.8 2-2.9.8-5.9 1.2-9.2 1-7.9-.4-15.4-2.9-22.4-7.3-.1-.3-.4-.7-.8-1.2-2.6-1.4-3.7-2-3.3-2-.5 0-.9.1-1 .2l.4-.4v-.2h-.5l-1-1c-.7-.8-1.4-1.2-2-1 .3.5.8 1.4 1.6 2.7-1.1-1.1-2.5-2.8-4.3-5.1 0-.7-.1-1.6-.4-2.9-1.1-2.3-2.5-6-4.3-11-.7.1-1 .5-1 1 0 .8.1 1.2.2 1 0-.5-.3-1.1-.8-1.6l-.6.6c-.8 4.8-2.9 12.2-6.1 22.4.3.4-.3.6-1.8.6-.3 0-.7-.3-1.4-.8s-1.3-.8-1.8-.8c0-.4.3-.9.8-1.4-.1-.3-.9-.7-2.2-1.4-1.4 1.8-3.6 4.7-6.7 8.8l-1.4-1.6c.9-1.2 1.4-2 1.4-2.2 0-.5-.5-1.4-1.4-2.7-.5.3-1.7 1.7-3.5 4.3-.8-1.2-1.8-2.7-2.9-4.5-.1.1-1.6 1.2-4.5 3.3-1.2-2.4-1.8-4.1-1.8-5.1.1-1 .6-1.8 1.4-2.4-.1-.3-.4-.6-.8-1h-1c-.4 0-.6.2-.6.6v-1.4c.8-.5 1.6-1.5 2.4-2.9 1.2-3.5 2.2-9.2 3.1-17.1.3-.4.5-1.2.8-2.4.1-.3.2-1.6.2-3.9 0-2.2-.1-3.7-.4-4.7l1.8-1.4 5.3-46.7c2.3-20.3 4.6-35.7 6.9-46.3.5-2.2 2.2-7.1 4.9-14.7.3-3.1.3-.9.2 6.7l-.8 12.6c.5 0 1-.3 1.4-1 .8-5 2.7-12 5.5-21 .9.4 2.1 1.4 3.5 2.9.5-.4 1.6-.5 3.3-.4.1 0 .4.1.8.2s.7.2 1 .2c.4 0 .6-.1.6-.4 0-.3.2-.3.6-.2.3 0 .5.1.8.4.3.3.6.4 1 .4 1.4.1 2.2-.6 2.4-2.2l2.2 4.9c-.1 3.4-.1 5.3.2 5.7.1 1.4 0 3.7-.4 6.9.3 1 .5 2.1.8 3.5l-8.2 64.7c-.3 2.6.8 5.2 3.3 7.8.3.7 1.3 2.3 3.1 4.9 9.5-7.6 19.2-20.1 29-37.3.5.5 1.5 1.3 2.9 2.2-.5 2-1.2 3.7-1.8 4.9l-.2 1.4c.8.1 1.6-.3 2.4-1.4l1.6-2.7c.3.3.5.4.8.4-.1 2.2-.3 3.5-.4 3.9 1.1-.8 1.9-1.8 2.4-2.9l-7.5 15.1c-2.6 5.3-5.6 9.9-9.2 13.9-.4.4-1.7 1.8-4 4.2-2.2 2.4-3.4 3.7-3.4 4 0-.4.6.7 1.8 3.3-.5-.5-1.3-1.4-2.2-2.4-.7.3-1.4 1.2-2.2 2.9l.8.4c.4.1-.3.2-2 .2-.7.3-.9.5-.6.8-.8.3-1.9 1.3-3.3 3.1 1.8 1.9 4.5 3.3 8.2 4.3 8.2 2.2 12 3.3 11.4 3.3h6.1l5.9-.2.6.8c4.5.3 14.9-4.8 31.2-15.1-2.2 1.6-6.5 4.5-12.9 8.6 0 1 .5 1.4 1.4 1.4l14.5-8c9.4-5.3 15-7.9 16.9-7.8.3 0 .4.1.4.2s.2.2.6.2c.5.1 1.7-.1 3.4-.7s2.9-.9 3.6-.9c.5-.1 1.7.3 3.7 1zm-121.4-89.8h-.8l-1 5.7h.6l1.2-5.7zm11.7 120.4h-.8v-1h.8v1zm2 .2l-.4-2-.8-.2.4 2 .8.2zm5.1-43.3l-2 1.6-.4-.4 2-1.6.4.4zm8.6 20.6l-.4-.4-2.9 2.4.4.6 2.9-2.6zm-2.3-97.5h-.8v-1h.8v1zm.6 80.8l-.6-.2-.4-1.4.6-.2.4 1.8zm6.6 11.4l-.4-.2-4.1 4.1.4.4 4.1-4.3zm-2.3 42.7l-2-1-.2.6 2 1 .2-.6zm4.3-36.1h-1.2v-.8h1.2v.8zm3.9-46.6l-3.3 4.7-.6-.4 3.3-4.9.6.6zm-1.6 46.8l-.2.6-1.4-.6v-.6l1.6.6zm16.9 43.4c-4.9-.7-8-1.2-9.4-1.4-3.5-.8-6.3-2-8.4-3.5h1.4c1.8.1 4.3.8 7.5 2 3.3 1.2 5.8 1.9 7.5 2 1 .1 1.4.4 1.4.9zm-14.9-42.4l-.2.6-1.4-.6v-.6l1.6.6zm4.7-46.3l-1.2 1.6-.4-.6 1-1.4.6.4zm1-3.5l-.8 1.6-.6-.2.8-1.4h.6zm0 28.4l-.4-.4-1 1.4.4.4 1-1.4zm17.6-20.9c-1.6 3.1-4.2 7.8-7.8 13.9-2.3 2.9-5.6 7.1-10 12.9l17.8-26.8zm-9.6 9.2h-.6l-1.8 3.9.4.4 2-4.3zm53 31l-.2-.6-2.7 1.2v.6l2.9-1.2zm17.8-8.5l-1.2-.2v-.6l1.2.2v.6zm15.7-51.4c-1.5.7-3.1 1.8-4.7 3.3-.1-.3-.4-.4-.8-.4-1.6 0-2.8 1.6-3.5 4.7 2.9-1.5 4.8-2.9 5.9-4.1-.7.5-1 1.1-1 1.6 0 .4.3.8.8 1.2-.4.1-2.8 1.3-7.1 3.5l.2.4-1-.2-.6.6c1.5.4 2.7.6 3.7.6-.3.1-.9.6-1.8 1.4-.7-.3-1.7 0-3.1.9-1.4.9-2 1.7-1.8 2.3-.1.1-1.2 1-3.1 2.4-.1.3-.1.4.2.4-.1 0-.4.1-.8.2s-.7.2-.8.2c.1 0 .4-.1.8-.4-1.4-.3-2.7 0-3.9.8l-1.8 1.2h-1.2c-.1.1-.2.3-.2.4 0 .3.1.5.4.8-.1-.1-.3-.1-.6.2-.3.3-.5.4-.8.4-.3 0-.3-.1 0-.4.1-.3 0-.4-.4-.4-.8 0-2.9.8-6.1 2.4l-4.9 2.4-3.3 1c-1.4.7-2.2 1-2.4 1l-.8.6c-2.3.5-3.5 1.4-3.5 2.4 0 1.1.8 2.4 2.4 4.1.1 1 .5 2.4 1.2 4.3 2.2.3 3.4.4 3.7.4.3 0 .4-.1.4-.2s.1-.2.4-.2c.3 0 .6.2.9.5.3.3.6.5.9.5 1.1 0 2.6.2 4.6.6 2 .4 3.4.6 4.4.6 1.9.1 3.5.5 4.9 1l.8-.8c2.2.5 5.6 2.2 10.2 5.1l-.4.2c.3.8 1 1.9 2.2 3.3h1c.4 0 .5-.1.4-.2l2.4 2.7c-.1.1-.2.4-.3.7-.1.3-.2.6-.3.7 4.5 3 6.7 4.8 6.7 5.5 0 .5-.1 1.4-.3 2.6-.2 1.2-.3 2-.3 2.5 0 .8.1 1.8.2 2.9-.4-.3-.8-.4-1-.4.3-.7.4-1.4.4-2.2 0-.8-.1-1.8-.4-2.9-1 5.6-1.8 9.7-2.4 12.2-1.4 4.9-3.3 9-5.9 12.2-.1.3-.5.8-1 1.6l.4-.6-.6-.6c-.4.5-1 1.2-1.8 2 .1.1.3.3.6.4l1-.6c-.1.7-.5 1.5-1.2 2.4-1.1.5-2.7 1.5-4.7 2.9-.5-1.2-1.2-1.8-1.8-1.8-.1.1-1.2.5-3.1 1-.3.4-.1.6.4.6-.7 1.4-1.6 2-2.7 2-.3 0-.4-.1-.4-.2s-.1-.2-.4-.2c-.3 0-.6.2-1.1.5-.5.3-.9.5-1.1.5-.1-.3-.4-.6-.8-1-.1.1-.3.3-.6.5s-.5.4-.6.5c.7 0 1.2.1 1.4.4-.4 0-1.1-.1-1.9-.2-.9-.1-1.5-.2-1.9-.2.4 0 .7-.1 1-.4-.4-.4-.7-.6-.8-.6-.5 0-1 .2-1.4.6l1 1.2c-.3-.3-.5-.4-.8-.4l-.4.6c.4.4.7.6 1 .6-4.1 1.4-5.6 2-4.7 2l-1.2-.4c-.3 0-.9.4-1.9 1.1-1 .7-1.7 1.1-1.9 1.1-.7 0-1.7.1-3.1.2-1.4.1-2.4.2-3.1.2-.3 0-.8-.4-1.6-1.2-.1.3-.1.6.2 1-1.2.4-2.9.9-5.1 1.4-9.8 1.2-16.7 1.8-20.8 1.8h-2c-.8 0-2.4-.5-4.9-1.4-.1 0-.3-.1-.6-.2h-1c-.4 0-.5.1-.4.3.1.2.1.3-.2.3-.3 0-.6-.1-1-.4-.4-.1-.9-.1-1.4 0 .7.7 1.3 1 1.8 1h-.8c-.7.1-1.2.2-1.4.2-.3 0-.6-.2-1.1-.7-.5-.5-.9-.7-1.3-.7-.7 0-1 .3-1 1l-1.4-.6c-1-.4-1.4-.7-1.4-1 0-.1.1-.3.2-.4-.1-.3-.5-.4-1.2-.4h-.8c-.1.1-.3.2-.6.2.4 0-2-.7-7.3-2.2-1.6-.5-8.6-1.8-20.8-3.7.4 0 .6-.3.6-.8 3.8 1.4 6.7 2 8.6 2 .7 0 1.2-.1 1.4-.4-2.6-1.1-4.4-1.6-5.3-1.6-.3 0-.4.1-.5.2-.1.1-.2.2-.5.2-.1-.3-.6-.6-1.4-1-2-1.1-3.9-1.6-5.7-1.6 0-.3.1-.5.2-.8-1.4-1.1-3.2-2.7-5.5-4.9-.1-.4 0-1.4.4-3.1-.3-.1-.6-.6-1-1.4h1.2c-.1 0 0 .2.4.6l.6-.6c-.4-.1-1.6-.8-3.5-2-.1-.4-.5-1-1.2-1.8.4-.9 1.2-1.7 2.2-2.2 0-.4-.5-.6-1.4-.6.4-.8 1.4-1.4 2.9-1.6-.1-1.4 0-2.2.4-2.4 1.6.4 4.2.9 7.8 1.4l.6.6c.4 0 1.1.3 2 .8.3-.3.4-.7.4-1.2 2.3 1.2 4 1.8 5.1 1.8.7 0 1-.5 1-1.4.1.3.4.4.8.4.5 0 .8-.3.8-.8.7.4 1.6.9 2.7 1.4 4.1.8 7 1.2 8.8 1.2.3 0 .5-.1.6-.4.1-.3.3-.4.6-.4s.5.2.7.7c.2.5.4.7.7.7.8 0 2 .2 3.6.5s2.8.5 3.6.5c5.4 0 11.2-.2 17.1-.6-.1-.1-.5-.2-1-.2 2.6-.3 6.1-.7 10.4-1.4 9-.3 18.9-1.8 29.8-4.5.5-.4.8-.7.8-.8 1.4-.1 2.8-.7 4.3-1.8 0-.8-.3-1.2-.8-1.2h-.8l1.2-.6c-.3-.3-.8-.4-1.4-.4.8-.1 2.9-1.2 6.1-3.1l-8-1.8c1.6.5 2.9.8 3.9.8h5.1v-1.4c-4.5-.5-9.6-1.5-15.3-2.9l-1.2.2c.7.7 1 1.1 1 1.2-1.4-.5-2.5-.8-3.5-.8.1 0 .3-.1.6-.4-.3-.4-.8-.6-1.6-.6-.7 0-1.2.1-1.6.4-.3.1-.1.7.4 1.6-.7-.1-2.8-1.4-6.3-3.9-.4.4-.5.7-.2 1-.7-.4-1.4-.6-2-.6-1.4 0-2.2 1.3-2.7 3.9-.8-.4-1.6-.6-2.4-.6-.3 0-.7.1-1.3.2-.6.1-1.1.2-1.3.2-.3.3-.2.8.2 1.6-1.6-.1-2.9.1-3.9.8.3-.8.1-1.8-.6-2.9-.8.1-1.7 1.4-2.7 3.9.1-.9.1-1.6-.2-2h-1c-.1.4-.2.8-.2 1.2 0 .4.1.8.2 1.2-.5-.1-1.2 0-1.8.4-.1-.7-.4-1.6-.8-2.7-.5.7-1.4 1.3-2.7 1.8.3-.5.8-1.1 1.6-1.6.1-1.1.4-2.2.8-3.5l-.2-1.6c-.3.3-.4.5-.4.8 0 .1.1.3.2.4-.3.1-.6.4-1 .8-.7-.5-1-1.2-.8-2 .1-1.1.1-2 0-2.7-1.9.8-2.7 2.7-2.4 5.5 0-.1-.1-.3-.3-.4-.2-.1-.3-.3-.3-.6 0-.8.9-2.9 2.9-6.1l-.2-1.6c-.4 0-.8.5-1.2 1.6-.1-.3-.5-.7-1.2-1.4-1 .4-1.4 1.1-1.4 2-.4-.4-.7-.6-1-.6h-.6c-.1.1-.3.2-.4.2 1.8-2.2 2.7-3.7 2.7-4.5 0-.4-.1-.7-.3-.8-.2-.1-.3-.3-.3-.6h-.8c-1.1 0-2 .7-2.7 2-.1 0-.4-.1-.9-.4-.5-.3-.9-.4-1.1-.4.4-3.8 4.2-12.4 11.4-25.9 2.7-2.9 5.9-7 9.6-12.4v1.4c1.5-1.5 3.7-3.5 6.5-5.9 2.2-1.4 3.6-2.3 4.3-2.9 1.9-1.5 2.9-2.7 3.1-3.7 2 0 5.8-1.6 11.4-4.7l8-4.5c3.9-1.4 6.2-2.7 6.7-4.1.1.1.4.2.8.2.7 0 2.2-.7 4.5-2.2-.4-.4-.8-.6-1-.6l.8-1c.1 0 .2.2.3.7.1.5.3.7.7.7s.8-.2 1.2-.6c-.3 0 .1.5 1 1.4.7-.3 1.7-.7 3.1-1.4v2.4c-.5-.1-1-.1-1.2 0v.6l-.6-.2c-.4-.1-.7-.2-.8-.2l-.2 2c2 0 3.3-.8 3.7-2.4 3.4-1.6 5.5-2.2 6.3-1.8 0 .3-.2.7-.6 1.2.1.1.4.2.8.2.3-.7.4-1.6.4-2.7l1.8 1.2c.3 1.4.4 2.2.4 2.7 0 .1-.2.5-.7 1.1-.5.6-.7 1.1-.7 1.5 0 .3.2.9.6 1.8.1-.3.2-.7.2-1.4.1 0 .3-.1.6-.4.3-.3.6-.4 1-.4.3 0 .3.1.2.4-.1.3-.1.4.2.4.4 0 .8-.1 1.1-.4.3-.3.6-.4.7-.4 0 .3-.1.7-.2 1.4v1.2c.8 1 1.2 1.8 1.2 2.4-.1.4-.7 2.4-1.6 6.1 0-.8.1-1.3.4-1.4v-1.2c-.1-.3-.3-.4-.6-.4l-1 3.1c.1.1.5.2 1 .2s1-.3 1.4-1c-.5.9-.3 1.1-.1 1.1zm-134.7 85.8h-1v-.6h1v.6zm6.6 10.9l-1.8-.4v-.6l1.8.4v.6zm13.8 1v-.6h-1.2v.6h1.2zm.4-3.3v-.6h-1v.6h1zm1.1 1.4v-.6h-.9v.6h.9zm1.4.4v-.6h-1.2v.6h1.2zm-.2 2.3v-.6h-1v.6h1zm.2-3.3v-.6h-.8v.6h.8zm1.8.4v-.6h-1.2v.6h1.2zm1.9 1.5v-.6l-2.4-.4v.6l2.4.4zm-.5-7.4v-.6h-.8v.6h.8zm.9 6.1v-.6h-1.6v.6h1.6zm.2 3.7v-.6l-1.8-.4v.6l1.8.4zm1.8-1.8v-.6l-2.2-.4v.6l2.2.4zm1.2-7.2v-.6h-1v.6h1zm1 7.2v-.6h-1.4v.6h1.4zm1.5-6.8v-.6h-2v.6h2zm.4 7.2v-.6h-1v.6h1zm0 2v-.6h-1v.6h1zm1.4 0v-.6h-1v.6h1zm5.7-2.4v-.6l-5.9-.4v.6l5.9.4zm-.4 1v-.6l-5.5-.2v.6l5.5.2zm-3.3 1.8v-.6h-2v.6h2zm4.7.8v-.6l-3.9-.8v.6l3.9.8zm1.1-.4v-.6h-.8v.6h.8zm1.2 3.1l-1.6-.8-.2.6 1.6.8.2-.6zm1.8-5.9v-.6h-1.8v.6h1.8zm2.5-4.1v-.6h-3.1v.6h3.1zm0 7.3v-.6h-2.4v.6h2.4zm38.9.7c-.5 0-1.4-.1-2.5-.2-1.2-.1-2-.2-2.6-.2-.3 0-.5.2-.8.5-.3.3-.5.5-.8.5-.3 0-.5-.1-.8-.3-.3-.2-.5-.3-.6-.3-1.6 0-3.2.3-4.7 1l-.8-.8c-1.1.1-2.7.5-4.9 1.2.3-.3.4-.5.4-.8h-2.4c0 .3-.1.5-.2.8-.4-.4-.8-.6-1.2-.6.4.4.5.7.4.8-1.1-.3-2-.4-2.9-.4.7 0 .8.1.4.4h-1c-.4-.4-1.2-.6-2.4-.6h-5.1c-.4.1-1.8.2-4.3.2h-2.9c.5 0 1.4.3 2.6.9 1.2.6 1.9.9 2.1.9.3 0 .7-.1 1.2-.3.5-.2.9-.3 1.2-.3.3 0 .3.1 0 .4-.1.1-.1.2.2.2.5 0 1.3-.1 2.2-.3.9-.2 1.6-.3 2-.3.5.4.9.6 1 .6 3.4 0 5.8-.1 7.1-.4 0-.7.1-1.1.2-1.2.1 0 .2.2.2.5s.2.5.6.5c.5 0 .7-.1.6-.4l.6.8c2.9 0 5.6-.4 8.2-1.2-.3.3-.1.4.6.4 1.2 0 2.6-.4 4.1-1.2 0 .3.5-.1 1.4-1l.2.6c.1.4.4.6.8.6.3 0 .7-.2 1.3-.5.8-.4 1.2-.5 1.3-.5zm-37.5-3.9v-.6h-2v.6h2zm.8 3l-1.4-.4v.4l1.2.4.2-.4zm2.5-23.2h-1v-.6h1v.6zm.2-46.7l-.6 1.4-.4-.2.4-1.2h.6zm1-2.9l-.8 2.4-.6-.2.8-2.2h.6zm0 20.8v-1h-.6v1h.6zm2 52.2v-.6h-2v.6h2zm0-50.3l-.2-.6-.8.4v.6l1-.4zm5.9 47.5v-.6h-5.1v.6h5.1zm-3.8 2.8v-.6h-1v.6h1zm1.4 0v-.6h-1v.6h1zm1.8-22v-.6h-2.4v.6h2.4zm0 22v-.6h-1v.6h1zm3.9-22v-.6l-3.5-.2v.6l3.5.2zm-1.4 22v-.6h-2v.6h2zm-1 1.1v-.6h-1v.6h1zm.8 5.9l-.2.6-1-.6.2-.4 1 .4zm2.4-.8h-2v-.8h2v.8zm-.8-6.2v-.6h-.8v.6h.8zm1.6-90.7l-1.2 1.2-.4-.4 1.2-1.2.4.4zm1.1 91.8v-.6h-2.4v.6h2.4zm-.5-1.1v-.6h-1.6v.6h1.6zm3.5-3.2v-.6h-1.2v.6h1.2zm1.2 9.4c-.8 0-1.4.1-1.6.4l.8-1c.2.1.4.3.8.6zm-.6-10.6l-.6-.4-.2.4.4.4.4-.4zm8.8 9.1c-1.9.4-3.7.6-5.3.6 2.6-.8 3.7-1.2 3.3-1.2.6 0 1.3.2 2 .6zm-2.4-4.4v-.6h-1.4v.6h1.4zm.4-1.1v-.6h-1.4v.6h1.4zm1-3.8v-.7h-1.4v.6h1.4zm5.1 8.5h-1.8v-.6h1.8v.6zm1.4-.6h-1.4v-.6h1.4v.6zm2.9-3.3h-2.7c.9 0 1.7.3 2.2.8.1-.1.2-.3.5-.8zm3.4 1.1v-.6h-.8v.6h.8zm2.3-2.5v-.6h-1v.6h1zm.6-1.2v-.6h-1.2v.6h1.2zm.2 1.8l-.2-.6-1.2.4v.6l1.4-.4zm1.2-2v-.6h-1.2v.6h1.2zm.8-35.9h-1v-.6h1v.6zm3.3 5.5l-1 .4v-.4l.8-.4.2.4zm1.4 32.6l-1.2.8-.2-.4 1.2-.8.2.4zm2.1-3.6v-.6h-1.2v.6h1.2zm2.8 1.4h-.8v-.6h.8v.6zm3.7-9.4v-.6h-1v.6h1zm0 5.9l-.2-.4-.8.4v.4l1-.4zm2.6-7.1l-.2-.4-2.2.6v.6l2.4-.8zm-1 13.2l-1.2.4v-.4l1-.4.2.4zm7.4-53.4c-.5-1.1-3.2-2.3-8-3.7-.1.1-.2.7-.2 1.8 3 .3 5.7.9 8.2 1.9zm-7.2 42.4v-.6h-1v.6h1zm8 .4c-1.6.1-2.9 1.2-3.9 3.1-.1-.3-.4-.4-.8-.4 0 .3.1.7.4 1.2 2-.9 3.5-2.2 4.3-3.9zm1.8-74l-4.3 1.8v-.4l4.1-2 .2.6zm-1.8 32.2l-2-.8v.6l1.8.6.2-.4zm.8 2.9l-1.2-1.8-.4.4 1.2 1.6.4-.2zm-.6 46.5h-.8v-.6h.8v.6zm3.3-46.5c-1.2.7-1.8 1.2-1.6 1.6.5.5 1 .8 1.2.8 0-.3.1-.7.2-1.2s.2-1 .2-1.2zm-.7-35.3h-1v-.6h1v.6zm1.5 72.2l-1.6 1.6-.2-.4 1.6-1.6.2.4zm0-95.1l-.2-.4-1.2.8.2.4 1.2-.8zm0 20.2l-1 .8-.4-.6 1.2-.8.2.6zm1.4-5.7h-1.4l-.6.8c.8 0 1.5-.2 2-.8zm.4 46.1c-.5-.4-1.2-1.1-2-2 .1.3.2.5.2.8 0 .4-.1.7-.4 1 1.1 1.1 1.6 1.6 1.6 1.4 0-.5.2-.9.6-1.2zm2-63.6c-.7-.1-1.4-.5-2.2-1.2-.3-.3-.5-.4-.6-.4v1.2c-.1.5-.2.9-.2 1 .1-.1.3-.3.4-.6.1-.3.3-.5.4-.6.3.8.1 1.6-.4 2.2l-.8 1c1.9-.2 3-1.1 3.4-2.6zm-1.8 20h-1.2v-.6h1.2v.6zm1.6-.9l-1 .6v-.6l.8-.4.2.4zm.4 76.1h-.6l-.4-.8.6-.2.4 1zm1.1-92.2l-.4-.4-.8.8.4.4.8-.8zm.4 7.2v-1.2h-.6v1.2h.6zm2-5.5v-4.1c-.3-.3-.7-.4-1.4-.4 0 .3-.1.6-.4 1-.3.4-.4.8-.4 1.2l.6.6v2.9c.4-.3.9-.7 1.6-1.2zm-.6 2l-.2-.6-1.2.4v.6l1.4-.4zm.4 72.4h-.6v-1h.6v1zm2.3-96.3l-.8.8h-1.8v-2.4l1.4-1.4c.2.1.6 1.1 1.2 3zm-1.3 97.3h-.6l-.4-.8.6-.2.4 1zm16.8-86c0 1-.7 2.2-2 3.7l-2.4 2c-.3-.3-.9-1.1-1.8-2.4-.4.3-1.4.1-3.1-.6.8-.5 1.3-1.1 1.4-1.6-2.4-.7-4.2-2.8-5.1-6.3l-1.4 1.4-2.4-2.4c1.1-1.8 1.9-2.7 2.4-2.7l.6.8c.1-.8.5-1.9 1-3.3 1.6-2.4 3.7-3.7 6.1-3.7.3 0 .9.2 2 .6 1.1.4 1.9.6 2.4.6.1.5.1 1.2-.2 1.8 1.6 1.6 2.4 2.9 2.4 3.9 0 .5-.8 2.2-2.4 5.1 1.6.9 2.5 2 2.5 3.1zm-14.3 90.9l-.4 1.4-.4-.2.4-1.2h.4zm30.2-81.2c-1.9 1.4-4.8 3.3-8.8 5.7-1.1 1-2.6 2.2-4.5 3.9-.1 0-.4-.1-.8-.4 2-3.1 6.7-6.2 14.1-9.2zm1.4-5.3c0 .3-.1.6-.2 1s-.2.7-.2 1c-.7-.1-1.4 0-2 .4-.5-.7-.8-1.1-.8-1.2 0-.3.1-.8.4-1.5.3-.7.4-1.3.4-1.5.5-.1 1.4-.1 2.4 0v1.8z" opacity=".05" fill="#6E7171"/></svg>