<svg xmlns="http://www.w3.org/2000/svg" width="26" height="22" viewBox="0 0 26 22"><path fill="#E6EFEF" d="M25 17.4c-2 4.2-7.7 4.6-11.8 4.6s-10.1-.4-12.2-4.6c-.8-1.6-1-3.4-1-5.2 0-2.2.6-4.4 2.1-6.1-.3-.9-.4-1.8-.4-2.7 0-1.2.3-2.3.8-3.4 2.5 0 4 1.1 5.9 2.5 1.6-.3 3.2-.5 4.8-.5 1.5 0 3 .2 4.4.5 1.9-1.5 3.5-2.5 5.9-2.5.5 1.1.8 2.2.8 3.4 0 .9-.1 1.8-.4 2.6 1.5 1.8 2.1 4 2.1 6.2 0 1.8-.2 3.6-1 5.2zm-6.5-6.9c-1 0-2 .2-3 .3-.9.2-1.7.2-2.5.2s-1.6 0-2.5-.2c-1-.1-2-.3-3-.3-2.5 0-4 2.1-4 4.5 0 4.8 4.4 5.5 8.2 5.5h2.6c3.8 0 8.2-.7 8.2-5.5 0-2.4-1.5-4.5-4-4.5zm-10.5 7.5c-1.4 0-2-1.9-2-3s.6-3 2-3 2 1.9 2 3-.6 3-2 3zm10 0c-1.4 0-2-1.9-2-3s.6-3 2-3 2 1.9 2 3-.6 3-2 3z"/></svg>