<svg xmlns="http://www.w3.org/2000/svg" width="1175.5" height="314" viewBox="0 0 1175.5 314"><path opacity=".2" fill="#FEFEFE" enable-background="new" d="M188.3 83.1c0-1.6-1.9 6.6-5.7 24.5-.2.2-.8.9-1.7 2l.3.7c-.5.5-.9 1.6-1.3 3.4-3.7 6.7-15.8 15.8-15.8 24.2-14.5 11.6-45.6 37.2-65.8 34.1l-1.6-1c-3.5.4-7 1-10.4 1.7.2-.9.3-.8.3.3-1.4 18.6-9.9 34.9-12.7 52.9-5.4 12.5-7.9 18.3-7.7 17.4-.7 4-.2 7.7 1.4 11.1-.5.2-.7.6-.7 1 .6 2 .6 4 0 6 .4.9 1 2.1 1.7 3.7.2.4.1 1.2-.3 2.3.7.7 1.6 1.2 2.7 1.7 3.2-3.6 2.9-8-1-13.4-.2-.2-.7-.9-1.3-2 0-.4.6-.9 1.7-1.3l-.3-.7-1-1c-.2.2-.3.5-.3.7.4-4.7 2.3-10.8 5.7-18.4 0 13.8-5.4 20.3 0 35.5.4-.5 1.6-1.8 3.3-4 .8 5.1.7 10.3-.3 15.4-2.1.8-4.3 1-6.4.4-1.6-2-2.5-3.7-2.7-5l1-5-1.7-3.3c-.2.4-.5 1.1-.7 2l-1 .3c-1.1.4-1.1.8 0 1-.5 0-.8-.3-1-1-1.1.9-1.7 1.7-1.7 2.3-.7 4 1 10.9 4 12.1 2 0 2.7 15.3 2.4 16.7-.2 1.3-1.8 2.2-4.7 2.7-1.8-.2-2.7-1.3-2.7-3.3.2-8.3.1-14.2-.3-17.8-.2 0-.7-.5-1.3-1.3-.7 1.1-1.8 2.8-3.4 5 .4-.2.7-.9.7-2-1.5-1.4-2.8-2.9-4-4.6-.2.2-.5.6-.7 1 .2.2.1 1.1-.3 2.7v-1c-.4 2-2 4.8-4.7 8.4l-2.3-.3c-.5 0-.7-.5-.7-1.3 1.2-1.7 2.2-3.5 3-5.4.2-1.8.1-3.5-.3-5-.7 1.3-1.5 1.6-2.4 1h-.3c-.2.2-.6.9-1 2h-2c-.7-.2-2.3-1.9-5-5-.5.4-1 .6-1.6.7-2.7-.2-4.2-1.5-4.7-3.7.8-5.6-.2-10.8-3-15.7l5.4-43.2c.4.2 1 .6 1.7 1l.3-.3.3-1.3-2.7-4h1.3c0-1.1.2-2.7.7-4.7 0 .9.1 1.6.3 2 1.1-.9 2.1-4.5 3-10.7-.2.2-.8.2-1.7 0l.3-3.7h2c1.3.2 2.2-1.4 2.7-5l.3-2.7c-.2 0-.6-.2-1-.7-.2 0-.3.1-.3.3v1-.7h-1c-5.7 0-20.5 1.7-24.9-1.9 1.3-.7 5.5-1.1 12.4-1.3.2-.9.7-2.1 1.3-3.7 2-.9 3.7-2.3 5-4 1.3.9 2.5 1.1 3.4.7-.5-.9-1.8-1.5-4-1.7-1.1-.2-1.7.2-1.7 1.3.2.5.2.8 0 1l-3-.3c.3-.6.4-1.3.3-2-1.1-1.4-2-1.4-2.7 0-.5-1.6-1.1-3.6-2-6 .9-.7 2.3-1.9 4.4-3.7-1.1-1.1-46.5 5.1-22 2.3-.8.7-1.7 1.1-2.7 1.4l-2.7-.3-.7-1.4.3-2c6.7-2.9 15.5-4.6 26.5-5l.3-.7v-1c-.2-.2-1.2-.4-3-.7-3.4 0-7 1.1-10.7.7l-1-1.7c3.4-6.9 28.6-8.7 33.7-9.4 1.4-.9 1.4-1.5 0-2 .7-.4 1.6-2 2.7-4.7-.2.9-.2 2.2 0 4 .4.2.9 0 1.3-.7 1.6-3.3 2.3-6.8 2-10.4-1.3.9-2.1 2.1-2.3 3.7-.2 0-.7-.3-1.3-1 2.5-3.4 4-14.7 6.1-19.9-.2-.4-.9-1.3-2-2.7 6-3.8 7-15.7 8.3-22.7-4 0-7.7.7-11.8-.1-1.1-.7-1.3-1.9-.7-3.7.2-.7.6-1.7 1-3-2-3.6-4.9 1.5-7.3-.3-2.2-.2-4.6-1-7-2.3-2.9-1.6-4.2-3.3-4-5.4-.2.9 1.3-1.3 4.7-6.7.7 0 1.6-.1 2.7-.3.2-.4-.2-1.1-1.3-2l-2 1.7v-1.3h.7c.4 0 .7-.2.7-.7l-1.3-1.7c-.7-1.1-.9-2.5-.7-4 1.6 0 2.3.1 2.3.3.9-.6 1.8-1.2 2.7-1.7-.7.2-2.2-.2-4.7-1.3-.9.9-2.6 1.9-5 3-1.8-1.3-2.2-1.9-1.3-1.7 1.1 0-1 .3-6.4 1-.9-1.3-1.3-1.9-1.3-1.7 3.1-3.1 5.8-4.6 8-4.4-.7-.2.8.1 4.4 1l2 2.3c.4-.4 1-.9 1.7-1.3l.7-5.7c-.2-.2-.8-.4-1.7-.7h2c.2-.2.2-.7 0-1.3 1.3-.9 1.3-1.7 0-2.6 2-.8 3.7-.1 5.1 2 0 .2-.5.7-1.3 1.3.7 1.1 1.4 1.7 2.3 1.7-.2.5-.1 1.1.3 2 .7-.2 1.6-1 2.7-2.3l.7-6c2.1.2 4.4.7 6.4 1.3.5-1.8 1.5-3.2 3-4.4.2-.7.1-1-.3-1 .7-1.6 1-2.9 1-4 7.7-2.9 15.3-6.1 22.8-9.4 0-.7-1.2-1.5-3.7-2.3.7.2 1.8.2 3.4 0 .7-.2 1.2-.6 1.7-1 .9 0 2.1.3 3.7 1-1.1-.4-2.8.1-5 1.7l.7.7c2 .1 3.9-.5 5.7-1.7l.3-1.3c1.1 1.6 1.8 2.3 2 2.3 5.6 1.2 14.7.4 20.2.4 13.4 3.8 35.2-2.6 45.6 9.7-1.1-.7-2.6-1.5-4.4-2.3-.9.7-1.3 1.2-1.3 1.7 4.7 1.6 7.4 2.7 8 3.3 2.9 1.6 5.8 4.2 8.7 8l5.7-2.3c1.3.2 3.2 1.6 5.7 4 7.5 10.9 11 22.8 10.6 35.6zm-171.2 65.7l-.3-.7-1 1.3.7.3.6-.9zm4.7-1c-1.6.2-2.5.3-2.7.3.2.7.6 1.1 1 1.3 1.3 0 2-.2 2-.7-.2-.3-.3-.6-.3-.9zm6-134.7c-.2 2-1.3 2.9-3.3 2.7-1.6-.2-2.8-.9-3.7-2v-2.3l4.4-1.7c1.9.2 2.8 1.3 2.6 3.3zm1.7 33.5c-2.5 3.6-4.1 5.2-5 5-2.5-.2-3.6-1.3-3.4-3.4 0-.7.7-1.5 2-2.3 1.3-.9 2.3-1.2 3-1 1.2.5 2.3 1.1 3.4 1.7-2.5 3.6-.5 0 0 0zm1 180.9h-1l-1 2.7h1l1-2.7zm.7-82.7h-1.3v-.7h1.3v.7zm3-.7l-2 .4c.2.2.7.6 1.3 1 .2-.3.4-.7.7-1.4-.2 0-.3.7 0 0zm-1-81.7h-.7v-1.7h.7v1.7zm4.7-19.5l-1.7 1.3-3-.3c1.1-.9 2.2-1.6 3.4-2-.8.7-.3 1 1.3 1zm-1 154.1c-.2-.9-.7.5-1.3 4-.5-1.6-.9-2.1-1.3-1.7.5-.6 1.4-1.4 2.6-2.3-.2-.9-1.2.9 0 0zm-2.1 21.8h-.7v-2h.7v2zm3.1-74.3l-2-.3v-.7l2 .3v.7zm13.4 39.5c-.4 2.8-.9 5.6-1.7 8.4-.5-2.2-.3-4.2.3-6 0-.2-.2-.4-.7-.7-1.6 8.3-2.2 13.1-2 14.4 1.4-2.1 1.1-1.2-1 2.7 0 .7.3 1 1 1-2.4 8.8-4.2 17.8-5.3 26.8 0-.2-.2-.8-.7-1.7.2 3.3-.1 6.5-1 9.7h-1.7c.4-1.6.2-2.8-.7-3.7.4 0 .8.2 1 .7.2-.4.4-1.6.7-3.4l-1.7 1 2-4c0-1.1-.3-2.5-1-4 1-1.9 1.3-3.9 1-6.1.2 0 .1-.2-.3-.7-.2.7-.7 1.5-1.3 2.3l1.7-15.4c.2 0 .4-.2.7-.7 0-1.1.1-3 .3-5.7.4-.4 1-1.1 1.7-2 .2-.9 0-1.3-.7-1.3l1-9c1.1-.2 2-1.1 2.7-2.7 3.3.5 5.2.5 5.7.1zm-11.8 58.6l.3-3.3h-1l-.3 3.3h1zm.4 2l-.7-.3-.7 1.3.3.3 1.1-1.3zm5-176.9l.3-2.3c-.9.5-2.2.9-4 1.3v2c1.1.7 2 1.1 2.7 1.3.4-.4.8-1.1 1-2.3zm-1.7 152.5h-1l-1 2 1 .3 1-2.3zm0-181.6l-.3 2-1-.3.7-1.7h.6zm0 179.2h-1l.3-1.3h1l-.3 1.3zm12.4-183.9c-1.3.9-3.6 2.3-6.7 4.4v2c1.1-.7 1.9-.5 2.4.4-1.1 0-2.1-.2-3-.7-.5.5-1.1 1.6-2 3.4-2-.9-2.8-2.1-2.3-3.7l.3-4.4c0 .5.3.8 1 1 .7 0 2.2-.7 4.7-2-.9.5-.9.9 0 1.4.7-.2 2.1-1.1 4.4-2.7.1-.1.5.2 1.2.9-1.3.9-.7-.7 0 0zm-9 38.2c.4-.7.7-1.3.7-2 .2-.9-.1-1.9-1-3-.9 0-1.3.8-1.3 2.3-1.6 3.9.4 1.4 1.7-1 .3.9.3 2.1-.1 3.7.4-.7.4-1.6 0 0zm.3-10.1l.3-4.4c-1.3.9-2.1 1.9-2.3 3v1.7c.6-.3 1.3-.4 2-.3zm-.7 117l-.7-.7-.3.3.3.7.7-.3zm16.4-168.5c-2.6 3.6-6.2 5-10.7 4.3-4.5-.4-6.5-3.1-6-8 .4-3.6 1.9-5.1 4.4-4.7.4 0 .7.1.7.3h1c1.4-1.3 3.1-2.1 5-2.3 2.2.2 3.8 1.5 4.7 3.7-.2.5-.3 1.1-.3 2 .8 3.8 1.2 5.3 1.2 4.7zm-13.4 173.5v-1l-2.7-.3v1l2.7.3zm-1-48.9l.3-1.3h-1l-.3 1.3h1zm1.4 2.7l-1-.3.3-1.3 1 .3-.3 1.3zm-.4 56.2h-.7v-2h.7v2zm4.1-62.9v-3c-1.6 2-2.2 2.9-2 2.7l2 .3zm1-89.2c-.5.2-.7.8-.7 1.7-1.3-1.6-2.1-2.2-2.3-2l3 .3zm8.3 79.8c-.2 0-.8.3-1.7 1l.7-6.4c-.5 1.6-1.2 3.4-2.3 5.4v-1.7c-1.5 8.3-3.6 16.5-6.3 24.5.2-.2.8-.4 1.7-.7.1-.7 0-1.4-.3-2l2.7.3 1.3-1 .3-3c-.2 0-.6.1-1 .3l-.7.7c-.7-.7-.9-1.2-.7-1.7l-.3.3c0 1.2 1.8-.7 1.7-.7l1.7.7c0-5.1.7-11.5 3.2-16zm-7.3 0l.3-.7c-2.2-.6-2.3-.4-.3.7zm1-4l-1.7 1.3v-.7l1.3-1.3.4.7zm.6-107.9l.3-1-2.3-1v1l2 1zm3.1 270.7c-.7-1.8-1.5-3.1-2.3-4l.3-3c.4.7 1.2 1 2.3 1-.2 2-.3 4-.3 6zm0-176.2c-.1-1.9-.8-2.2-2-1 .6.6 1.3 1 2 1 0-1.1-.7 0 0 0zm1.3 34.1l-.7 2.3h-.6l.3-2.3h1zm5.4 126.3c.4 0 .7.2.7.7-.2.7-.6 1.3-1 2 .4-1.3.1-1.7-1-1 .1-1.1.6-1.7 1.3-1.7zm12-67.7c-.5-.7-1-1-1.7-1 .5-4.1 1-8.3 1-12.4.4-1.1.6-1.1.3 0-3.8 3.8-7 23.1-7 28.5.2 0 .4.1.7.3-.5.7-2 6.1-4.7 16.4-.2.5-.5.7-.7.7 0 .5.2 1.3.7 2.7.7-2 1.9-5 3.7-9l-1 .3-.7-.7c1.6-.4 2.5-1.2 2.7-2.3 0-.4-.2-1-.7-1.7-.5 0 .3-.8 2.3-2.3-.5 0-1-.3-1.7-1 .9-.7 1.3-1.2 1.3-1.7-.2 0-.6-.1-1-.3 1.6-.2 2.3-1.2 2.3-3-.2.2-.6.2-1 0-.9 0 1.1-4 1.1-4.3h2.4l1-7.4-2 1.3c0-.7.4-1.2 1.3-1.7-1.1 0-1.7-.3-1.7-1 .8-.5 1.8-.6 3.1-.4zm-3-174.8l-2 .3v-.7l1.7-.3.3.7zm0 181.9l-.7-.3-.7 1 .7.7.7-1.4zm1.7-2.7l-1 1.3-.3-.3.7-1.3.6.3zm1.7-19.4l-.7-.3-.7 1.7.3.3 1.1-1.7zm5 1.6l1-10-2.3-.3-1.3 1-2.3-.3v2.3c1.1-.2 1.9-.8 2.3-1.7.4 1.1.6 2 .3 2.7 0 .5-.2.8-.7 1 0 3.4-.8 6.8-2.3 10.4 0 1.3.2 3 .7 5 .3-2.5 1.9-5.8 4.6-10.1zm55.9-37.8c-6.1 4.2-11.8 8.9-17 14.1-.9-.2-1.6-.2-2 0-1 5.3-23.6 8.9-27.2 9.4 0-.7-.5-1.5-1.3-2.3-2.3 2.1-5 3-8 2.6.7 1.1 1.1 1.6 1.3 1.3-1.2.4-2.5.4-3.7 0v-3.7c.4-.2 8.3-2.2 23.5-6 .4-.2.4-.7 0-1.3 8.5-1.3 17.5-5 27.1-11.1-.2-.4-.1-.9.3-1.3.2 0 .7-.2 1.3-.7-.9-.4-2-.8-3.4-1-.5.2-1.5.6-3 1 .2.2.9.5 2 .7-.2 1.3-.9 1.9-2 1.7-5.9 0-17 5.4-23.1 4.7 10.3-2.1 20.6-7.7 29.8-12.4.7 0 1.1.7 1.3 2 1.1-.7 2.2-.7 3.4 0l-2 1.3-4-.3-1 1c2.6-.5 5.1-.4 7.7.3zm-51.9 13.1l-.3-.7-2 1 .3.7 2-1zm62.3-72.4c-.5-1.1-.9-3.2-1.3-6.4-.5-1.8-3.1-5.7-8-11.7-1.1 0-3.1-.9-6-2.7.2.5-.5.9-2 1.3.2-.2-.3-.4-1.7-.7-.2-.2-.5.3-.7 1.7 2.2 1.5 4.4 3 6.7 4.4-1.1-.2-3.2-.8-6.4-1.7-1-2.2-2.3-2.9-3.7-2 .9.5 1.7 1.2 2.3 2.3-6.4 0-8.9-4.7-15.1 0-1.6-.2-3.7-.3-6.4-.3-.5.9-2.2 2.2-5.4 4-.7 7.4-2.5 13.6-5 20.8h2.3c-.2.7-.8 2-1.7 4-1.1-2.3-1.7.9-2.2 2.7l.3.7c.8-.5 1.6-.6 1.6.7-1.8.5-2.8 2-3 4.7 0-.2.1-.3.3-.3v.3c-.9 3.1-1.3 4.1-1.3 3 .2 0 .6.1 1 .3l-1.3.7c-2.2 10.7-3.6 18.5-4 23.5.2 0 .3.1.3.3-.5.2-.5.5 0 .7.7.5 1 .8 1 1l-1.3 1 3.4.3c8.3-3.8 20.4-9.8 36.5-18.1.4-.4 1.3-1.4 2.7-3-4.8 1.1-9.8 4-14.1 6.3-.7-.2-.9-.3-.7-.3l1.3-1c.2.2.8.5 1.7.7 0-.2-.3-.8-1-1.7.4-.2 1-.2 1.7 0-.9-1.3-1.3-1.9-1.3-1.7 3.8-1.6 9.7-5.6 17.8-12.1 5.6-6.5 9.8-13.8 12.7-21.7-.5-1.1-1.6 2.9 0 0zm-36.8 75.4c-.4-.5-1-.8-1.6-1 2.9.5-2.7 2-16.8 4.7-1.1.7-1.7 1.2-1.7 1.7 1.1-.2 2.5-.6 4-1 1 .6 1.9.4 2.6-.7 2.7-.5 7.2-1.7 13.5-3.7zm-18.5-4l-.7.3-.7-.7.3-.7 1.1 1.1zm9.8-3.4c-4.2 2-7.6 2.8-10.1 2.3 4.7-1.8 7.4-2.7 8-2.7l2.1.4zm-5.7-54.3l-1-.3-.3 1.3.3.3 1-1.3zm17.7 25.5l-3.7-.3c-4.4 3-8.9 5.5-13.7 7.7l2 .3 1-1c4.9-2 9.7-4.2 14.4-6.7zm-14.1-37.2c-.5 2-1.3 3.9-2.7 5.7.4-2.2.9-4.3 1.7-6.4l1 .7zm18.8 69.4l-2.3 1v-.7l2.3-1.3v1zm9-92.5c-1.8-.2-3.2-.6-4.4-1l3.4 2c.7.2 1-.1 1-1-1.8-.2 0 .9 0 0zm12.1 76.7c.4.2-.6.2-3 0-.5 0-.9-.4-1.3-1.3l-1 1c-.5 0-1.1-.6-2-1.7l3.4-1.3 4 1.4-.1 1.9zm-1-68.7l-1.7-.7v.7l1.3.7.4-.7zm33.5 24.2c-3.2 9.7-5.9 16-11.6 23.7l.3 1.7c-.2 1.8-1.3 3.6-3.4 5.4-.2 0-.7-.3-1.3-1l-1.3-.3c-.2.5-.7 1-1.3 1.7 0 .2.2.7.7 1.3-.2.5-1.1 1.5-2.7 3v-.7c-.2-.2-.6-.3-1-.3-1.1-.2-2.2.1-3.3 1 .7.7 1.7 1.1 3 1.3-2.5 2.9-5.7 5.5-9.7 7.7v-2c.7-.2 1.6-.6 2.7-1l-3-.3c8.5-7.4 14.7-15.2 21.1-23.8l.3-2.3c1.8-2.7 4.4-6.8 7.7-12.4 0-1.3.1-2.8.3-4.4.4-1.1 1.2-1.6 2.3-1.3l.2 3zm148.4 66.6c-3.2 12.1-6.8 24-10.7 35.9-2.7 2.9-6.5 7.8-11.4 14.7 1.5-2.4 2.5-5 3-7.8-29.1 40.5-59.6 83.9-111.8 52-.4 2.2-.4 4.5 0 6.7-2.2-2.9-5.3-6.7-9-11.4-.2-1.1-.8-3.1-1.7-6l-2-1.3c-.5-2.9-1.1-7.4-2-13.4 1.1-1.3 1.7-2.3 1.7-3-20.4-47.2 13.8-102.2 55.5-122-15.4 6.3-27.7 16-36.9 29.1-.2.2 0 .7.7 1.3l1.7-1.3c-2.9 3.1-5.2 6.9-7 11.4l1.3.7c6.9-9.6 18.2-19.8 33.8-30.5-.7 0-2.6.6-5.7 1.7 14.3-8.5 25.3-12.6 33.2-12.4-.2 0-.7.3-1.3 1 2.8 1.6 19.9 2.9 22.7 2.9 8.1 2.3 13.4 15.6 19.4 21.1l1.3-1.3c-1.4-1.5-2.3-3.3-2.6-5.4 3.6 0 6.2.8 8 2.3 1.3-1.6 2-2.6 2-3 3.6 10 11.6 17.4 12.7 29.2.4.9 1.4 1.8 3 2.7 1.4 2.1 2.1 4.1 2.1 6.1zm-113.9-35.5l-4.4 4.7-.3-1 4-4 .7.3zm5.4-3.3l-4.4 3.4-.3-1.3 4-3 .7.9zm53.2 32.1c-2.2-3.4-3.6-5.9-4-7.7-2.9 2-7.6 5.8-14.1 11.4.2-1.3 1.1-3 2.7-5-10.3 12.7-17.8 26.9-22.4 42.5-7.1-10.2-5.4 34.8-5.4 34.8 8.9-2.5 17.5-9 25.8-19.8 8.3-10.7 12.3-20.4 12.1-29.1.9.5 1.6-.2 2-2l1-2.3c-1.8-.7-3.7-1.4-5.7-2.3 1.4-5.4-2-8.3-10.4-8.7l8.4-.3c1.1.5 2.7 1.5 4.7 3 .2-.7.6-1.4 1-2.3-1.3 0-2.1-.1-2.3-.3 1.1-1.1 1.6-2 1.3-2.7-.9-.7-2.1-1.6-3.7-2.7 3.4-1.1 5.6-2.6 6.7-4.4-.7-.9-1.6-1.9-2.7-3l5 .9zm-29.8-48.9h-2v-1.3h2v1.3zm14.4.3c-2.5.7-7.5 2.3-15.1 5h3c1.4.3 5.4-1.4 12.1-5-2.5.7-6.7 3.6 0 0zm-10-2h-2v-1.3h2v1.3zm14.7 72.1h-1.7v-1.3h1.7v1.3zm59.6-55h-1.3v-3h1.3v3zm.4-37.2c3.1-1.3 5.6-2.3 7.4-3 .2 2.7.3 4.5.3 5.4-2.6 3.1-5 3.7-7.4 1.7l-.3-4.1zm8.7 81.8c.5-1.5.5-3 0-4.6 2.5-5.8 4.7-8.8 6.7-9 1.6 0 3 1 4.4 3 .4 1.3 1.1 2.6 2 3.7 3-1 4.9.5 5.7 4.7-1.1 9.2-3 12.3-5.7 9.4-1.7.7-3.4 1.5-5.1 2.3-7.7-2-10.4-5.1-8-9.5zm7 72l-3.7 12.4.7.3 4-12.7h-1zm128-108.2c.4-6.7-.9-13.2-4-19.4-3.1-2.5-5.1-3.8-6-4-.7 1.6-1 2.8-1 3.7h-.7c-1.8-2.9-3.2-4.2-4.4-4l-4 2.3c-.4-.7-.8-1.1-1-1.3-4.5-2.7-7.4-3.9-8.7-3.7-1.3 0-5.4 3.2-12.1 9.7-1.1 0-2-.4-2.7-1.3 0 1.1-.2 1.9-.7 2.3l-2 .3c-2.6 0 1.4-9.4-4.4 2.7.3 2 0 3.9-.7 5.7 2-2.9 3.5-5 4.4-6.4l.3.7c-8.3 14.5-15 25.6-20.1 33.2-.2-2.9-.2-6.9 0-12.1-.2-.2-.3-.4-.3-.7.7-6 .7-11.1 0-15.1-1.9 0-2.9 4.7-2.3-3.4l.7-4c-4.9-5.4-8.6-7.4-11.1-6 4.1 2.4 7.2 5.7 9.4 9.8 0 .9-.1 1.6-.3 2-2.2-4.5-4.6-7-7-7.7l.6 2 1-.3c1.1 0 2.3 1.1 3.7 3.4l-2.7 1.3c-4.7-5.1-7.5-7.8-8.4-8 .4-.7.7-1.5.7-2.3-5.3 2.4-10.7 4.7-16.1 7-.2.9-.3 1.7-.3 2.3-.9 1.8-2.1 3.1-3.7 4-2-.7-3.6-1.1-4.7-1.3 0-.2-.3-.1-1 .3.4 0 .7.2.7.7-1.1 3.1-1.8 4.9-2 5.4l3-1.4c.2.2.2.5 0 .7-2.5 3.1-3.7 5-3.7 5.7-1.8.9-3.1 1.8-4 2.7l1.3-1c.7.7 1.1 1.2 1.3 1.7-.2.5-.2 1 0 1.7.9-2.5 1.6-3.9 2-4.4.4.9.3 1.7-.3 2.3 2.2 4.6 3.5 9.5 4 14.7.2 1.3-.2 4.5-1.3 9.4.2-.2.7.2 1.3 1.3-.7 3.5-12.8 70.7-14.1 70.7l9.4-29.1-9 34.8c1.6-5.4 2.8-9.2 3.7-11.4 0 .5-1.2 5.2-3.7 14.4 0-.4.4-.8 1.3-1l-4 10.1c.4-3.2.9-6.3 1.6-9.4-1.6 5.6-2.5 8.8-2.7 9.7 0-.2.1-.4.3-.7.2 1.3-1.1 6.8-4 16.4l-.7-1c.2 3.6-.1 5.9-1 7 1.1-1.8 2-3.1 2.7-4 .2.7.3 1.1.3 1.3-.2-1.8.4-4.1 2-7l.7 1c0-.2.1-.6.3-1-.1 2.8-.6 5.6-1.3 8.4.9-2.5 1.6-4.1 2-5 .7.7 1 1.1 1 1.3-1.1 2.9-1.7 5-1.7 6.4 15.7-31.4 27.2-67 35.5-101.2 1.6 1.6 2.3 2.1 2.3 1.7-8.2 31-14.7 64.7-29.5 93.4.7-.4 1-.3 1 .3v2c.9-2.9 2.1-5.4 3.7-7.4.4.2.6.4.3.7-3.7 7.7-7 15.5-10 23.4 1.3-2.7 2.3-4.6 3-5.7.2 0 .2.2 0 .7 0 .2.2.3.7.3 5.5-2.7 12.3-25 14.7-30.9.2.2.3.7.3 1.3.2 1.6-2.3 8.2-7.7 19.8 1.3-2 2.7-3.8 4.4-5.4.7-.4 1.2-.4 1.7 0-2 5.1-3.4 9.2-4 12.1 2.5-4.2 5.1-9.9 8-17.1l-1 1c0-.7.7-2.5 2-5.4.4.4.7.8.7 1 .4-3.6 1-6.1 1.7-7.7.7.7.8 1.2.3 1.7-4.3 8.3 12.8-29.9 10.1-31.8.9-.7 1.4-1.1 1.7-1.3.2-2 .7-3.2 1.3-3.7-.4-1.8-.4-3.5 0-5.3l1 .7c.9-2.5 1.6-4.2 2-5.4-.9 1.1-1.7 1.8-2.3 2 0-2.7.7-4.4 2-5 .4.7.7 1.3.7 2 4.2-15.4 7.5-23.9 9.7-25.5l1 1c.4-.4 1.2-.7 2.3-.7.2-1.8.8-3.6 1.7-5.4.4.2.6.5.3.7-.5 2.7-1.1 5-2 7-.5-.4-.6-.7-.3-.7 3.2 3.2-2.6 6.6-.7 10.1 2.2-4.5 3.6-6.9 4-7.4l.7.7c-.2 2.7-.3 4.7-.3 6 2-4.2 3.6-6.9 4.7-8l.7.7c-.4 1.3-.6 2.9-.3 4.7 1.6-2 2.7-3.7 3.4-5 1.1 1.6 2.2 2.3 3.4 2.3.9-1.6 1.4-2.8 1.7-3.7.4.5.6 1.9.3 4.4 3.4-6.5 5.4-10.3 6-11.4.2.2.4.8.7 1.7 2.9-5.1 4.6-8.1 5-9 .2.5.3 1.7.3 3.7l1-1c3.4 4.3 11.1-18.1 14.1-18.1h2c3.8-9.8 7.8 1.2 12.1-4.3-.2-1.3-.1-2.1.3-2.3 1.3 1.8 2 3.2 2 4.4.2-2.7.6-4.7 1-6 .7 1.6 1.1 2.8 1.3 3.7l-1 1.3h2.7c-.2-4.7-.1-7.6.3-8.7 1.3-2.5 2.1-3.9 2.3-4.4-.5-2.7-.8-4.3-.8-4.7zm-129 146l-.7 2 .7.3.7-2.3h-.7zm3.4-5.3l-.7 1.7h.7l.7-1.3-.7-.4zm3.6-6l-.7-.3 3.7-12.4h.7l-3.7 12.7zm1.4 24.1l-1.3 2.7 1 .3 1-2.7-.7-.3zm.7-174.2c2.5-2 4.5-3 6-3 2-.2 3.1 1.1 3.4 4 .2 4-.9 6.1-3.4 6.4.9 0-1.1-1.2-6-3.7v-3.7zm2.3 171.8l-2.3 5.4h1.3l2-5.4h-1zm-.3-35.8v-1.3h1v1.3h-1zm1.6-24.5h-1l.7-3.4h1l-.7 3.4zm1-3.3h-.7l1.3-8.4h1l-1.6 8.4zm1.4 56.3l-1.3 1.3.7.7 1.3-1.3-.7-.7zm.3-149.8h-1v1.7h1v-1.7zm2-8c-.9.9-1.7 2.2-2.3 4 .4-1.6 1.2-2.6 2.3-3l1.3.7c-.6-.9-1-1.5-1.3-1.7-.9.9.3.2 0 0zm1.4 20.4l-1.3 2 1 .7 1-2.3-.7-.4zm.3 26.5h-1v1.7h1v-1.7zm-.3-34.2v-1.7h1v1.7h-1zm1.6 27.8h-1l.3 1.7h1l-.3-1.7zm1.4-32.1l-.7-.3.7-1.3.7.3-.7 1.3zm-.3-3.4c.7-2 1.6-3.2 2.7-3.7l.3 3c-.7-.4-1.7-.2-3 .7.7-2 1.3-.9 0 0zm.6 6.7l-.7-.3.7-1.3h.3l-.3 1.6zm.7 81.1l-.7-.3.7-1.7 1 .3-1 1.7zm6 16.4l-.7-.3.7-3.4h1l-1 3.7zm4-109.6c-.2-2.2 1.7-3.5 5.7-3.7 1.6 0 2.9.8 4 2.3l-9.7 1.4zm1 127v-1.3l1-.3v1.3l-1 .3zm1.7-2.3l-.7-.3 1.7-5h.7l-1.7 5.3zm2.7-10.1v-1.3h1v1.3h-1zm.7-1.7l-.3-1.3h1l.3 1.3h-1zm.6-2.6v-2l1-.3v2l-1 .3zm1-3.1l-.3-2h1l.3 2h-1zm.7-118.9c0-.7.7-1.4 2.2-2.3 5-3.2 2.1-.3 5.2-.3.9-1.6 2.6-2.3 5-2.3 5.4-.2 8.1 1.8 8.4 6 .2.9 0 3.1-.7 6.7l-20.1-7.8zm1 59.3h-1l.3-4.4h1l-.3 4.4zm-.6 56v-1.7h.7v1.7h-.7zm1.6-55.6h-1l.7-4.7h1l-.7 4.7zm6.1 32.8l-.7-.3.3-1.3 1 .3-.6 1.3zm.6-2.4h-.7l.7-3h1l-1 3zm1-6l-.7-.3 1-2.3h1l-1.3 2.6zm1.7-3l-.7.3v-3l1-.3-.3 3zm.7-47.6l-1-.3.7-1.7h1l-.7 2zm0 5.4v-2h1v2h-1zm1.3-3.4h-.7v-3.7h1l-.3 3.7zm3.7 35.9l-.7 3 .7.3 1-3-1-.3zm5-44.6h-1l.3 1.3h1l-.3-1.3zm12.1-11.7l-.7 1.7.7.3.7-2h-.7zm17.4 45.9l-2 1.7.7.7 2-2-.7-.4zm5-6.7l-.7-.3.7-1.3h.7l-.7 1.6zm2.7-64.3c-.7.9-1.5 1.3-2.3 1.3 2.9-.2 4.4.6 4.4 2.3-.1-2-.7-3.2-2.1-3.6-.7.9 1.4.4 0 0zm18.1 52.9c0-.7-.2-1.1-.7-1.3 0 1.8-.2 2.8-.7 3h1c.3-.7.4-1.2.4-1.7zm2-17.1l-.7-3.4h1l.7 3-1 .4zm3.4 1.7c.9 3.3 1.4 5.2 1.7 5.7-2-3.4-3.1-5.2-3.3-5.7.1-1 .3-2 .6-3 .9.7 1.6 1 2 1 0 .2-.4.9-1 2 .9 3.3.6-1.1 0 0zm5.7 7.7h-.7v2h.7v-2zm1.6 81.4c-.5 2.5-1.5 3.6-3 3.4-3.5-2.4-6.1-5.5-7.7-9.4-.2-1.3-.3-2.1-.3-2.3.7 0 1.3.5 2 1.3 1.5-1.3 3.2-2.4 5-3.3 2.5.4 3.8 3.8 4 10.3-.5 2.5-.2-6.5 0 0zm-4.3-166.8c-.3 1-.6 2-1 3-1.1-.2-2.2-.2-3.4 0-.9-.9-1.2-1.5-1-1.7l2-5c.9 0 2.2.2 4 .7l-.6 3zm170.5 56.6l-6.4 3c-.2.9.6 1.9 2.3 3 0 .5-.5 1.1-1.3 2-7.4-1.2-14.5-.4-21.1 2.3 3.8 1.2 7.7 1.7 11.7 1.6-7.1.6-14 2.1-20.8 4.4.2.5.6.6 1 .3 7.5-1 15-1.4 22.5-1.4l1.3.7-2.3 1.7c-27.9 3.4-56 6.8-84.1 7.7l-.7.7c-18.4 18.4-18.7 73.7-8.6 94.8 21.7-12.9 9-8.4 25.2-3 .4-.3.9-.4 1.4-.3.4.2 1.1.9 2 2 1.3-1.1 8.5-4.9 21.4-11.4 2.6-2.9-46.9 41.9-46.9 32.5l.7 1c4.5-.2 15.6-5.6 33.5-16.1-8.1 7.3-28.4 26.2-39.7 24.3-4-2.4-7.4-5.4-10.4-9-2.2.7-3.5 1.9-3.7 3.7l-4-.7c-2.2-.4-7.4-6.8-15.4-19.1-16.1-25.4.2-70.3 6.7-96.8-5.6.9-9.7 1.1-12.4.7-9-1.1-17.1-6-26.4-6.7 0-.7.3-1.5 1-2.3 2-.7 3.8-.9 5.4-.7l8.8 2 1-.7c-.5-.7-1.9-1.7-4.4-3 1.1 0 3-.1 5.7-.3-6.5-6.5-10.3-9.8-11.4-10.1-.7 0-2.8.2-6.4.7.2-.7.8-.9 1.7-.7.2-.2 0-.7-.7-1.3l5.4-5.4c4.7 0 7.1-.8 7.4-2.3.4-2 .1-3-1-3-1.8-.2-3.2-1-4.4-2.3 2-.2 5-.8 9-1.7l-1-1.3c1.3-.7 3.5-1.8 6.4-3.4.4-.7.3-1-.3-1 1.3.2 2.1.7 2.3 1.3 1.6-.4 2.6-1.8 3-4 8.4-2.4 17-3.8 25.8-4 8.5-17 13.8-38.5 20.7-56.3 2.7 1.8 5.7 3.9 9 6.4 1.3-1.1 3.2-2.7 5.7-4.7 0 .9.9 3.5 2.7 7.7.9-2 2.3-5.4 4.4-10l1.7.7c0 9.6 4 19.1 3 29.1h-1c-1.3 5.6-3.6 14-6.7 25.1.2.5.6 1 1 1.7.4 0 1-.3 1.7-1-.2.9.1 1.5 1 1.7 10.9 1.4 27.1.8 37.9-.7-1.3 2.5-3 3.6-5 3.4l-5-.7-1 .3c.7.9 1.7 1.5 3 1.7 2.9-.6 5.8-.9 8.8-1 .4 0 .6.2.3.7-.2.5 0 .7.7.7 8.4 1 19.8-2.5 28.8-2-2.4 0-23.7 4.2-22.1 3.7.7.9 1.3 1.3 2 1.3 10.5 1.8 14.7 2.2 12.7 1.3.7.9 2.5 3.2 5.4 7 0 .7.1 1.3.3 2 1.8.9 2.3 1.2 1.7 1 1.6.2 4.7.2 9.4 0l.7.7-.6 1.8zm-169.5 16.4l-4.7-.7c.7-.2 1.3-.6 2-1 .9 1.1 1.8 1.7 2.7 1.7zm62-95.1c-1.3.9-2.1 1.3-2.3 1.3l-4-.7-1.6-2.6c-1.3.2-2.5 1.1-3.3 2.5-1.1 4.7-1.6 9.4-1.7 14.2-2 1.3-4.9 3.2-8.7 5.7-6.9.5-10.2.8-9.7 1-3.1-1.3-4.1-3.5-3-6.7-.7-.9-1.6-2.3-2.7-4.4l-1-9.4c-1.6 1.3-2.8 1.9-3.7 1.7-5.6-.9-7.9-3.8-7-8.7 2-6 6.1-9.2 12.4-9.7 1.2.4 2.3 1 3.4 1.7 2.9-1.1 5.8-2 8.8-2.7 6.3 2.2 11.2 6.1 14.7 11.7.7-1.3 1.8-2.9 3.4-4.7 1.3-1.1 2.5-1.6 3.4-1.3 1.6.2 2.9 1.7 4 4.4l-1.4 6.7zm-31.5 30.4l-6-2.3.3-.7 5.7 2v1zm5 15.1c-.5 2.2-1.7 3.1-3.7 2.7-3.6-.4-5.9-2.2-7-5.4 1.1-2.5 2.5-3.6 4-3.4 4.9.8 7.1 2.8 6.7 6.1-.5 2.2.4-3.3 0 0zm13.7-38.5l-.7-1-.7.3.7 1 .7-.3zm11.1 7l-12.4 36.5 10-40.2c.5.3 1.3 1.5 2.4 3.7zm7 155.5c-1.1 0-1.9-.6-2.3-1.7-2.2-8 4.5-26.1 5.7-31.2-.9 11-2.1 22-3.4 32.9-1.1 0 .9-3.8 0 0zm25.5-121.6l-1.3 5.4h-1.3l1.7-5.7.9.3zm3.7-40.9h-1l.3-1.3h1l-.3 1.3zm20.4 1.3c-.2 2.2-2 4.1-5.4 5.7-.7-.9-1-1.6-1-2 1.3-2.8 3.3-4.9 6-6.4.5.7.6 1.6.4 2.7-.2 2.2.2-1.1 0 0zm41.9.4c-2 1.3-3.6 1.9-4.7 1.7l-.7-.7.3-2c.4-.4 2-1.2 4.7-2.3l1 .7-.6 2.6zm-47.3 163.8h-2.3v-1.3h2.3v1.3zm7.4-4.4l-3 1c-2.3 2.7-2.6 2.7-1 0-1.1.5-2.9 0-5.4-1.3 0 .5.6.7 1.7.7l6.7-2c.7.9 1 1.4 1 1.6zm-1.7 3.7l-3.3 2-.3-1 2.7-2 .9 1zm2.4-15.7l-3.7 3.7-.3-1 3.4-3.4.6.7zm215.4-31.9c-1.3 0-2.6.8-3.7 2.3-.9 1.3-.9 2.7 0 4-1.3.2-6.6.9-15.7 2 0 .9.2 1.3.7 1.3h9.7c0 .5.2 1 .7 1.7-8.4-.9-16.4.4-24.1 3.7.7.2 3.3.3 8 .3-1.3.2-3.4.8-6 1.7-.4.2-.2.7.7 1.3-1.1-.4-2.1-.3-3 .3 2.7.2 6.6.6 11.7 1-43.5 7.3-83.3 19.1-125.3 29.8v7c2.6.5 5.3.8 8 .7-5.6 0-8.4 1.3-8.4 4-3.1 27.9-6 48.2-8.7 61 .7-4.5 1.5-11.4 2.3-20.8l-1-1c-.2 0-.7.3-1.3 1 .7 3.6-.6 10.7-3.7 21.4.9-3.3 1.3-7.4 1.3-12.1-.2 0-.5.1-.7.3-2 5.8-7 14.7-15.1 26.8-.4.2-1.1.7-2 1.3-.9 2.2-2.1 5.9-3.7 11.1-5.8-5.8-7.7-17.6-8.1-24.8l-1-1.3c-1.8.9-.1 6.4 5 16.4 0-7.6-2.5-13.9-8.6-19.4-.7 1.6-1.8 3.6-3.4 6-3.9-3.9.7-9.6.7-14.4-.7 1.3-1.8 4.2-3.3 8.7-.5-.2-.8-.7-1-1.3 2.1-9.5 4.1-18 5-27.5-.7-.4-1.7-.6-3-.3l5.4-38.2c-.7-.9-1.2-1.3-1.7-1.3-.9.2-2.3 1.5-4.4 3.7l.7-.3c.4-.2.7-.6.7-1-3.4 1-13.2 8.1-17.4 8.1l-3.7-.3c4.5.2 8.7-1.9 12.7-6.4-1.2.8-1.8.6-2-.4v-1.3c-3.6 3.6-5.3 5.4-8.3 2.6 1.4-1.7 2.1-.8 3.6-.8 2.6-3.1 2.2-6-1.3-8.7.4-1.3 1-3.2 1.7-5.7-1-1.4-2.2-1.1-3.7 1 .4-.9.9-2.6 1.3-5h-4c8.4-7.2 17.5-13.3 27.2-18.4-4.5-1.1-8.8.2-12.9 3.9-4.6 2.8-7.8 5.5-9.5 8.2-.2-.4 0-1 .7-1.7-.9-.7-1.5-1-1.7-1-1.7 3.3-1.6 2.2.3-3.3-.4.7-.3 1.3.3 2 .7-.2 1.8-1 3.3-2.3-.9.9-1 1.6-.3 2 3.1-5.1 10.4-8.8 21.8-11.1.7-.7 1.3-1.6 2-2.7v-1.3c-.2-.4-.8-.7-1.7-.7l-11.4 4.7c-.4 1.1-14.2 6.9-12.1 5.7v-2c-.5 0-1.3.7-2.7 2 1.8-1.8 4-4.1 6.7-7 2-.9 2.9-1.3 2.7-1.3h1c4.2 4.6 9.9 3.2 17.1-4.3.4-1.6.4-3 0-4.4h-.7l1-2c11.8-41.4 6.1-85.4 23.1-126.7 2.2-.9 3.9-2.7 5-5.4l2.7-7c-.4 1-.4 2 0 3 2.2-4.5 6.9-9.3 14.1-14.4l-3 3c.7.5 1.6.1 2.7-1-4.2 5.1-6.1 8.4-5.7 9.7.2-.9 1-2.1 2.3-3.7 12.1-6.7 18.6-10 19.8-10l1.3 1.3c7.8-4.8 15.5-5 23.1-.7 2.7 2.7 4 4.1 4 4.4 1.8 0 2.9 1.6 4.3 1.6 6.9.5 12.5 2.3 16.8 5.7 1.8 1.3 3.7 3.1 5.7 5.4 4.6 5.1 8.6 5.8 12.1 2 .9 2.5 2.1 5.8 3.7 10.1-14.1 3.1-28.3 2.2-40.2-9.7-1.5.5-1.7 1.1-.6 2-1.1-1.1-2.2-1.7-3.3-1.7-3.4 1.8-7 3.3-10.7 4.4-17.1 19.4-13.8 47.4-23.4 69.4.7 8.4-1.1 16-5.3 22.8l-1.7 25.1c5 0-.2 3.1-.7 3.7 3.8.5 7.6.4 11.4-.4-2.7.7-6.7 2.2-12.1 4.7 0 .5.2.7.7.7 17.7-4.6 37.5-8.1 55.7-6.7-7.4.9-19.8 3.5-37.2 7.7 2.9 1.1 4.7 1.7 5.4 1.7l66.3-7.4-45.2 7.4-1.3 1c5.3 5.3 83.8-8.1 96.5-5.2zm-213.1 50.3c-2.3 2.8-2.4 3.4-2.6.1l.7 1.3c.6-1 1.2-1.4 1.9-1.4zm5 3.7l-.7-1-1.3 1v.7l2-.7zm13.4 11.4c-3 1-5.8 2.4-8.4 4.3 2.5-1.1 5.5-2.6 9-4.4l-.6.1zm8.1 33.5v-6.7c-.5 0-1-.3-1.7-1-.2.7-.7 1.6-1.3 2.7-.7 6.3-1.5 14.5-2.3 24.8 3.5-12.3 5.3-18.9 5.3-19.8zm-1.7-79.1v-1h-2v1h2zm5 123.6h-1.3v-1.7h1.3v1.7zm1-184.2h-1v-2.3h1v2.3zm25.2-68.7v-2.7h-.7v2.7h.7zm8-34.2l-4.4 5.4-.7-1 4.4-4.7.7.3zm-4 27.8v-2.6h-1v2.7h1v-.1zm2-7.3h-.7l-1.7 4.4.7.3 1.7-4.7zm1 0v-1.7h-1.3v1.7h1.3zm3.3-10.4h-.7l-3.7 8 1.3.3 3.1-8.3zm29.5 2h-.7l-2.7 5.7.7.3 2.7-6zm14.1-15.1c-5.2 0-6.6-3.5-12.3.6 2.6.1 6.7-.1 12.3-.6-.7 0-5.6.5 0 0zm24.1 141.4h-4.4v-1h4.4v1zm6.4-.7h-4.7v-1.3h4.7v1.3zm5-1h-4.4v-1h4.4v1zm6-.3h-5v-1h5v1zm2-123.6l-.3 1-2-1v-.7l2.3.7zm3.7 122.9h-3.7v-1.3h3.7v1.3zm24.5 59h-2.3v-1h2.3v1zm91.1-50.3c-3.2 12.1-6.8 24-10.7 35.9-2.7 2.9-6.5 7.8-11.4 14.7 1.5-2.4 2.5-5 3-7.8-29.1 40.5-59.6 83.9-111.8 52-.4 2.2-.4 4.5 0 6.7-2.2-2.9-5.2-6.7-9-11.4-.2-1.1-.8-3.1-1.7-6l-2-1.3c-.4-2.9-1.1-7.4-2-13.4 1.1-1.3 1.7-2.3 1.7-3-20.4-47.2 13.8-102.2 55.5-122-15.4 6.3-27.7 16-36.8 29.1-.2.2 0 .7.7 1.3l1.7-1.3c-2.9 3.1-5.2 6.9-7 11.4l1.3.7c6.9-9.6 18.2-19.8 33.8-30.5-.7 0-2.6.6-5.7 1.7 14.3-8.5 25.3-12.6 33.2-12.4-.2 0-.7.3-1.3 1 2.8 1.6 19.9 2.9 22.7 2.9 8.1 2.3 13.4 15.6 19.4 21.1l1.3-1.3c-1.4-1.5-2.3-3.3-2.6-5.4 3.6 0 6.2.8 8 2.3 1.3-1.6 2-2.6 2-3 3.6 10 11.6 17.4 12.7 29.2.4.9 1.5 1.8 3 2.7 1.3 2.1 2 4.1 2 6.1zm-113.9-35.5l-4.4 4.7-.3-1 4-4 .7.3zm5.4-3.3l-4.4 3.4-.3-1.3 4-3 .7.9zm53.2 32.1c-2.2-3.4-3.6-5.9-4-7.7-2.9 2-7.6 5.8-14.1 11.4.2-1.3 1.1-3 2.7-5-10.3 12.7-17.8 26.9-22.4 42.5-7.1-10.3-5.4 34.8-5.4 34.8 8.9-2.5 17.5-9 25.8-19.8 8.3-10.7 12.3-20.4 12.1-29.1.9.5 1.6-.2 2-2l1-2.3c-1.8-.7-3.7-1.4-5.7-2.3 1.4-5.4-2-8.3-10.4-8.7l8.4-.3c1.1.5 2.7 1.5 4.7 3 .2-.7.6-1.4 1-2.3-1.3 0-2.1-.1-2.3-.3 1.1-1.1 1.6-2 1.3-2.7-.9-.7-2.1-1.6-3.7-2.7 3.4-1.1 5.6-2.6 6.7-4.4-.7-.9-1.6-1.9-2.7-3-.2 0 4.9.9 5 .9zm-29.8-48.9h-2v-1.3h2v1.3zm14.4.3c-2.5.7-7.5 2.3-15.1 5h3c1.4.3 5.4-1.4 12.1-5-2.5.7-6.7 3.6 0 0zm-10-2h-2v-1.3h2v1.3zm14.7 72.1h-1.7v-1.3h1.7v1.3zm59.6-55h-1.3v-3h1.3v3zm79.4 101.9c-1.1.9-5.2 3.2-12.4 7 .7 1.7 1.8 1.8 3.3.3-.2.7-.3 1.1-.3 1.3.8.6 1.4.3 2-.7 1.1 2.6 1 5-.3 7.4-3.8 1.3-8.2 4.1-13.1 8.4-1-.6-2-1-3-1.4-1.1-.2-3 .6-5.7 2.3l-.3 2c-1.6.7-2.9 1.5-4 2.3-.4.2-.2.3.7.3.9.2 2.3-.1 4.4-1-1.3.5-3.1 1-5.4 1.7-.7.9-1.6 2-2.7 3.3-1.3-.2-3.3-.2-6 0-5.2 1.6-9.5 4.6-12.7 9.1.2-1.1-.1-2.3-1-3.7-1.6 1.1-2.3 2.3-2.3 3.7-.2 1.1-.1 2 .3 2.7l-1.3-1.7c-1.1 1.1-2.7 3-4.7 5.7-.2-.4-.7-1.1-1.3-2-2 0-3.1 1-3.4 3-.2 2-.3 4-.3 6h-2.3c0-2.6 1.3-4.4.4-7.3l-5.4 4.4c-2.9-.2-5-1.8-6.4-4.7l-2 1.7c0-1.1-.3-2.1-1-3l-1.4 2c0-.9.6-2.5 1.7-4.7l-1-.7c-.7.9-1.5 1.9-2.3 3 0-.7.3-2.3 1-5 .2-2.7-.4-4-2-4-.7-.2-1.9 0-3.7.7 0 .7.1 1.2.3 1.7l1.7-1c.7 0 .1.8-1.7 2.3 0-1.3-.6-2.6-1.7-3.7 0-.2-.2-.1-.7.3v5c-.2-1.3-.2-2.9 0-4.7-1.6-1.6-2.2.7-3.4.7.6-.6 1-1.2 1.3-2-.9-1.1-1.9-2.2-3-3.4l3 2c.4-.4.2-1.2-.7-2.3l6.7-8.7c-3.1-.8-6.1-.2-9.1 1.7 2.2-1.1 5.5-2.8 9.7-5v-2c5.1-5.1 10.6-11.5 15.5-16.8 17.4-36.8 29.2-81 30.1-121.8-4.2 24.7-7.1 49.3-16.7 72.7 6.5-33.3 10-54.2 10.7-62.6l.7 1.3c.3-1 .4-2 .3-3 2.6-2.2 2-62 5-74.7.7-.4 1.7-1 3-1.7.2-.9.3-1.5.3-1.7h1.7c0 .5.2 1.1.7 2l-2.7 55.6c5-17.7.4-36.5 5.8-53.9.2.9.6 2 1 3.4 1.3-1.1 2.1-3.5 2.3-7 1.6.9 2.8 1.3 3.7 1.3.4-.4 1.2-1.3 2.3-2.7v2.7c.7.2 2.2.4 4.7.7 1.6.2 2.3 0 2.3-.7-.2 1.1-.1 2.1.3 3 0-1.1.6-2.6 1.7-4.4 1.1-1.8 2.1-2.6 3-2.3v2c-1.6.9-2.6 1.8-3 2.7l.3 2.3c1.8-.7 3.8-2.5 6-5.4l-.7 5.4c0 2.2 1.4 3.5 4.4 3.7-4.6 10.1-2.5 22.9-2.1 33.8-.2 2.2.2 3.7 1.3 4.4-1.7 18.3-26.7 131.8-26.3 132 .7-.4 1.5-.6 2.3-.3.4.2 1.3 1.2 2.7 3h1.7c1.3-1.3 2.1-2.8 2.3-4.4 0 .2.2.8.7 1.7.9 0 1.5-.4 1.7-1.3-.7 1.3-2.6 3-5.7 5 2 .5 3.6.7 4.7.7 21.3-7.9 3.4 0 13.4 0l2.6-1.4c2.5.2 5.7 1.5 9.7 3.7l-.2 3.7zm-92.8 32.1l-.7-.7-1 2 .7.3 1-1.6zm2.7 4.7c-.7-2.5-.9-4.5-.7-6-.4.5-1.3 2.2-2.7 5.4 1.9-.1 3 .2 3.4.6-.7-2.5-.4-.4 0 0zm-1.3 10.1l-1-.3.3-3 1 .3-.3 3zm8.4-1.4l-1.3-.3-.7 3h1l1-2.7zm1-38.8l-1 1.3-.7-.3 1-1.3.7.3zm15-34.5c-2.7 7.5-6.3 14.6-10.8 21.1 1.8-4.9 4.6-12.1 8.4-21.4l2.4.3zm3.7-19.5l-1 2.3-1-.3.7-2.3 1.3.3zm5.7-34.1h-.7l.3-2 .7.3-.3 1.7zm3.7-17.8l-.7 4.4-1-.3.7-4 1-.1zm15.4 137.7c-3.6 2-7.3 4.6-11.1 7.7.9 1.8 2.2 2.8 4 3 .4.2.9.2 1.3 0v-.7c-.2 2-.4 2.9-.7 2.7-.9-.2-1.8-.1-2.7.3-1.3-1.3-1.7-2-1-2-.9-.7-3-1.2-6.4-1.7 5.6-3.7 11-6.9 16.6-9.3zm-14.7-142.4l-1-.3.3-5h1.3l-.6 5.3zm4-30.1l1.7-32.2c-3.1 10.5-3.6 21.2-1.7 32.2zm10.4 166.5l.3-1.3h-2.3l-.3 1 2.3.3zm3.3-46.6h-.7l-2 3 .7.7 2-3.7zm1.4-6h-1l-1.7 4.7h.7l2-4.7zm2 12l-.7-1.3-4 2.3v1.3l4.7-2.3zm6.3 36.2l-1.7.3v-1l1.7-.7v1.4zm9.1 2.3c-2.8 0-3.5 1.3-7 .4 1.1-.9 2.5-1.2 4-1l3 .6zm4-41.2l-1.7 2.3-.7-1 1.7-2 .7.7zm5.4-97.1l-1.3-.3.3-3.3 1.3.3-.3 3.3zm0 98.5h-1.3l.3-2 1 .3v1.7zm1.3-111.6h-1.3l.3-3.3h1.3l-.3 3.3zm5.4 119.3h-1l-1 2.7h1l1-2.7zm100.5 9c-3.6 2.5-5.4 4.1-5.4 5-.2.7.2 1.1 1.3 1.3-.9.9-4 3.6-9.4 8-.5.4-.7 1.1-.7 2-6.9 7.7-13.9 13.1-22.1 19.4l-.3.7 1.7-1c-.2.2-.4.6-.7 1 0 .4.2.9.7 1.3-1.3.7-2.8.9-4.4.7l-.7 1.3c0 .4.2.8.7 1h-1c-1.3-1.1-2.4-.9-3.4.6-.2.7-.2 1.6 0 2.7-1.1-.7-2.6-1-4.4-1-.9.7-1.5 1-1.7 1-1.9-.9-3.9-1.6-6-2 3.8 3.8-6.3-10.6-6.3-5.1-.2-.4-.8-1.2-1.7-2.3-1.4 1.7-6.9.7-7.3 1 .4-.5.4-.7 0-.7-2.5-.2-4.5-2.3-6-6.4-13-33.6-3.2-107.7 22-134.6 2.7-.8 5.1-2.2 7.3-4 .9 1.3 2.3 3.6 4.4 6.7 3.6-2.2 6.2-3.2 8-3h2c-.1.6-.3 1.2-.6 1.7 1.3 1.7 5.3-2.4 7-3.3-2.2 2.9-3.5 5.1-3.7 6.7v2l1 1c.7 0 1.4-.3 2.3-1 .2 1.6.3 2.8.3 3.7-.2.9-.7 1.3-1.3 1.3h-1.3l.3 2.7c.7-.7 1.3-1 2-1 0 .2.1.7.3 1.3-1.6.9-2.5 1.9-2.7 3 .2-.4.2-.8 0-1-5.7 32.3-17.4 63.2-16.4 96.5.2.2.6.5 1 .7l27.5-17.8c-6.4 9-14.5 16.3-24.1 21.8.9-.7 6.2-4.2 16.1-10.7l-17.8 14.1c.2.2.8.1 1.7-.3l-2.3 1.7c0 .2.3.3 1 .3.9.2 12.1-7.3 33.5-22.4.2.5.8.8 1.7 1 .7-.2 2-.7 4-1.3-2.2 1.6-3.3 2.8-3.3 3.7-.2 1.6.6 2.5 2.3 2.7 1.6-.5 3.3-.7 4.9-.7zm-70.4 33.9v-.7l-2.3-.3v.7l2.3.3zm5-8.1l.3-1-3.7-.3-.3 1 3.7.3zm-.6 9.4l.3-1.3h-1l-.3 1.3h1zm2.6-12.7l-3-.3-.3 1.3c.9-.2 2-.6 3.3-1zm3.7 27.4l-6.4-1.3.3-1 6 1.3v1h.1zm66.7-202.6c-.4-.4-1.1-1.2-2-2.3-.2 0-.4.1-.7.3.2.7.3 1.6.3 2.7-.2 1.8-.9 3.8-2 6 .2-1.6.1-4.2-.3-8-.4-.2-.8-.2-1 0v2.3c-1.8 1.6-2.6 3.4-2.3 5.4.4.5 1.2 1.2 2.3 2.3.4-.4.7-.8.7-1l-3 7.7c-2.7 2.5-7.3 6-13.7 10.7 0 1.5 2.8 2.1.9 3.6-2-1.8-3.5-2.7-4.4-2.7l-5.7 2.7c1.3-1.8 2.1-3 2.3-3.7l-2.3-.3-.3 3.4c0 .1-4-2.6-1 1.6-1.1-2.1-2.4-4-4-5.7-2-.2-3.5-.1-4.4.3-.7-3.4-2-4.7-4-4 1.3-1.3 2.1-2.3 2.3-3-.7-.7-1.1-1-1.3-1-1.7 1.6-3.8 2.6-6.1 3-1.1 0-2.7.8-4 .8-2.5-.2-3.3-4.1-2.7-11.7l1.3-1c1.2-10.6 5.3-20.2 12.4-28.8 4.9-2 9.4-3.7 13.4-5-4-5.2-19 9.6-17 7.1-3.7 4.5-5.9 9.2-6.5 14.1.9-2.7 1.8-6.4 2.7-11.1-6.7 5.1-10.1 11.2-10.1 18.1.4.9.8 2 1 3.4-.6-1-1.5-1.1-2.7-.4l-.3-2.7c3.8-11 10.1-19.6 19.1-25.8 0-1.3-.5-3.4-1.3-6 2-1.3 3.6-2 4.7-2 5.6.6 12.3 3.3 17.7 5.3 0 .4.7 1.8 2 4 1.1-.2 2-.2 2.7 0 .5 1.7 6.4 1.8 8.2 1.8 0-.2 1.9 3 2.3 3 2.5.2 4.1.2 5 0l.7 1-.7.7c0 .5.3 1.2 1 2.3l-4.4 2c0 .5.4.8 1.3 1-.5 1.1-.7 2.9-.7 5.4 1.3 0 2.9.9 4.7 2.7l-.1 1.5zm-56.6 6.7l-.7-.3-.3-1.3h.7l.3 1.6zm7.7 158.4l-.7-1-1.7 1 .3.7c.7-.5 1.4-.7 2.1-.7zm1-181.5h-.7l-1 1 .7.3 1-1.3zm28.1 173.1v-.3l-1.3.3v.7l1.3-.7zm14.4-150.7l-.7 1-.7-.3.3-1.3 1.1.6zm146.1 77.7c-3.2 12.1-6.8 24-10.7 35.9-2.7 2.9-6.5 7.8-11.4 14.7 1.5-2.4 2.5-5 3-7.8-29.1 40.5-59.6 83.9-111.8 52-.4 2.2-.4 4.5 0 6.7-2.2-2.9-5.2-6.7-9-11.4-.2-1.1-.8-3.1-1.7-6l-2-1.3c-.4-2.9-1.1-7.4-2-13.4 1.1-1.3 1.7-2.3 1.7-3-20.4-47.2 13.8-102.2 55.5-122-15.4 6.3-27.7 16-36.8 29.1-.2.2 0 .7.7 1.3l1.7-1.3c-2.9 3.1-5.2 6.9-7 11.4l1.3.7c6.9-9.6 18.2-19.8 33.8-30.5-.7 0-2.6.6-5.7 1.7 14.3-8.5 25.3-12.6 33.2-12.4-.2 0-.7.3-1.3 1 4 2.3 20.1-2.8 22.2 3.4-.1-.3.1-.5.5-.5 8.1 2.3 13.4 15.6 19.4 21.1l1.3-1.3c-1.4-1.5-2.3-3.3-2.6-5.4 3.6 0 6.2.8 8 2.3 1.3-1.6 2-2.6 2-3 3.6 10 11.6 17.4 12.7 29.2.4.9 1.5 1.8 3 2.7 1.3 2.1 2 4.1 2 6.1zm-113.9-35.5l-4.4 4.7-.3-1 4-4 .7.3zm5.4-3.3l-4.4 3.4-.3-1.3 4-3 .7.9zm53.2 32.1c-2.2-3.4-3.6-5.9-4-7.7-2.9 2-7.6 5.8-14.1 11.4.2-1.3 1.1-3 2.7-5-10.3 12.7-17.8 26.9-22.4 42.5-7.1-10.2-5.4 34.8-5.4 34.8 8.9-2.5 17.5-9 25.8-19.8 8.3-10.7 12.3-20.4 12.1-29.1.9.5 1.6-.2 2-2l1-2.3c-1.8-.7-3.7-1.4-5.7-2.3 1.4-5.4-2-8.3-10.4-8.7l8.4-.3c1.1.5 2.7 1.5 4.7 3 .2-.7.6-1.4 1-2.3-1.3 0-2.1-.1-2.3-.3 1.1-1.1 1.6-2 1.3-2.7-.9-.7-2.1-1.6-3.7-2.7 3.4-1.1 5.6-2.6 6.7-4.4-.7-.9-1.6-1.9-2.7-3l5 .9zm-29.8-48.9h-2v-1.3h2v1.3zm14.4.3c-2.5.7-7.5 2.3-15.1 5h3c1.4.3 5.4-1.4 12.1-5-2.5.7-6.7 3.6 0 0zm-10-2h-2v-1.3h2v1.3zm14.7 72.1h-1.7v-1.3h1.7v1.3zm59.6-55h-1.3v-3h1.3v3z"/></svg>